<svg xmlns="http://www.w3.org/2000/svg" width="36" height="34" fill="none"><path fill="#5600B9" fill-rule="evenodd" d="M34.7602 12.2326a.003.003 0 0 0-.0008-.0008l-.0003-.0002a1.6083 1.6083 0 0 0-.5596-.5428 1.6054 1.6054 0 0 0-.8005-.2123h-.7447v-.7943c-.5044.2795-1.0854.5247-1.7222.7406v5.3426l-.0641.0515c-.0643.0518-.1285.1036-.1949.1529a9.969 9.969 0 0 1-1.9825 1.1459 9.9757 9.9757 0 0 1-2.2239.6675l-.2038.0359a48.606 48.606 0 0 1-3.2591.4598 1.108 1.108 0 0 0-.9517-.3991 47.7954 47.7954 0 0 1-4.1486.1809 47.793 47.793 0 0 1-4.1485-.1809 1.1087 1.1087 0 0 0-.9518.3991 48.5699 48.5699 0 0 1-3.2588-.4598 9.9348 9.9348 0 0 1-4.329-1.9065c-.1095-.0841-.2153-.1731-.321-.2619l-.0191-.0161.0005-5.2124c-.6368-.2157-1.2178-.4611-1.7222-.7406v.7943h-.553c-.2777 0-.55.0714-.7887.2061-.0008.0004-.0013.0008-.002.0013l-.0008.0006a1.6036 1.6036 0 0 0-.5555.5265 1.595 1.595 0 0 0-.2482.7278c-.0228.272.0266.5484.1428.7994.3778.8161.855 1.5857 1.4183 2.2877A11.1623 11.1623 0 0 0 6.7502 19.24a11.218 11.218 0 0 0 2.58.7858 49.8562 49.8562 0 0 0 3.3533.4726c.1706.3172.4918.5458.8785.5794a49.88 49.88 0 0 0 4.3423.1897c1.4433 0 2.9043-.0638 4.3424-.1897.3866-.0337.7079-.2622.8784-.5794a49.6125 49.6125 0 0 0 3.3539-.4726l.2037-.0359a11.1943 11.1943 0 0 0 2.4988-.7501 11.157 11.157 0 0 0 4.1002-3.0505 11.1425 11.1425 0 0 0 1.4325-2.1753l.1159-.2312a1.5875 1.5875 0 0 0 .167-.8085 1.6015 1.6015 0 0 0-.237-.7417h.0001Zm-32.4948.9916a.3667.3667 0 0 1-.034-.1837.3762.3762 0 0 1 .1867-.2914c.0003 0 .0003 0 .0005-.0003a.3635.3635 0 0 1 .1815-.0463h.553v2.0595a9.9475 9.9475 0 0 1-.8877-1.5378Zm31.3481.2427.1162-.232c.0299-.0602.0436-.1224.0392-.1853a.3753.3753 0 0 0-.0557-.173.381.381 0 0 0-.1299-.1267.3627.3627 0 0 0-.184-.0473h-.7447v2.3011a9.9252 9.9252 0 0 0 .9589-1.5368Z" clip-rule="evenodd"/><path fill="#fff" d="m34.7594 12.2318-.1597.1926.0086.0066.1511-.1992Zm.0008.0008-.0834.2357.5839.2066-.2769-.554-.2236.1117Zm-.0011-.001-.2124.1318.0215.0346.0313.026.1596-.1924Zm-.5596-.5428.1251-.2164-.0003-.0002-.1248.2166Zm-1.5452-.2123h-.25v.25h.25v-.25Zm0-.7943h.25v-.4243l-.3711.2056.1211.2187Zm-1.7222.7406-.0803-.2368-.1697.0576v.1792h.25Zm0 5.3426.1566.1948.0934-.075v-.1198h-.25Zm-.0641.0515-.1567-.1949-.0045.0038.1612.1911Zm0 0 .157.1947.0042-.0036-.1612-.1911Zm-.1949.1529-.1491-.2007v.0001l.1491.2006Zm-1.9825 1.1459.0993.2295v-.0001l-.0993-.2294Zm-2.2239.6675.0433.2462h.0001l-.0434-.2462Zm-.2038.0359-.0433-.2462h-.0001l.0434.2462Zm-3.2591.4598-.1927.1592.0856.1037.1337-.0144-.0266-.2485Zm-.9517-.3991-.0217-.249h-.0001l.0218.249Zm-8.2971 0 .0217-.249h-.0003l-.0214.249Zm-.9518.3991-.0266.2485.1336.0143.0857-.1035-.1927-.1593Zm-3.2588-.4598.0434-.2462-.0434.2462Zm-2.2956-.699.1012-.2286v-.0001l-.1012.2287Zm-2.0333-1.2075.1523-.1982-.1523.1982Zm-.321-.2619.1608-.1914-.1609.1914Zm-.0192-.0161-.25-.0001v.1165l.089.0749.161-.1913Zm.0005-5.2124h.25v-.1793l-.1698-.0575-.0802.2368Zm-1.7222-.7406.121-.2187-.371-.2055v.4242h.25Zm0 .7943v.25h.25v-.25h-.25Zm-1.3417.2061.1116.224.0112-.0063-.1228-.2177Zm-.002.0013.1528.1979.0017-.0014-.1545-.1965Zm-.0008.0006.1233.2175.0155-.0088.014-.0108-.1528-.1979Zm-.5555.5265.2103.1353v-.0001l-.2103-.1352Zm-.2482.7278.2491.0209v-.0002l-.249-.0207Zm.1428.7994-.2269.105.2269-.105Zm1.4183 2.2877-.195.1565v.0001l.195-.1566Zm1.8985 1.8575.1524-.1982-.1524.1982ZM6.7502 19.24l-.1011.2287.101-.2287Zm2.58.7858-.0435.2461.0001.0001.0434-.2462Zm3.3533.4726.2202-.1184-.0624-.1161-.1312-.0141-.0266.2486Zm.8785.5794.0218-.249h-.0002l-.0216.249Zm8.6847 0-.0217-.249h-.0001l.0218.249Zm.8784-.5794-.0265-.2486-.1312.014-.0625.1162.2202.1184Zm3.3539-.4726-.0434-.2462h-.0001l.0435.2462Zm.2037-.0359.0433.2462h.0002l-.0435-.2462Zm2.4988-.7501-.0993-.2295-.0001.0001.0994.2294Zm2.228-1.288-.1492-.2006-.0001.0001.1493.2005Zm1.8722-1.7625.1912.161-.1912-.161Zm1.4325-2.1753.2235.1122.0001-.0002-.2236-.112Zm.1159-.2312-.2234-.1122-.0001.0002.2235.112Zm.167-.8085.2495-.0154v-.0001l-.2495.0155Zm-.237-.7417.0834-.2357-.6707-.2372.3748.6046.2125-.1317Zm-32.5287.8079-.249-.022-.0002.0022.2492.0198Zm.034.1837.2456.0466.0149-.0783-.0332-.0724-.2273.1041Zm.0239-.3522-.2097-.1362-.0011.0018.2108.1344Zm.1288-.1229v-.25h-.066l-.0575.0326.1235.2174Zm.0005-.0003-.1231-.2176-.0294.0167-.0239.0238.1764.1771Zm.7346-.0463h.25v-.25h-.25v.25Zm0 2.0595-.2046.1438.4546.6469v-.7907h-.25Zm-.8878-1.5378-.2456-.0466-.015.0789.0337.0728.2269-.1051Zm31.4643.0107.2235.1118.0003-.0005-.2238-.1113Zm-.1162.232.2234.1122.0002-.0003-.2236-.1119Zm.1554-.4173-.2495.0158.0001.0016.2494-.0174Zm-.0557-.173.2129-.131-.0011-.0018-.2118.1328Zm-.1299-.1267.1254-.2163-.0006-.0003-.1248.2166Zm-.9287-.0473v-.25h-.25v.25h.25Zm0 2.3011h-.25v.7444l.4493-.5935-.1993-.1509Zm1.9537-2.5727-.0005-.0004-.0013-.001-.0046-.0037a.2493.2493 0 0 1-.0653-.0815l.4472-.2235a.253.253 0 0 0-.0664-.0829l-.0049-.0038-.002-.0016-.3022.3984Zm-.0088-.007.0003.0003.3192-.3849-.0003-.0003-.3192.3849Zm-.5251-.5187c.1916.1107.355.2691.4723.4581l.4248-.2637a1.857 1.857 0 0 0-.6469-.6273l-.2502.4329Zm-.6754-.1788c.2397 0 .4734.0624.6757.179l.2496-.4333a1.8554 1.8554 0 0 0-.9253-.2457v.5Zm-.7447 0h.7447v-.5h-.7447v.5Zm-.25-1.0443v.7943h.5v-.7943h-.5Zm-1.3919.9774c.6468-.2194 1.2423-.4702 1.7631-.7587l-.2423-.4374c-.4881.2704-1.0547.51-1.6814.7225l.1606.4736Zm.1697 5.1058v-5.3426h-.5v5.3426h.5Zm-.1574.2463.064-.0515-.3133-.3896-.064.0514.3133.3897Zm.0045-.0037-.3224-.3822.3224.3822Zm-.207.1625c.071-.0527.1391-.1077.2027-.159l-.3138-.3892c-.0649.0523-.1253.101-.1871.1468l.2982.4014Zm-2.0323 1.1746a10.222 10.222 0 0 0 2.0323-1.1746l-.2982-.4013a9.7198 9.7198 0 0 1-1.9327 1.1171l.1986.4588Zm-2.2798.6843a10.2275 10.2275 0 0 0 2.2798-.6842l-.1986-.4589a9.7229 9.7229 0 0 1-2.1681.6507l.0869.4924Zm-.2039.0359.2038-.0359-.0867-.4924-.2037.0359.0866.4924Zm-3.2758.4621a48.8197 48.8197 0 0 0 3.2759-.4621l-.0868-.4924a48.3274 48.3274 0 0 1-3.2423.4574l.0532.4971Zm-.9567-.3985a.8581.8581 0 0 1 .7374.3092l.3854-.3185a1.3579 1.3579 0 0 0-1.1661-.4888l.0433.4981Zm-4.1702.1818c1.3863 0 2.7893-.061 4.1704-.1818l-.0436-.4981a47.5708 47.5708 0 0 1-4.1268.1799v.5Zm-4.1703-.1818c1.381.1208 2.784.1818 4.1703.1818v-.5a47.5725 47.5725 0 0 1-4.1268-.1799l-.0435.4981Zm-.7373.3093a.8586.8586 0 0 1 .7376-.3093l.0429-.4981a1.3585 1.3585 0 0 0-1.1658.4887l.3853.3187Zm-3.495-.3729c1.0825.1909 2.181.345 3.2757.4621l.0532-.4971a48.2967 48.2967 0 0 1-3.242-.4574l-.0868.4924Zm-2.3533-.7166a10.1842 10.1842 0 0 0 2.3534.7166l.0868-.4924a9.6852 9.6852 0 0 1-2.2378-.6814l-.2024.4572Zm-2.0845-1.2379c.6427.4941 1.344.9105 2.0846 1.2379l.2022-.4573a9.6705 9.6705 0 0 1-1.982-1.177l-.3048.3964Zm-.3296-.2688c.105.0883.215.1808.3297.2689l.3046-.3965c-.1045-.0803-.2062-.1657-.3125-.2551l-.3218.3827Zm-.0191-.0161.0191.0161.3218-.3827-.0192-.0161-.3217.3827Zm-.0886-5.4037-.0005 5.2123.5.0001.0005-5.2124h-.5Zm-1.5934-.5219c.5207.2885 1.1162.5396 1.7632.7587l.1604-.4736c-.6266-.2122-1.1931-.4521-1.6813-.7225l-.2423.4374Zm.3712.5756v-.7943h-.5v.7943h.5Zm-.803.25h.553v-.5h-.553v.5Zm-.6659.1738a1.357 1.357 0 0 1 .6658-.1738v-.5c-.3203 0-.635.0823-.9115.2383l.2457.4355Zm.0297-.0199c.0014-.0011-.0043.0035-.0112.0083a.2332.2332 0 0 1-.0298.0176l-.223-.4475c-.026.0129-.044.0278-.045.0285l.309.3931Zm-.0025.002.0008-.0006-.3055-.3959-.0008.0007.3055.3958Zm-.498.4638a1.3528 1.3528 0 0 1 .4685-.4442l-.2465-.435a1.853 1.853 0 0 0-.6426.6089l.4206.2703Zm-.2093.6133c.018-.216.0903-.4282.2093-.6132l-.4205-.2705a1.8445 1.8445 0 0 0-.2871.8423l.4983.0414Zm.1205.6737a1.341 1.341 0 0 1-.1206-.6735l-.4982-.0418a1.841 1.841 0 0 0 .165.9253l.4538-.21Zm1.3864 2.2363a10.8845 10.8845 0 0 1-1.3864-2.2363l-.4538.21a11.3874 11.3874 0 0 0 1.4502 2.3392l.39-.3129Zm1.8558 1.8157a10.9126 10.9126 0 0 1-1.856-1.8159l-.3897.3132a11.4087 11.4087 0 0 0 1.9411 1.8992l.3046-.3965Zm2.234 1.3268a10.9153 10.9153 0 0 1-2.234-1.3268l-.3046.3964a11.4142 11.4142 0 0 0 2.3364 1.3877l.2022-.4573Zm2.5225.7682a10.9716 10.9716 0 0 1-2.5225-.7682l-.2022.4573a11.469 11.469 0 0 0 2.6376.8032l.087-.4923Zm3.3363.4702a49.6397 49.6397 0 0 1-3.3364-.4702l-.0869.4924a50.131 50.131 0 0 0 3.3702.475l.0531-.4972Zm.8735.579c-.2987-.0261-.5473-.2023-.6799-.4488l-.4404.2368c.2086.3879.6025.6688 1.077.7101l.0433-.4981Zm4.3207.1887c-1.436 0-2.8898-.0632-4.3205-.1887l-.0437.4981a50.148 50.148 0 0 0 4.3642.1906v-.5Zm4.3206-.1887a49.7762 49.7762 0 0 1-4.3206.1887v.5a50.265 50.265 0 0 0 4.3642-.1906l-.0436-.4981Zm.68-.4488a.8545.8545 0 0 1-.6799.4488l.0434.4981c.4745-.0413.8683-.3222 1.0769-.7101l-.4404-.2368Zm3.5306-.6004a49.3833 49.3833 0 0 1-3.3369.4702l.053.4972a49.8847 49.8847 0 0 0 3.3708-.475l-.0869-.4924Zm.2039-.0359-.2038.0359.0867.4924.2037-.0359-.0866-.4924Zm2.4427-.7333a10.9412 10.9412 0 0 1-2.4429.7333l.087.4924a11.4408 11.4408 0 0 0 2.5547-.767l-.1988-.4587Zm2.1781-1.2591a10.9046 10.9046 0 0 1-2.178 1.259l.1986.4589a11.404 11.404 0 0 0 2.278-1.3169l-.2986-.401Zm1.8303-1.7231a10.9201 10.9201 0 0 1-1.8302 1.723l.2985.4011a11.4182 11.4182 0 0 0 1.9141-1.802l-.3824-.3221Zm1.4003-2.1264a10.8936 10.8936 0 0 1-1.4003 2.1264l.3824.3221a11.3928 11.3928 0 0 0 1.4648-2.2241l-.4469-.2244Zm.1158-.231-.1159.2312.4471.224.1158-.2312-.447-.224Zm.1409-.6811a1.337 1.337 0 0 1-.1408.6809l.4468.2244a1.8372 1.8372 0 0 0 .1931-.9361l-.4991.0308Zm-.1999-.6254a1.352 1.352 0 0 1 .2.6255l.499-.031a1.8507 1.8507 0 0 0-.274-.8579l-.425.2634Zm.296-.3673-.0001-.0001-.1668.4714h.0001l.1668-.4713ZM1.9821 13.0207a.616.616 0 0 0 .056.3076l.4546-.2082a.1174.1174 0 0 1-.0121-.0597l-.4984-.0397Zm.0964-.2831a.6263.6263 0 0 0-.0962.2809l.498.0441a.1264.1264 0 0 1 .0198-.0563l-.4216-.2687Zm.216-.2059a.6278.6278 0 0 0-.2149.2041l.4194.2723a.1287.1287 0 0 1 .0426-.0417l-.247-.4347Zm-.0523.04c-.002.0019.0034-.0035.0094-.0089a.249.249 0 0 1 .1419-.0625c.015-.0015.0293-.0012.0246-.0012v.5h.0011l.004-.0001a.2498.2498 0 0 0 .1715-.0726l.0002-.0004h.0001v-.0001l-.3528-.3542Zm.358-.1192a.6136.6136 0 0 0-.3047.0787l.2463.4352a.1137.1137 0 0 1 .0583-.0139v-.5Zm.553 0h-.553v.5h.553v-.5Zm.25 2.3095v-2.0595h-.5v2.0595h.5Zm-1.3647-1.4327c.2555.5515.5609 1.0795.9101 1.5765l.4091-.2875a9.7008 9.7008 0 0 1-.8654-1.4991l-.4538.2101Zm-.0187-.1517.4912.0933v-.0001l-.4912-.0932Zm31.4863-.0546-.1162.2321.4472.2237.1161-.2321-.4471-.2237Zm.0134-.056c.001.0135-.0012.0314-.0137.0565l.4477.2227c.0474-.0953.0727-.2016.0648-.314l-.4988.0348Zm-.0192-.0594a.1265.1265 0 0 1 .0191.0578l.499-.0317a.6254.6254 0 0 0-.0923-.2881l-.4258.262Zm-.0424-.0415a.1326.1326 0 0 1 .0435.0433l.4236-.2656a.6308.6308 0 0 0-.2163-.2102l-.2508.4325Zm-.0586-.0135a.114.114 0 0 1 .0592.0139l.2496-.4332a.6126.6126 0 0 0-.3088-.0807v.5Zm-.7447 0h.7447v-.5h-.7447v.5Zm.25 2.0511v-2.3011h-.5v2.3011h.5Zm.4855-1.6489a9.6732 9.6732 0 0 1-.9348 1.498l.3986.3018a10.1639 10.1639 0 0 0 .983-1.5755l-.4468-.2243Z"/><path fill="#5600B9" d="M27.6299 5.7873c-2.5142-.5244-5.9438-.8474-9.7261-.8474-3.7822 0-7.2116.3227-9.726.8474 2.6563.515 6.1027.7991 9.726.7991 3.6233 0 7.0696-.2838 9.7261-.7991Z"/><path fill="#5600B9" stroke="#fff" stroke-width=".5" d="M15.3686 15.8312c.5758-.0548.9984-.5696.9984-1.1457v-1.7401a74.2232 74.2232 0 0 1-1.5377-.0493 65.522 65.522 0 0 1-2.7064-.1699 50.5486 50.5486 0 0 1-2.2157-.234v3.5152c0 .8728.675 1.6339 1.5501 1.6601.9056.0271 1.6484-.6968 1.6484-1.5931V14.512c0-.2882.2345-.5219.5236-.5219.2892 0 .5237.2337.5237.5219v.2208c-.0003.6451.5552 1.161 1.2156 1.0983v.0001ZM30.9324 29.1161c-.4281.7871-5.0906 2.1684-13.0286 2.1684-7.9377 0-12.6004-1.381-13.0285-2.1684l.0003-9.9071c-.3213-.2018-.6357-.4141-.937-.6454-.2723-.2094-.5321-.4343-.7853-.6661v11.2622c0 3.797 14.1484 3.8405 14.7508 3.8405.6022 0 14.7508-.0435 14.7508-3.8405V18.0446c-.2364.2066-.478.4075-.7301.5953-.3188.2372-.6516.4551-.9924.6598v9.8164Z"/><path fill="#5600B9" fill-rule="evenodd" d="M10.1522 11.6449a1.6136 1.6136 0 0 1-.3315-.0429l-.0003-.0001c-4.1661-.555-7.7852-1.6382-7.7852-3.5784V5.081C2.0352 1.8594 12.0102 1 17.9044 1s15.8692.8594 15.8692 4.0809v2.9427c0 3.2217-9.9751 4.0811-15.8692 4.0811-2.25 0-5.0944-.1256-7.7522-.4598ZM3.7575 7.1133v.8813c.059.0955.6386.8618 4.137 1.5553.2262.0449.4605.0876.698.1289v-1.202c-1.915-.3159-3.6367-.7587-4.835-1.3635Zm24.1563 2.4369c-2.4224.48-5.5015.7679-8.7757.8262a1.589 1.589 0 0 0 .0333-.3235v-.904c4.3171-.0845 10.0543-.6094 12.8795-2.037v.883c-.059.0952-.6387.8616-4.1372 1.5553h.0001Zm-10.0101-6.834c-3.7294 0-7.2843.2976-10.0093.8378h-.0009C4.6334 4.2005 3.9075 4.91 3.777 5.0806c.1315.1709.8564.8805 4.117 1.527.3497.0692.7136.1343 1.0892.1956.7101.1155 1.4641.2165 2.2528.3022a55.1576 55.1576 0 0 0 2.3716.2033 64.6868 64.6868 0 0 0 2.4249.1106c.6167.0167 1.2409.026 1.8711.026.4063 0 .8103-.0041 1.2117-.0112 3.2825-.0573 6.37-.3452 8.7982-.8266 3.2604-.6462 3.9857-1.356 4.1169-1.5269-.1315-.1707-.8567-.8801-4.1172-1.5266-2.7253-.5402-6.2796-.8377-10.0094-.8377Z" clip-rule="evenodd"/><path fill="#fff" d="m9.8207 11.602.0574-.2434-.0232-.0054-.0237-.001-.0105.2498Zm.3315.0429.0312-.248-.0126-.0016-.0126-.0003-.006.2499Zm-.3318-.043-.033.2479.0112.0015.0114.0004.0104-.2498Zm-6.063-3.6074.0677.2407.1824-.0512v-.1894h-.25Zm0-.8812.1127-.2232-.3626-.183v.4062h.25Zm0 .8813-.0676-.2407-.3196.0898.1746.2823.2126-.1314Zm4.137 1.5553.0487-.2452-.0486.2452Zm.698.1289-.0428.2463.2929.051v-.2973h-.25Zm0-1.202h.25v-.2122l-.2092-.0345-.0407.2467Zm10.5457 1.8996-.2448-.0508-.0635.3063.3128-.0055-.0045-.25Zm8.7757-.8262.0811.2364-.1297-.4817.0486.2453Zm-8.7424-.4012-.0049-.25-.2451.0048v.2452h.25Zm12.8795-2.037h.25v-.4065l-.3628.1833.1128.2232Zm0 .8829.2125.1317.0375-.0605v-.0712h-.25Zm-4.1372 1.5553-.0812-.2364.1298.4817-.0486-.2453ZM7.8944 3.554l.0035.25.0228-.0003.0223-.0045-.0486-.2452Zm-.0009 0-.0035-.25-.0228.0004-.0223.0044.0486.2452ZM3.777 5.0806l-.1986-.1519-.1166.1524.1171.152.198-.1525Zm4.117 1.527-.0487.2452.0486-.2453Zm1.0892.1956-.0403.2467h.0002l.0401-.2467Zm2.2528.3022-.027.2485.027-.2485Zm2.3716.2033-.0162.2495.0162-.2495Zm2.4249.1106-.0068.2499.0068-.25Zm3.0828.0148-.0043-.25h-.0001l.0044.25Zm8.7982-.8266-.0486-.2452.0486.2452Zm4.1169-1.5269.1982.1524.1173-.1525-.1174-.1524-.1981.1525ZM27.9131 3.554l.0486-.2452-.0486.2452ZM9.7634 11.8453c.1227.0289.2506.0464.3828.0496l.012-.4999a1.3554 1.3554 0 0 1-.2801-.0364l-.1147.4867Zm.0466.0064h.0003l.0209-.4995h-.0004l-.0208.4995ZM1.7852 8.0236c0 .5718.2693 1.0649.7086 1.481.4359.4129 1.05.7618 1.777 1.059 1.4552.5948 3.4265 1.0077 5.5166 1.2862l.066-.4957c-2.076-.2765-3.9974-.6828-5.3933-1.2534-.6985-.2854-1.2495-.6059-1.6224-.959-.3695-.35-.5525-.72-.5525-1.1181h-.5Zm0-2.9427v2.9427h.5V5.0808h-.5ZM17.9044.75c-2.9553 0-6.9399.2152-10.1919.8368-1.6236.3104-3.0826.7253-4.1419 1.2755-1.0465.5436-1.7854 1.2653-1.7854 2.2186h.5c0-.6574.508-1.2513 1.5159-1.7749.9953-.517 2.3984-.9209 4.0053-1.228 3.2091-.6135 7.1591-.828 10.098-.828v-.5Zm16.1192 4.3309c0-.9533-.7389-1.675-1.7855-2.2186-1.0592-.5502-2.5182-.9651-4.1418-1.2755C24.8443.9652 20.8597.75 17.9044.75v.5c2.9389 0 6.8889.2145 10.098.828 1.6069.3071 3.01.711 4.0052 1.228 1.008.5236 1.516 1.1175 1.516 1.7749h.5Zm0 2.9427V5.0808h-.5v2.9427h.5Zm-16.1192 4.3311c2.9552 0 6.9398-.2152 10.1918-.8368 1.6236-.3104 3.0826-.7254 4.1419-1.2756 1.0466-.5437 1.7855-1.2654 1.7855-2.2188h-.5c0 .6576-.508 1.2515-1.516 1.775-.9952.5171-2.3984.9211-4.0053 1.2282-3.2091.6135-7.1591.828-10.0979.828v.5Zm-7.7834-.4617c2.6704.3357 5.5256.4617 7.7834.4617v-.5c-2.2422 0-5.0759-.1252-7.721-.4578l-.0624.4961ZM4.0075 7.9945v-.8812h-.5v.8813h.5Zm-.1825.2408L3.69 7.7538l.1351.4814Zm4.118 1.0694c-1.7363-.3442-2.733-.7037-3.2964-.981-.5647-.278-.6801-.4665-.6765-.4606l-.4253.263c.0627.1013.2665.3437.881.6462.6158.303 1.658.6735 3.42 1.0228l.0973-.4904Zm.6923.1278a30.0471 30.0471 0 0 1-.6922-.1278l-.0973.4904c.2288.0454.465.0885.7038.13l.0857-.4926Zm-.2928-.9557v1.202h.5v-1.202h-.5ZM3.6448 7.3365c1.233.6223 2.9848 1.07 4.907 1.387l.0814-.4934c-1.9079-.3146-3.5993-.7526-4.763-1.34l-.2254.4464Zm15.4978 3.2899c3.2844-.0585 6.3789-.3473 8.8198-.831l-.0972-.4905c-2.4039.4764-5.4675.7634-8.7315.8216l.0089.4999Zm-.2212-.5735c0 .0935-.0098.1845-.0281.2727l.4896.1016a1.8392 1.8392 0 0 0 .0385-.3743h-.5Zm0-.904v.904h.5v-.904h-.5Zm13.0167-2.26c-1.3737.694-3.4797 1.178-5.8016 1.4975-2.3149.3186-4.8183.4705-6.97.5126l.0098.5c2.1654-.0425 4.6891-.1953 7.0284-.5173 2.3323-.321 4.5075-.8132 5.9589-1.5466l-.2255-.4463Zm.3628 1.106v-.883h-.5v.883h.5Zm-4.3386 1.8006c1.7621-.3495 2.8044-.72 3.4202-1.023.6146-.3026.8183-.5449.8809-.6459l-.425-.2634c.0036-.0058-.1121.1827-.6767.4606-.5635.2774-1.5602.6369-3.2967.9812l.0973.4905Zm-.1296-.4818h-.0002l.1623.473h.0001l-.1622-.473ZM7.943 3.7992c2.7047-.5362 6.2424-.833 9.9607-.833v-.5c-3.7406 0-7.3125.2983-10.058.8426l.0973.4904Zm-.046.0048h.0009l-.007-.5h-.001l.0072.5ZM3.9755 5.2326c.0714-.0932.7159-.7887 3.9667-1.4333l-.0972-.4905c-3.2694.6483-4.0765 1.3716-4.2666 1.6199l.3971.3039Zm3.967 1.1297c-3.2507-.6445-3.895-1.3402-3.9674-1.4342l-.3962.305c.1907.2477.996.9713 4.2664 1.6197l.0972-.4905Zm1.081.1942a32.7277 32.7277 0 0 1-1.081-.1942l-.0971.4905c.3528.0698.7195.1354 1.0975.1971l.0806-.4934Zm2.2395.3003c-.7848-.0852-1.5344-.1856-2.2397-.3003L8.943 7.05c.715.1162 1.4733.2178 2.2659.3039l.054-.497Zm2.3608.2024a54.912 54.912 0 0 1-2.3608-.2024l-.054.4971c.7648.083 1.5623.151 2.3824.2043l.0324-.499Zm2.4155.1102a64.4327 64.4327 0 0 1-2.4155-.1102l-.0324.499a64.9194 64.9194 0 0 0 2.4343.111l.0136-.4998Zm1.8643.0259c-.6278 0-1.2497-.0093-1.8643-.026l-.0136.4999c.6188.0167 1.2452.026 1.8779.026v-.5Zm1.2073-.0112c-.4002.007-.8026.0112-1.2073.0112v.5c.408 0 .8134-.0041 1.2161-.0113l-.0088-.5Zm8.754-.8218c-2.4097.4777-5.4817.7647-8.7539.8218l.0087.5c3.2926-.0575 6.3956-.3463 8.8424-.8314l-.0972-.4904Zm3.9673-1.434c-.0721.0937-.7165.7897-3.9673 1.434l.0972.4905c3.2701-.6482 4.0761-1.372 4.2665-1.6198l-.3964-.3047Zm-3.9676-1.129c3.2508.6445 3.8954 1.34 3.9678 1.4339l.3961-.3051c-.1907-.2476-.9964-.971-4.2667-1.6193l-.0972.4904Zm-9.9608-.833c3.7187 0 7.2558.2967 9.9608.833l.0972-.4905c-2.7457-.5443-6.317-.8425-10.058-.8425v.5Z"/></svg>
