<svg xmlns="http://www.w3.org/2000/svg" width="23" height="27" fill="none"><path fill="#5600B9" fill-rule="evenodd" d="M19.3928 3.7281c0 1.7229-4.271 2.655-8.2823 2.655-4.0114 0-8.2824-.9322-8.2824-2.655 0-1.7512 4.271-2.6549 8.2824-2.6549 4.0113 0 8.2823.932 8.2823 2.655Zm-.5483-.0283c0-.9886-3.1744-2.1182-7.734-2.1182-4.5598 0-7.734 1.1298-7.734 2.1182 0 .9886 3.1744 2.1182 7.734 2.1182 4.5595 0 7.734-1.1296 7.734-2.1182Z" clip-rule="evenodd"/><path fill="#5600B9" fill-rule="evenodd" d="M23 14.8275c-.0288 1.1296-.0866 1.977-.7503 2.9372l-.0287.0002v3.5018c.0288.1129.0288.226.0288.3389 0 3.022-4.8194 5.3944-10.995 5.3944C5.1945 27 .2887 24.7122.0866 21.7751V4.4057A1.5661 1.5661 0 0 1 0 3.8974c0-.1694.0288-.3389.0866-.5083l.0865-.1694C1.0966 1.1298 6.2332 0 11.1393 0c4.9059 0 10.0716 1.1298 11.0239 3.2197l.0866.3107c.029.113.0577.226.0577.3672 0 .113-.0289.2543-.0577.3672v9.0942c.1731.0848.375.2542.5771.6496.0865.1694.1731.5082.1731.8189Zm-1.7892-9.2073c-1.9046 1.4121-6.089 2.1747-10.0715 2.1747h-.0002c-3.9536 0-8.1093-.7344-10.0716-2.1465v.9604c1.645 1.2993 5.6851 2.1747 10.187 2.1747 4.2999 0 8.1958-.8191 9.9561-2.0053l.0002-1.158ZM1.0965 7.2865c1.9048 1.2427 5.8583 2.0334 10.187 2.0334 4.1845 0 7.965-.7342 9.9562-1.9204v9.998c-.9808 1.1011-2.7115 1.5247-3.8657 1.8073l-.0013.0003c-6.522 1.6099-13.3037-5.5074-14.7755-7.1173l.0288-.0281.0015.0003c.1148.0281.23.0562.3737.0562.404 0 .7503-.1978.9812-.5083l.4328-.4235c.2886-.2542.4905-.6496.4905-1.0733 0-.7343-.5483-1.3556-1.2408-1.3556-.3752 0-.6926.1694-.9235.452a1.8786 1.8786 0 0 1-.231.1977c-.4905.1978-.8367.7061-.8367 1.3274 0 .226.0577.452.1443.6496-.2597.3954-.4618.8473-.2309 1.1296 3.665 4.4058 10.3024 9.1507 15.9298 7.7668 1.7026-.4236 2.8571-.9039 3.6651-1.4687v2.1748c-1.7604 1.7228-5.5985 3.3891-9.9273 3.3891-4.3575 0-8.8595-1.6381-10.187-3.5869V7.2868l.0288-.0004ZM3.0301 9.8c-.4329 0-.7503.3953-.7503.8755 0 .0565 0 .0847.029.0847.1443-.1697.2597-.2825.2597-.2825.404-.5365 1.1254.1412.7214.6778l-.2886.3954H3.03c.4328 0 .7502-.3953.7502-.8754 0-.4801-.3462-.8755-.7502-.8755ZM11.1393.9882c5.8005 0 10.1293 1.525 10.1293 2.909s-4.3288 2.909-10.1293 2.909S1.01 5.2813 1.01 3.8973C1.0098 2.5133 5.3676.9883 11.1393.9883ZM1.0965 21.7186c.1443 2.3442 4.704 4.2646 10.1582 4.2646 5.4542 0 9.8985-1.9486 9.9561-4.3493-1.9912 1.6665-5.7429 3.1915-9.9273 3.1915-4.1556 0-8.3689-1.4406-10.187-3.2762v.1694Z" clip-rule="evenodd"/></svg>
