<svg xmlns="http://www.w3.org/2000/svg" width="34" height="42" fill="none"><path fill="#5600B9" d="M26.8059 5.7665c-2.535-.5221-5.9929-.8436-9.8063-.8436-3.8134 0-7.271.3212-9.8062.8436 2.6783.5128 6.153.7956 9.8062.7956 3.6531 0 7.1279-.2825 9.8063-.7956Z"/><path fill="#5600B9" stroke="#fff" stroke-width=".5" d="M14.4429 15.7657c.5806-.0545 1.0067-.567 1.0067-1.1406v-1.7325a76.04 76.04 0 0 1-1.5504-.049 67.0812 67.0812 0 0 1-2.7287-.1692 51.6651 51.6651 0 0 1-2.234-.233v3.4998c0 .8689.6805 1.6267 1.5629 1.6529.9131.0269 1.6619-.6938 1.6619-1.5861v-1.5557c0-.2869.2365-.5196.528-.5196.2915 0 .528.2327.528.5196v.2199c-.0003.6423.5597 1.1559 1.2256 1.0935Z"/><path fill="#5600B9" fill-rule="evenodd" d="M30.136 37.1329c-.4316.7837-5.1326 2.1589-13.136 2.1589-8.0032 0-12.7043-1.3749-13.136-2.1589l.0002-7.3326c3.8215 1.8233 12.6608 1.8499 13.1361 1.8499.4751 0 9.3139-.0266 13.1357-1.8496v7.3323ZM3.8643 19.2039l-.0001 8.5794C4.2964 28.5672 8.9974 29.942 17 29.942c8.0034 0 12.7044-1.3753 13.136-2.1589v-8.579c-3.8218 1.823-12.6606 1.8496-13.1357 1.8496-.4753 0-9.3145-.0266-13.136-1.8498Zm0-2.0169v-6.9037c-.3239-.2008-.6409-.4123-.9446-.6425-.2746-.2085-.5365-.4325-.7918-.6633v28.1988C2.128 40.9567 16.393 41 17.0003 41c.6072 0 14.8724-.0433 14.8724-3.8237V9.124c-.2384.2058-.482.4057-.7362.5927-.3214.2362-.657.4531-1.0005.6569v6.813c-.4316.7836-5.1326 2.1589-13.136 2.1589-8.0019 0-12.7028-1.3745-13.1357-2.1585Z" clip-rule="evenodd"/><path fill="#fff" d="m30.136 37.1329.219.1206.031-.0563v-.0643h-.25Zm-26.272 0h-.25v.0643l.031.0563.219-.1206Zm.0002-7.3326.1076-.2256-.3576-.1706v.3962h.25Zm26.2718.0003h.25v-.3963l-.3577.1706.1077.2257ZM3.8642 27.7833h-.25v.0643l.031.0564.219-.1207Zm0-8.5794.1077-.2256-.3576-.1707v.3963h.25Zm26.2718 8.5792.219.1206.031-.0563v-.0643h-.25Zm0-8.579h.25v-.3963l-.3577.1706.1077.2257ZM3.8643 17.187h-.25v.0644l.0311.0564.2189-.1208Zm0-6.9037h.25v-.1392l-.1182-.0733-.1317.2125Zm-.9446-.6425-.1511.1991h.0001l.151-.1991Zm-.7918-.6633.1677-.1854-.4177-.3776v.563h.25Zm29.7448.1465h.25v-.546l-.4133.3568.1633.1892Zm-.7362.5927.1481.2014-.1481-.2014Zm-1.0005.6569-.1276-.215-.1224.0727v.1423h.25Zm0 6.813.219.1206.031-.0563v-.0643h-.25ZM17 39.5418c4.0151 0 7.2078-.3449 9.456-.7903 1.1234-.2226 2.0162-.4713 2.66-.7171.3215-.1227.5868-.2469.7896-.37.1948-.1182.3627-.2535.4494-.4109l-.438-.2412c-.0212.0386-.0946.1177-.2708.2247-.1682.1021-.4035.2139-.7085.3303-.6091.2325-1.4727.4745-2.5789.6937-2.211.4381-5.3705.7808-9.3588.7808v.5ZM3.645 37.2535c.0867.1574.2547.2927.4494.411.2028.1231.4681.2473.7897.37.6438.2458 1.5366.4945 2.66.7171 2.2483.4454 5.4409.7902 9.4559.7902v-.5c-3.9881 0-7.1477-.3426-9.3587-.7807-1.1062-.2192-1.9698-.4612-2.579-.6937-.3049-.1164-.5402-.2282-.7084-.3303-.1762-.107-.2496-.1861-.2708-.2247l-.438.2411Zm-.0308-7.4532-.0001 7.3326h.5v-7.3326h-.5Zm13.3861 1.5999c-.2344 0-2.5551-.0066-5.292-.2403-2.7493-.2348-5.8717-.6955-7.7365-1.5852l-.2153.4513c1.9568.9336 5.1647 1.3977 7.9093 1.6321 2.757.2354 5.0935.2421 5.3345.2421v-.5Zm13.028-1.8253c-1.8648.8896-4.9872 1.3503-7.7364 1.585-2.7368.2337-5.0573.2403-5.2916.2403v.5c.2409 0 2.5772-.0067 5.3341-.2421 2.7444-.2343 5.9523-.6984 7.9092-1.6319l-.2153-.4513Zm.3577 7.558v-7.3323h-.5v7.3323h.5ZM4.1142 27.7833v-8.5794h-.5v8.5794h.5ZM17 29.692c-3.9878 0-7.1472-.3426-9.3582-.7806-1.1062-.2192-1.9698-.4612-2.579-.6937-.305-.1164-.5404-.2282-.7086-.3303-.1763-.107-.2498-.1862-.271-.2248l-.438.2414c.0868.1573.2547.2926.4496.4108.2028.1231.4681.2473.7897.3701.644.2457 1.5368.4944 2.6601.7169 2.2483.4454 5.4407.7902 9.4554.7902v-.5Zm12.917-2.0295c-.0212.0386-.0946.1177-.2708.2246-.1682.1021-.4035.2139-.7085.3303-.6091.2325-1.4727.4746-2.5789.6938-2.211.438-5.3705.7808-9.3588.7808v.5c4.0151 0 7.2078-.3449 9.456-.7904 1.1234-.2226 2.0162-.4713 2.66-.717.3215-.1228.5868-.2469.7896-.3701.1948-.1182.3627-.2535.4494-.4108l-.438-.2412Zm-.031-8.4584v8.579h.5v-8.579h-.5Zm-12.8857 2.0996c.2409 0 2.5772-.0067 5.3341-.2421 2.7444-.2343 5.9523-.6984 7.9092-1.6319l-.2153-.4513c-1.8648.8896-4.9872 1.3503-7.7364 1.585-2.7368.2337-5.0573.2403-5.2916.2403v.5ZM3.7566 19.4295c1.9568.9336 5.1648 1.3978 7.9093 1.6321 2.7569.2354 5.0934.2421 5.3344.2421v-.5c-.2343 0-2.5551-.0066-5.2919-.2403-2.7493-.2347-5.8717-.6955-7.7365-1.5851l-.2153.4512Zm.3577-2.2425v-6.9037h-.5v6.9037h.5Zm-.1182-7.1162c-.3194-.198-.6295-.405-.9253-.6293l-.302.3985c.3115.2362.6353.4521.9638.6558l.2635-.425Zm-.9252-.6292c-.2671-.2027-.5233-.4216-.7753-.6495l-.3353.3709c.2585.2337.5261.4627.8083.6769l.3023-.3983Zm-1.193-.464v8.2523h.5V8.9775h-.5Zm0 8.2523v10.5965h.5V17.2299h-.5Zm0 10.5965v9.3499h.5v-9.3499h-.5Zm0 9.3499c0 .5607.2674 1.037.6941 1.4329.4231.3926 1.0145.7183 1.702.9917 1.3758.5473 3.2024.9103 5.0295 1.1527 3.659.4857 7.3905.4964 7.6968.4964v-.5c-.3011 0-4.0058-.0109-7.631-.492-1.8152-.2409-3.5928-.5976-4.9106-1.1217-.6594-.2623-1.1872-.5602-1.5466-.8936-.3557-.33-.5342-.6821-.5342-1.0664h-.5ZM17.0003 41.25c.3062 0 4.0377-.0107 7.6968-.4964 1.827-.2425 3.6536-.6055 5.0296-1.1527.6874-.2734 1.2788-.5991 1.7019-.9917.4267-.3959.6941-.8722.6941-1.4329h-.5c0 .3843-.1784.7364-.5342 1.0664-.3594.3334-.8872.6313-1.5466.8936-1.3178.5241-3.0955.8808-4.9106 1.1217-3.6253.4811-7.33.492-7.631.492v.5Zm15.1224-4.0737v-9.3499h-.5v9.3499h.5Zm0-9.3499V17.2299h-.5v10.5965h.5Zm0-10.5965V9.124h-.5V17.23h.5Zm-.4133-8.2951c-.2355.2031-.4738.3987-.721.5805l.2962.4028c.2612-.192.5101-.3965.7514-.6048l-.3266-.3785Zm-.7209.5804c-.3135.2304-.6419.4428-.9801.6434l.2551.4301c.349-.2071.6917-.4285 1.0211-.6706l-.2961-.4029Zm-1.1025.8584v6.813h.5v-6.813h-.5Zm.031 6.6924c-.0212.0386-.0946.1177-.2708.2246-.1682.1021-.4035.214-.7085.3304-.6091.2325-1.4727.4745-2.5789.6937-2.211.438-5.3705.7808-9.3588.7808v.5c4.0151 0 7.2078-.3449 9.456-.7904 1.1234-.2225 2.0162-.4713 2.66-.717.3215-.1227.5868-.2469.7896-.37.1948-.1183.3627-.2536.4494-.4109l-.438-.2412ZM17 19.0955c-3.9875 0-7.1467-.3426-9.3576-.7805-1.1063-.2191-1.9699-.4611-2.5792-.6936-.305-.1164-.5404-.2282-.7087-.3303-.1763-.107-.25-.1862-.2714-.225l-.4377.2417c.0869.1572.2548.2925.4497.4107.203.1231.4683.2473.7899.3701.644.2457 1.5368.4943 2.6602.7169 2.2482.4453 5.4405.79 9.4548.79v-.5Z"/><path fill="#5600B9" fill-rule="evenodd" d="M9.184 11.5983a1.6537 1.6537 0 0 1-.3342-.0428h-.0004C4.6489 11.0029 1 9.9244 1 7.9927V5.063C1 1.8556 11.0573 1 17 1c5.9429 0 16 .8556 16 4.063v2.9298c0 3.2076-10.0573 4.0632-16 4.0632-2.2685 0-5.1364-.125-7.816-.4577ZM2.7364 7.0865v.8774c.0595.095.644.858 4.1711 1.5485.2281.0447.4643.0872.7038.1284V8.444c-1.9308-.3144-3.6667-.7553-4.8749-1.3575ZM27.092 9.5127c-2.4425.478-5.5469.7646-8.8481.8226a1.5623 1.5623 0 0 0 .0335-.3221v-.9c4.3527-.0842 10.1373-.6068 12.9857-2.028v.879c-.0595.0948-.6439.8578-4.1713 1.5485h.0002Zm-10.0926-6.804c-3.7602 0-7.3444.2963-10.0919.8341h-.0008c-3.287.6437-4.0188 1.35-4.1506 1.52.1326.17.8634.8765 4.1508 1.5201.3527.069.7196.1338 1.0983.1949.716.115 1.4762.2155 2.2713.3008a56.3118 56.3118 0 0 0 2.3912.2024c.7954.051 1.6127.0878 2.4449.1101a70.6062 70.6062 0 0 0 1.8865.026c.4097 0 .817-.0042 1.2217-.0113 3.3095-.057 6.4225-.3436 8.8707-.8229 3.2873-.6433 4.0186-1.3501 4.1509-1.5202-.1326-.17-.8638-.8763-4.1512-1.5199-2.7478-.5379-6.3313-.834-10.0918-.834Z" clip-rule="evenodd"/><path fill="#fff" d="m8.8498 11.5555.0566-.2435-.0228-.0053-.0235-.001-.0103.2498Zm.3341.0428.0308-.2481-.0124-.0016-.0124-.0003-.006.25Zm-.3345-.0428-.0326.2478.011.0015.0113.0005.0103-.2498ZM2.7365 7.9639l.0672.2408.1828-.051V7.964h-.25Zm0-.8774.1115-.2237-.3615-.1802v.4039h.25Zm0 .8774-.0672-.2408-.3223.0899.1776.2836.2119-.1327Zm4.1711 1.5485.048-.2453-.048.2453Zm.7038.1284-.0424.2463.2924.0503v-.2966h-.25Zm0-1.1968h.25v-.2126l-.2098-.0341-.0402.2467Zm10.6325 1.8913-.2446-.0514-.0645.3069.3135-.0055-.0044-.25Zm8.8481-.8226.0794.237-.1275-.4824.0481.2454Zm-8.8146-.3995-.0048-.25-.2452.0048v.2452h.25Zm12.9857-2.028h.25V6.681l-.3616.1805.1116.2237Zm0 .879.2118.133.0382-.061v-.072h-.25Zm-4.1713 1.5485-.0795-.237.1275.4824-.048-.2454ZM6.9075 3.5428l.0035.25.0225-.0003.022-.0043-.048-.2454Zm-.0008 0-.0035-.25-.0225.0004-.022.0043.048.2453Zm-4.1506 1.52-.1976-.1532-.119.1536.1194.1533.1972-.1537Zm4.1508 1.5201-.048.2454.048-.2454Zm1.0983.1949-.0398.2468h.0002l.0396-.2468Zm2.2713.3008-.0266.2486.0266-.2486Zm2.3912.2024-.016.2495.016-.2495Zm2.4449.1101-.0067.25.0067-.25Zm3.1082.0147-.0043-.25.0043.25Zm8.8707-.8229-.048-.2453.048.2453Zm4.1509-1.5202.1973.1536.1196-.1537-.1198-.1536-.1971.1537Zm-4.1512-1.5199.0481-.2453-.0481.2453ZM8.7931 11.799c.1234.0287.252.046.3849.0492l.0118-.4999a1.3935 1.3935 0 0 1-.2834-.0363l-.1133.487Zm.046.0063h.0003l.0207-.4996h-.0004l-.0206.4996ZM.75 7.9927c0 .571.2723 1.0624.715 1.4765.4393.4109 1.0581.7581 1.791 1.0539 1.4666.592 3.4537 1.003 5.5608 1.2802l.0652-.4957c-2.0934-.2754-4.031-.6799-5.439-1.2482-.7044-.2843-1.2603-.6035-1.6364-.9554-.3728-.3486-.5566-.7163-.5566-1.1112h-.5Zm0-2.9297v2.9298h.5V5.063h-.5ZM17 .75c-2.9794 0-6.9965.2142-10.2749.833-1.6368.309-3.1074.722-4.1749 1.2696C1.4964 3.3931.75 4.1116.75 5.063h.5c0-.6523.5108-1.2435 1.5284-1.7655 1.004-.515 2.4191-.9172 4.0395-1.2231C10.0538 1.4636 14.0366 1.25 17 1.25v-.5Zm16.25 4.313c0-.9514-.7464-1.6699-1.8002-2.2104-1.0675-.5476-2.538-.9606-4.1749-1.2695C23.9966.9642 19.9795.75 17 .75v.5c2.9633 0 6.9463.2136 10.1822.8244 1.6203.3059 3.0355.7082 4.0394 1.223 1.0176.522 1.5284 1.1133 1.5284 1.7656h.5Zm0 2.9298V5.063h-.5v2.9298h.5ZM17 12.306c2.9795 0 6.9965-.2142 10.2749-.8331 1.6368-.309 3.1074-.722 4.1749-1.2696 1.0538-.5406 1.8002-1.259 1.8002-2.2106h-.5c0 .6524-.5108 1.2437-1.5284 1.7657-1.0039.515-2.4191.9173-4.0395 1.2232-3.2359.6109-7.2188.8244-10.1821.8244v.5Zm-7.8469-.4596c2.6922.3342 5.5707.4596 7.8469.4596v-.5c-2.2608 0-5.1181-.1247-7.7853-.4558l-.0616.4962ZM2.9865 7.9639v-.8774h-.5v.8774h.5Zm-.1829.2408-.1342-.4816.1342.4816Zm4.152 1.0624c-1.7509-.3428-2.7562-.7008-3.3246-.977-.5699-.277-.6864-.4649-.6826-.4589l-.4238.2654c.0633.101.2687.3422.8878.6431.6204.3016 1.671.6703 3.4472 1.018l.096-.4906Zm.6981.1273a30.7072 30.7072 0 0 1-.698-.1273l-.0962.4907c.2307.0451.4689.088.7095.1293l.0847-.4927Zm-.2923-.9504v1.1967h.5V8.444h-.5ZM2.625 7.3102c1.2425.6193 3.0084 1.065 4.9462 1.3806l.0804-.4935C5.7278 7.884 4.0219 7.4478 2.848 6.8627l-.223.4475Zm15.6233 3.2751c3.3113-.0582 6.431-.3458 8.8917-.8273l-.0961-.4907c-2.4241.4744-5.5132.7602-8.8044.818l.0088.5Zm-.2209-.5721c0 .0928-.0097.1832-.0281.2707l.4893.1028a1.8174 1.8174 0 0 0 .0388-.3735h-.5Zm0-.9v.9h.5v-.9h-.5Zm13.1241-2.2517c-1.3856.6913-3.5096 1.1732-5.8508 1.4914-2.3342.3172-4.8585.4684-7.0281.5104l.0097.4999c2.1831-.0422 4.7274-.1944 7.0857-.5149 2.3514-.3195 4.5439-.8095 6.0067-1.5394l-.2232-.4474Zm.3616 1.1027v-.879h-.5v.879h.5Zm-4.3733 1.7939c1.7764-.3479 2.8269-.7167 3.4474-1.0182.6191-.301.8244-.542.8877-.6428l-.4235-.2658c.0037-.006-.113.182-.6828.4589-.5685.2763-1.5738.6343-3.3249.9772l.0961.4907Zm-.1273-.4825-.0002.0001.1589.474h.0002l-.1589-.474ZM6.9555 3.7882c2.7274-.534 6.2947-.8294 10.0439-.8294v-.5c-3.7712 0-7.3722.2969-10.14.8387l.0961.4907Zm-.0453.0046h.0008l-.007-.5h-.0008l.007.5ZM2.9537 5.216c.0721-.093.7227-.7858 4.001-1.4277l-.096-.4907c-3.2958.6453-4.1088 1.3651-4.3002 1.6121l.3952.3063ZM6.955 6.3376C3.6768 5.6958 3.0264 5.0028 2.9532 4.909l-.3943.3075c.1921.2463 1.0034.9664 4.3 1.6118l.096-.4907Zm1.09.1933a33.3855 33.3855 0 0 1-1.0901-.1933l-.096.4907c.3558.0695.7254.1349 1.1065.1963l.0796-.4937Zm2.2582.2991c-.7913-.0849-1.5471-.1848-2.2583-.299l-.0793.4936c.7207.1158 1.4853.2169 2.2843.3026l.0533-.4972Zm2.3805.2016a56.0745 56.0745 0 0 1-2.3805-.2016l-.0533.4972c.771.0827 1.575.1503 2.4018.2033l.032-.499Zm2.4356.1096a65.8129 65.8129 0 0 1-2.4356-.1096l-.032.499c.7987.051 1.619.088 2.4542.1104l.0134-.4998Zm1.8798.0258c-.633 0-1.26-.0092-1.8798-.0258l-.0134.4998c.6238.0167 1.2554.026 1.8932.026v-.5Zm1.2174-.0111c-.4036.007-.8093.0111-1.2174.0111v.5c.4114 0 .8201-.004 1.2261-.0112l-.0087-.5Zm8.827-.8183c-2.4299.4757-5.5275.7615-8.827.8183l.0086.4999c3.3196-.0572 6.4479-.3446 8.9145-.8275l-.0961-.4907Zm4.0016-1.4284c-.0728.0935-.7234.7868-4.0016 1.4284l.096.4907c3.2965-.6452 4.1083-1.3655 4.3002-1.612l-.3946-.3071Zm-4.0019-1.121c3.2782.6418 3.9289 1.3346 4.0021 1.4283l.3942-.3075c-.1921-.2463-1.0036-.9661-4.3002-1.6115l-.0961.4907Zm-10.0438-.8294c3.7495 0 7.3161.2954 10.0438.8294l.0961-.4907c-2.768-.5418-6.3684-.8387-10.1399-.8387v.5Z"/></svg>
