<svg xmlns="http://www.w3.org/2000/svg" width="41" height="47" fill="none"><path fill="#9336FD" fill-rule="evenodd" d="m26 7.4927 14.3714 5.7487h-.0004a.9999.9999 0 0 1 .629.9285v31a1 1 0 0 1-1 1H1a1.0002 1.0002 0 0 1-1-1v-44c0-.5522.4478-1 1-1h24a1 1 0 0 1 1 1v6.3228ZM10 36.1693v8h6v-8h-6Zm7-2H9c-.5522 0-1 .4478-1 1v9H2v-42h22v42h-6v-9a1.0003 1.0003 0 0 0-1-1Zm9 10h13V14.8471l-13-5.2v34.5222Z" clip-rule="evenodd"/><path fill="#9336FD" fill-rule="evenodd" d="M5.001 4.17h6a1 1 0 0 1 1 1v5.9999a1 1 0 0 1-1 1h-6a1.0002 1.0002 0 0 1-1-1v-6c0-.5522.4478-1 1-1Zm1 5.9999h4v-4h-4v4ZM21.001 12.1699h-6a1.0002 1.0002 0 0 1-.7072-.2928 1.0002 1.0002 0 0 1-.2928-.7072v-6c0-.5522.4477-1 1-1h6a1 1 0 0 1 1 1v6a1 1 0 0 1-1 1Zm-1-6h-4v4h4v-4ZM5.001 14.1699h6a1.0001 1.0001 0 0 1 1 1v6a1 1 0 0 1-1 1h-6a1.0002 1.0002 0 0 1-1-1v-6c0-.5522.4478-1 1-1Zm1 6h4v-4h-4v4ZM21.001 22.1699h-6a1.0002 1.0002 0 0 1-.7072-.2928 1.0002 1.0002 0 0 1-.2928-.7072v-6c0-.5522.4477-1 1-1h6a1.0001 1.0001 0 0 1 1 1v6a1 1 0 0 1-1 1Zm-1-6h-4v4h4v-4ZM5.001 24.1699h6a1.0001 1.0001 0 0 1 1 1v6a1 1 0 0 1-1 1h-6a1.0002 1.0002 0 0 1-1-1v-6c0-.5522.4478-1 1-1Zm1 6h4v-4h-4v4ZM22 25.1699v6a1 1 0 0 1-1 1h-6a1 1 0 0 1-1-1v-6c0-.5522.4478-1 1-1h6a1.0001 1.0001 0 0 1 1 1Zm-6 5h4v-4h-4v4Z" clip-rule="evenodd"/><path fill="#9336FD" d="M29.001 19.1699h7c.5522 0 1-.4477 1-1 0-.5522-.4478-1-1-1h-7c-.5523 0-1 .4478-1 1 0 .5523.4477 1 1 1ZM29.001 24.1699h7c.5522 0 1-.4477 1-1 0-.5522-.4478-1-1-1h-7c-.5523 0-1 .4478-1 1 0 .5523.4477 1 1 1ZM29.001 29.1699h7c.5522 0 1-.4477 1-1 0-.5522-.4478-1-1-1h-7c-.5523 0-1 .4478-1 1 0 .5523.4477 1 1 1ZM36 32.1699h-7c-.5522 0-1 .4478-1 1 0 .5523.4478 1 1 1h7c.5522 0 1-.4477 1-1 0-.5522-.4478-1-1-1Z"/></svg>
