<svg xmlns="http://www.w3.org/2000/svg" width="47" height="47" fill="none"><path fill="#9336FD" fill-rule="evenodd" d="m38.2601 23.6023 6.6149-4.9097C45.5951 17.9718 46 17.026 46 15.9897c0-1.0359-.4049-1.9821-1.125-2.7029-1.4402-1.4416-3.9149-1.5314-5.4452.045l-2.2051 2.973v-4.1441h1.665c.3151 0 .5399-.2253.5399-.5405l.0003-6.6213V1.7104c0-.3155-.2251-.5405-.5399-.5405H1.5399C1.2251 1.17 1 1.3952 1 1.7104v9.8649c0 .3154.225.5404.5399.5404h1.665v29.6848l-1.665.0003c-.3152 0-.5399.2253-.5399.5405v3.2882c0 .3154.225.5404.5399.5404H38.845c.3151 0 .5399-.2253.5399-.5404v-3.2882c0-.3155-.2251-.5405-.5399-.5405h-1.6649v-7.5225c0-.045 0-.0902-.0449-.1351l4.0498-4.054c.2251-.2252.2251-.5404 0-.7657l-3.1952-3.1984c-.3151-.3604-.495-.8106-.495-1.2612.1353-.5408.4053-.9913.7653-1.2616ZM2.0799 2.251H38.305v2.2073l-11.52-.0003H2.08V2.251Zm21.4199 5.5405c1.3501 0 2.4302-.946 2.7002-2.2073H14.2295c.2703 1.2612 1.3953 2.2073 2.7001 2.2073h6.5702ZM2.0799 5.5842h11.07c.27 1.847 1.8451 3.2882 3.78 3.2882l6.5701.0003c1.9349 0 3.51-1.4416 3.78-3.2882h11.025v5.4952H2.08V5.5842Zm0 39.5497H38.35v-2.2073H2.08v2.2073Zm34.0202-3.3332H4.2851V12.161H36.1v5.6306l-1.5751 2.1171c-.2251.3604-.6749.6306-1.1699.6306-.4951.045-.9452-.1351-1.26-.4955l-3.1952-3.153c-.2251-.2253-.5399-.2253-.765 0l-6.12 6.1261c-1.3048 1.3061-3.1499 2.027-4.995 1.9821l-1.7998-.045c-.2251 0-.4502.1351-.5399.3155-.0901.2253-.0449.4506.1349.5857l3.1051 3.1082c.135.1351.3152.18.495.1351l2.8351-.4955-1.3048 1.6666c-.1799.2253-.135.5404.0449.7208l7.2001 7.2074c.0901.0901.2251.1351.3601.18l1.7998.0449h.27c2.0701 0 4.0951-.8106 5.5349-2.2972l1.0349-1.0359v6.7112l-.0901-.0001Zm.8551-8.964.7649-.7658-11.61-11.6216-.7649.7657 5.8048 5.811 5.8052 5.8107Zm-13.9951-5.2253c-.135-.1801-.36-.3155-.5851-.2703l-3.9601.7208-1.89-1.8919h.405c2.1599.0902 4.2749-.7657 5.8048-2.2972l1.8451-1.8469 2.3401 2.3424-1.7101 1.7118c-.2251.2253-.2251.5405 0 .7657.0901.0902.2699.1801.4049.1801s.27-.0449.4049-.1801l1.7101-1.7118 1.7999 1.8017-2.745 2.7478c-.2251.2252-.2251.5404 0 .7657.0901.0902.2699.18.4049.18s.2699-.0449.4049-.18l2.745-2.7478 1.8002 1.802-1.7101 1.7118c-.2251.2253-.2251.5404 0 .7657.0901.0902.27.1801.4049.1801.135 0 .27-.045.405-.1801l1.7101-1.7118 3.2849 3.2882-1.9345 1.8919c-1.3049 1.3062-3.15 2.0723-4.9951 1.9821l-1.62-.0449-6.6599-6.7571 1.89-2.4323c.135-.1801.135-.4053.0452-.5857v.0001Zm14.3549-.7658c-.5848-.5404-.8547-1.3065-.8099-2.1171h.0001c.0901-.8107.4502-1.5315 1.125-2.027l6.5246-4.7753c.4502-.4956.7201-1.1711.7201-1.8919 0-.7205-.3148-1.4413-.8098-1.9368-1.0349-1.036-2.8351-1.036-3.87 0l-4.77 6.4866c-.4501.6306-1.1702 1.0362-1.98 1.0811-.8099.0453-1.5749-.2249-2.16-.8106l-2.7899-2.7927-1.62 1.6216 5.8049 5.8107 5.8048 5.7658 1.62-1.6217-2.7899-2.7927Z" clip-rule="evenodd"/><path fill="#9336FD" d="m44.875 18.6926.2086.281.0207-.0154.0183-.0183-.2476-.2473Zm-6.6149 4.9097-.2086-.2811-.0015.0012.2101.2799Zm6.6149-10.3155.2476-.2473-.2476.2473Zm-5.4452.045-.2511-.2438-.0162.0166-.0138.0187.2811.2085Zm-2.2051 2.973h-.35v1.0595l.6312-.851-.2812-.2085Zm0-4.1441v-.35h-.35v.35h.35Zm2.2049-.5405h-.35.35Zm.0003-6.6213h.35-.35Zm-36.225 7.1168h.35v-.35h-.35v.35Zm0 29.6848v.35l.35-.0001v-.3499h-.35Zm-1.665.0003v.35-.35Zm35.6402 0h-.35v.35h.35v-.35Zm-.0449-7.6576-.2476-.2474-.2472.2473.2472.2474.2476-.2473Zm4.0498-4.054.2476.2474-.2476-.2474Zm0-.7657-.2476.2474.2476-.2474Zm-3.1952-3.1984-.2634.2304.0076.0088.0082.0082.2476-.2474Zm-.495-1.2612-.3395-.085-.0105.0419v.0431h.35ZM38.305 2.251h.35v-.35h-.35v.35Zm-36.225 0v-.35h-.35v.35h.35Zm36.225 2.2073v.35h.35v-.35h-.35Zm-11.52-.0003v-.35.35Zm-24.705 0h-.35v.35h.35v-.35ZM26.2 5.5842l.3422.0732.0906-.4232H26.2v.35Zm-11.9705 0v-.35h-.433l.0907.4233.3423-.0733Zm-1.0796 0 .3464-.0506-.0438-.2994h-.3026v.35Zm-11.07 0v-.35h-.35v.35h.35Zm14.85 3.2882v-.35.35Zm6.5701.0003v.35-.35Zm3.78-3.2882v-.35h-.3026l-.0438.2994.3464.0506Zm11.025 0h.35v-.35h-.35v.35Zm0 5.4952v.35h.35v-.35h-.35Zm-36.225 0h-.35v.35h.35v-.35Zm0 34.0542h-.35v.35h.35v-.35Zm36.27 0v.35h.35v-.35h-.35Zm0-2.2073h.35v-.35h-.35v.35Zm-36.27 0v-.35h-.35v.35h.35Zm2.205-1.1259h-.35v.35h.35v-.35Zm31.8151 0 .0005-.35h-.0005v.35ZM4.2851 12.161v-.35h-.35v.35h.35Zm31.815 0h.35v-.35h-.35v.35Zm0 5.6306.2808.2089.0692-.093v-.1159h-.35Zm-1.5751 2.1171-.2808-.2089-.0085.0115-.0076.012.2969.1854Zm-1.1699.6306v-.35h-.0159l-.0158.0015.0317.3485Zm-1.26-.4955.2635-.2302-.0085-.0098-.0092-.0091-.2458.2491Zm-3.1952-3.153-.2476.2473.0017.0018.2459-.2491Zm-.765 0 .2476.2473-.2476-.2473Zm-6.12 6.1261-.2476-.2474.2476.2474Zm-4.995 1.9821-.0087.3499h.0002l.0085-.3499Zm-1.7998-.045.0087-.35h-.0087v.35Zm-.5399.3155-.3134-.156-.0063.0128-.0053.0133.325.1299Zm.1349.5857.2476-.2474-.0175-.0175-.0199-.015-.2102.2799Zm3.1051 3.1082-.2476.2474.2476-.2474Zm.495.1351-.0602-.3448-.0124.0022-.0122.003.0848.3396Zm2.8351-.4955.2756.2158.5617-.7175-.8975.1569.0602.3448Zm-1.3048 1.6666.2735.2184.0021-.0027-.2756-.2157Zm.0449.7208-.2479.2471.0003.0002.2476-.2473Zm7.2001 7.2074-.2476.2473.2476-.2473Zm.3601.18.1299-.325-.0096-.0038-.0098-.0033-.1105.3321Zm0 0-.13.325.0584.0233.0628.0016.0088-.3499Zm1.7998.0449-.0087.35h.0087v-.35Zm5.8049-2.2972-.2476-.2474-.0038.0039.2514.2435Zm1.0349-1.0359h.35v-.8456l-.5976.5982.2476.2474Zm0 6.7112-.0004.35.3504.0005v-.3505h-.35Zm1.5299-9.7299.2477.2474.2471-.2474-.2471-.2473-.2477.2473Zm-.7649.7658-.2476.2473.2476.2479.2476-.2479-.2476-.2473ZM26.1101 20.4493l.2476-.2474-.2476-.2479-.2476.2479.2476.2474Zm-.7649.7657-.2477-.2474-.2471.2474.2471.2474.2477-.2474Zm5.8048 5.811-.2476.2473v.0001l.2476-.2474Zm-8.775.3151.0627.3444.0063-.0012-.069-.3432Zm.5851.2703-.28.2099.63.8404v-1.0503h-.35Zm-4.5452.4505-.2476.2474.1297.1299.1806-.0329-.0627-.3444Zm-1.89-1.8919v-.35h-.8444l.5968.5974.2476-.2474Zm.405 0 .0146-.3496-.0073-.0004h-.0073v.35Zm5.8048-2.2972-.2476-.2473.2476.2473Zm1.8451-1.8469.2476-.2474-.2476-.2478-.2476.2478.2476.2474Zm2.3401 2.3424.2476.2474.2471-.2474-.2471-.2473-.2476.2473Zm-1.7101 1.7118-.2476-.2473.2476.2473Zm0 .7657.2476-.2473-.2476.2473Zm.8098 0-.2476-.2473.2476.2473Zm1.7101-1.7118.2476-.2473-.2476-.2479-.2476.2479.2476.2473Zm1.7999 1.8017.2476.2474.2471-.2474-.2471-.2474-.2476.2474Zm-2.745 2.7478.2476.2473-.2476-.2473Zm0 .7657.2476-.2474-.2476.2474Zm.8098 0-.2476-.2474.2476.2474Zm2.745-2.7478.2476-.2473-.2476-.2479-.2476.2479.2476.2473Zm1.8002 1.802.2476.2474.2471-.2474-.2471-.2474-.2476.2474Zm-1.7101 1.7118.2476.2474-.2476-.2474Zm0 .7657.2476-.2473v-.0001l-.2476.2474Zm.8099 0-.2476-.2473.2476.2473Zm1.7101-1.7118.2476-.2473-.2476-.2479-.2477.2479.2477.2473Zm3.2849 3.2882.2447.2503.2529-.2474-.25-.2502-.2476.2473Zm-1.9345 1.8919-.2448-.2502-.0029.0029.2477.2473Zm-4.9951 1.9821.0171-.3497-.0073-.0002-.0098.3499Zm-1.62-.0449-.2492.2457.0988.1002.1407.0039.0097-.3498Zm-6.6599-6.7571-.2764-.2148-.1881.2421.2152.2184.2493-.2457Zm1.89-2.4323.2764.2148.0037-.0049-.2801-.2099Zm.0452-.5857.3133-.156-.6633.156h.35Zm13.545-2.8828v-.35h-.3311l-.0183.3306.3494.0194Zm.8099 2.1171.2478-.2476-.0103-.0094-.2375.257Zm-.8098-2.1171v.35h.3133l.0346-.3114-.3479-.0386Zm1.125-2.027-.2067-.2824-.0004.0003.2071.2821Zm6.5246-4.7753.2068.2824.0285-.0209.0238-.0262-.2591-.2353Zm-.0897-3.8287.2476-.2474-.2476.2474Zm-3.87 0-.2476-.2474-.0187.0187-.0157.0213.282.2074Zm-4.77 6.4866-.282-.2074-.0028.004.2848.2034Zm-1.98 1.0811-.0194-.3494h-.0002l.0196.3494Zm-2.16-.8106.2476-.2474-.2476.2474Zm-2.7899-2.7927.2476-.2474-.2476-.2478-.2476.2478.2476.2474Zm-1.62 1.6216-.2476-.2474-.2471.2474.2471.2474.2476-.2474Zm5.8049 5.8107-.2477.2473.001.001.2467-.2483Zm5.8048 5.7658-.2466.2483.2476.2459.2466-.2469-.2476-.2473Zm1.62-1.6217.2476.2474.2471-.2474-.2471-.2473-.2476.2473Zm4.5615-11.2268-6.6149 4.9097.4172.5621 6.6149-4.9097-.4172-.5621Zm.9836-2.4218c0 .9412-.3665 1.7987-1.0226 2.4555l.4952.4947c.784-.7847 1.2274-1.8188 1.2274-2.9502h-.7Zm-1.0226-2.4555c.6561.6568 1.0226 1.5146 1.0226 2.4555h.7c0-1.131-.4434-2.1654-1.2274-2.9502l-.4952.4947Zm-4.9464.0414c1.3882-1.4301 3.6382-1.3508 4.9464-.0414l.4952-.4947c-1.5722-1.5738-4.2717-1.6742-5.9439.0485l.5023.4876Zm-2.1751 2.9377 2.205-2.973-.5622-.417-2.2051 2.973.5623.417Zm-.6312-4.3526v4.1441h.7v-4.1441h-.7Zm2.015-.35h-1.665v.7h1.665v-.7Zm.1899-.1905c0 .1224-.0685.1905-.1899.1905v.7c.5089 0 .8899-.3825.8899-.8905h-.7Zm.0003-6.6213-.0003 6.6213h.7l.0003-6.6213h-.7Zm0-3.2885v3.2885h.7V1.7104h-.7Zm-.1899-.1905c.1213 0 .1899.0681.1899.1905h.7c0-.5086-.3816-.8905-.8899-.8905v.7Zm-37.3501 0H38.89v-.7H1.5399v.7Zm-.1899.1905c0-.1222.0687-.1905.1899-.1905v-.7C1.0314.82.65 1.2022.65 1.7104h.7Zm0 9.8649v-9.865h-.7v9.865h.7Zm.1899.1904c-.1213 0-.1899-.0681-.1899-.1904h-.7c0 .5085.3816.8904.8899.8904v-.7Zm1.665 0h-1.665v.7h1.665v-.7Zm.35 30.0348V12.1157h-.7v29.6848h.7Zm-2.015.3503 1.665-.0003-.0001-.7-1.665.0003.0002.7Zm-.1899.1905c0-.1224.0685-.1905.1899-.1905v-.7c-.509 0-.8899.3825-.8899.8905h.7Zm0 3.2882v-3.2882h-.7v3.2882h.7Zm.1899.1904c-.1213 0-.1899-.0681-.1899-.1904h-.7c0 .5085.3816.8904.8899.8904v-.7Zm37.3051 0H1.5399v.7H38.845v-.7Zm.1899-.1904c0 .1223-.0685.1904-.1899.1904v.7c.5089 0 .8899-.3824.8899-.8904h-.7Zm0-3.2882v3.2882h.7v-3.2882h-.7Zm-.1899-.1905c.1213 0 .1899.0681.1899.1905h.7c0-.5086-.3816-.8905-.8899-.8905v.7Zm-1.6649 0h1.6649v-.7h-1.6649v.7Zm-.35-7.8725v7.5225h.7v-7.5225h-.7Zm.0575.1122a.1926.1926 0 0 1-.0318-.0425.2144.2144 0 0 1-.021-.0528.1668.1668 0 0 1-.0048-.0289c-.0001-.0014.0001-.0011.0001.012h.7c0-.0495.0065-.2286-.1473-.3825l-.4952.4947Zm4.0498-4.5486-4.0498 4.0539.4952.4947 4.0498-4.0539-.4952-.4947Zm0-.271c.0533.0534.0664.1018.0664.1355 0 .0337-.0131.0821-.0664.1355l.4952.4947c.1718-.1719.2712-.3937.2712-.6302s-.0994-.4583-.2712-.6302l-.4952.4947Zm-3.1952-3.1984 3.1952 3.1984.4952-.4947-3.1951-3.1984-.4953.4947Zm-.5974-1.5086c0 .5433.2161 1.0737.5816 1.4916l.5269-.4607c-.2648-.3029-.4085-.673-.4085-1.0309h-.7Zm.9052-1.5415c-.44.3303-.7453.8593-.8947 1.4565l.6791.1699c.1211-.4843.3557-.8563.6358-1.0666l-.4202-.5598Zm.255-21.4214H2.08v.7h36.225v-.7Zm.35 2.5573V2.251h-.7v2.2073h.7Zm-11.87.3497 11.52.0003v-.7l-11.52-.0003v.7Zm-24.705 0h24.705v-.7H2.08v.7Zm-.35-2.557v2.207h.7V2.251h-.7Zm24.1277 3.26c-.2373 1.1088-1.182 1.9305-2.3579 1.9305v.7c1.5242 0 2.7398-1.0704 3.0424-2.484l-.6845-.1466Zm-11.6282.4232H26.2v-.7H14.2295v.7Zm2.7001 1.5073c-1.1341 0-2.121-.8252-2.3579-1.9307l-.6845.1467c.3037 1.417 1.5668 2.484 3.0424 2.484v-.7Zm6.5702 0h-6.5702v.7h6.5702v-.7ZM13.1499 5.2342h-11.07v.7h11.07v-.7Zm3.78 3.2882c-1.7546 0-3.1879-1.3073-3.4336-2.9888l-.6927.1012c.2941 2.0123 2.0112 3.5876 4.1263 3.5876v-.7Zm6.5702.0003-6.5702-.0003-.0001.7 6.5702.0003.0001-.7Zm3.4335-2.9888c-.2457 1.6812-1.679 2.9888-3.4336 2.9888v.7c2.1152 0 3.8322-1.5756 4.1263-3.5876l-.6927-.1012Zm11.3714-.2994H27.28v.7h11.025v-.7Zm.35 5.8452V5.5845h-.7v5.4952h.7Zm-36.575.35h36.225v-.7H2.08v.7Zm-.35-5.8455v5.4955h.7V5.5842h-.7Zm36.575 39.1997H2.08v.7h36.225v-.7Zm.045 0h-.045v.7h.045v-.7ZM38 42.9266v2.2073h.7v-2.2073H38Zm-35.92.35h36.27v-.7H2.08v.7Zm.35 1.8573v-2.2073h-.7v2.2073h.7Zm1.855-2.9832h31.8151v-.7H4.2851v.7Zm-.35-29.9897v29.6397h.7V12.161h-.7Zm32.1651-.35H4.2851v.7H36.1v-.7Zm.35 5.8904V12.161h-.7v5.5404h.7Zm0 .0902v-.0902h-.7v.0902h.7Zm-1.6443 2.3261 1.5751-2.1172-.5616-.4178-1.5751 2.1171.5616.4179Zm-1.4507.7716c.6164 0 1.1781-.333 1.4667-.7952l-.5937-.3708c-.1615.2586-.4994.466-.873.466v.7Zm-1.5236-.6152c.3903.4468.9511.6687 1.5552.6138l-.0633-.6971c-.3859.035-.7254-.1032-.9648-.3772l-.5271.4605Zm-3.1775-3.1342 3.1952 3.1531.4917-.4983-3.1952-3.1531-.4917.4983Zm-.2715-.0018c.0534-.0534.1016-.0663.1349-.0663.0334 0 .0815.0129.1349.0663l.4952-.4947c-.1717-.1719-.3935-.2716-.6301-.2716-.2366 0-.4584.0997-.6301.2716l.4952.4947Zm-6.12 6.1262 6.12-6.1262-.4952-.4947-6.12 6.1261.4952.4948Zm-5.2511 2.0846c1.9386.0471 3.8769-.7091 5.2511-2.0846l-.4952-.4948c-1.2355 1.2368-2.9873 1.9222-4.7389 1.8796l-.017.6998Zm-1.8001-.045 1.7999.045.0174-.6998-1.7998-.045-.0175.6998Zm-.2178.1216c.0253-.0508.1219-.1215.2266-.1215v-.7c-.3455 0-.699.1996-.8533.5095l.6267.312Zm.0318.1498c-.0231-.0173-.0328-.0351-.0372-.055-.0051-.023-.0058-.0637.017-.1208l-.6499-.2599c-.1365.3413-.0813.7468.2497.9954l.4204-.5597Zm3.1425 3.1407-3.1051-3.1082-.4952.4948 3.1051 3.1082.4952-.4948Zm.1626.0429c-.0658.0165-.1183.0015-.1626-.0429l-.4952.4948c.2256.2258.5335.3007.8275.2273l-.1697-.6792Zm2.8597-.5007-2.8351.4955.1205.6896 2.8351-.4955-.1205-.6896Zm-.969 2.2271 1.3048-1.6665-.5512-.4316-1.3048 1.6666.5512.4315Zm.0171.2579c-.0682-.0684-.076-.1841-.0192-.2552l-.547-.4368c-.303.3795-.221.894.0705 1.1863l.4957-.4943Zm7.2 7.2072L20.238 30.743l-.4952.4947 7.2001 7.2074.4953-.4947Zm.2229.0953c-.1565-.0521-.2027-.0751-.2229-.0953l-.4953.4947c.16.1601.3836.227.4971.2648l.2211-.6642Zm.0195.0071h-.0001l-.2599.65.26-.65Zm1.6786.0201-1.7999-.045-.0175.6998 1.7999.0449.0175-.6997Zm.2612-.0002h-.27v.7h.27v-.7Zm5.2835-2.1907c-1.3702 1.4147-3.3027 2.1907-5.2835 2.1907v.7c2.1594 0 4.2768-.8452 5.7863-2.4037l-.5028-.487Zm1.0387-1.0398-1.0349 1.036.4952.4947 1.0349-1.036-.4952-.4947Zm.5976 6.9586v-6.7112h-.7v6.7112h.7Zm-.4405.3499.0901.0001.0009-.7-.0901-.0001-.0009.7Zm1.3728-10.3271-.7649.7657.4952.4947.765-.7657-.4953-.4947Zm-11.61-11.127 11.61 11.6217.4953-.4947-11.6101-11.6217-.4952.4947Zm-.2697.7658.7649-.7658-.4952-.4947-.765.7657.4953.4948Zm5.8048 5.3162-5.8048-5.811-.4953.4948 5.8049 5.8109.4952-.4947Zm5.8052 5.8107-5.8052-5.8107-.4952.4948 5.8052 5.8106.4952-.4947Zm-14.7588-4.905c.0211-.0043.0542-.0028.1006.0204.0478.0239.097.0653.1355.1166l.5601-.4199c-.1804-.2406-.5272-.4852-.9342-.4034l.138.6863Zm-3.9664.722 3.9601-.7208-.1254-.6887-3.96.7208.1253.6887Zm-2.2003-1.9889 1.89 1.8919.4952-.4947-1.89-1.8919-.4952.4947Zm.6526-.5974h-.405v.7h.405v-.7Zm5.5572-2.1945c-1.4632 1.4646-3.484 2.2808-5.5426 2.1949l-.0292.6993c2.2612.0945 4.4703-.8012 6.067-2.3995l-.4952-.4947Zm1.8451-1.847-1.8451 1.847.4952.4947 1.8451-1.8469-.4952-.4948Zm2.8353 2.3425-2.3401-2.3425-.4952.4948 2.3401 2.3424.4952-.4947Zm-1.7101 2.2065 1.7101-1.7118-.4952-.4947-1.7101 1.7118.4952.4947Zm0 .271c-.0533-.0534-.0664-.1018-.0664-.1355 0-.0337.0131-.0821.0664-.1355l-.4952-.4947c-.1718.1719-.2712.3937-.2712.6302s.0994.4583.2712.6302l.4952-.4947Zm.1573.0774c.0035 0-.0023.0003-.0182-.0039a.3328.3328 0 0 1-.0544-.0201c-.0451-.0208-.0755-.0442-.0847-.0534l-.4952.4947c.0808.0809.1854.1476.2865.1943.0992.0457.2298.0884.366.0884v-.7Zm.1573-.0774c-.0393.0394-.0694.0566-.0894.065a.1712.1712 0 0 1-.0679.0124v.7c.2288 0 .4526-.0825.6526-.2827l-.4953-.4947Zm1.7101-1.7118-1.7101 1.7118.4953.4947 1.71-1.7118-.4952-.4947Zm2.2951 1.8016-1.7999-1.8016-.4952.4947 1.7999 1.8017.4952-.4948Zm-2.745 3.2425 2.745-2.7477-.4952-.4948-2.745 2.7478.4952.4947Zm0 .271c-.0533-.0534-.0664-.1018-.0664-.1355 0-.0337.0131-.0821.0664-.1355l-.4952-.4947c-.1718.1719-.2712.3937-.2712.6302s.0994.4583.2712.6302l.4952-.4947Zm.1573.0774c.0035 0-.0023.0004-.0182-.0038a.3404.3404 0 0 1-.0544-.0202c-.0451-.0208-.0755-.0441-.0847-.0534l-.4952.4947c.0808.081.1854.1476.2865.1943.0992.0458.2298.0884.366.0884v-.7Zm.1573-.0774c-.0394.0394-.0694.0566-.0895.065a.169.169 0 0 1-.0678.0124v.7c.2288 0 .4526-.0825.6525-.2827l-.4952-.4947Zm2.745-2.7477-2.745 2.7477.4952.4947 2.745-2.7477-.4952-.4947Zm2.2954 1.8019-1.8002-1.8019-.4952.4947 1.8002 1.802.4952-.4948Zm-1.7101 2.2066 1.7101-1.7118-.4952-.4948-1.7101 1.7118.4952.4948Zm0 .2709c-.0533-.0533-.0664-.1017-.0664-.1354 0-.0338.0131-.0822.0664-.1355l-.4952-.4948c-.1717.1719-.2712.3938-.2712.6303s.0995.4583.2712.6302l.4952-.4948Zm.1573.0775c.0036 0-.0023.0003-.0182-.0039a.3424.3424 0 0 1-.0544-.0201c-.045-.0208-.0754-.0442-.0847-.0534l-.4952.4947c.0809.0809.1854.1476.2866.1942.0992.0458.2297.0885.3659.0885v-.7Zm.1574-.0774c-.0394.0394-.0695.0566-.0895.0649a.1694.1694 0 0 1-.0679.0125v.7c.2288 0 .4526-.0826.6526-.2827l-.4952-.4947Zm1.71-1.7118-1.71 1.7118.4952.4947 1.7101-1.7118-.4953-.4947ZM36.482 33.31l-3.2849-3.2882-.4953.4947 3.285 3.2882.4952-.4947Zm-1.9374 2.3895 1.9345-1.8919-.4894-.5005-1.9346 1.8919.4895.5005Zm-5.2568 2.0814c1.9505.0953 3.8899-.7132 5.2597-2.0843l-.4953-.4947c-1.2399 1.2412-2.9907 1.9648-4.7303 1.8798l-.0341.6992Zm-1.6127-.0447 1.62.045.0195-.6998-1.6201-.0449-.0194.6997Zm-6.8995-6.8612 6.66 6.7571.4985-.4914-6.6599-6.7571-.4986.4914Zm1.8629-2.8928-1.89 2.4323.5528.4295 1.89-2.4323-.5528-.4295Zm.0083-.2149c.0396.0796.0325.1605-.0119.2198l.5601.4198c.2255-.3008.2184-.6704.0784-.9516l-.6266.312Zm.6633-.1559v-.0001h-.7v.0001h.7Zm12.8456-2.9023c-.0499.9009.2506 1.7734.9217 2.3936l.4751-.5141c-.4984-.4606-.7378-1.1203-.6979-1.8408l-.6989-.0387Zm.3495-.3306h-.0001v.7h.0001v-.7Zm.9179-1.9591c-.7651.5618-1.1665 1.3775-1.2657 2.2704l.6957.0773c.0809-.7283.3996-1.3542.9843-1.7835l-.4143-.5642Zm6.525-4.7757-6.5246 4.7754.4134.5649 6.5247-4.7754-.4135-.5649Zm.5768-1.6094c0 .6341-.2377 1.2256-.6291 1.6566l.5181.4706c.5089-.5602.811-1.3197.811-2.1272h-.7Zm-.7074-1.6894c.4323.4327.7074 1.0656.7074 1.6894h.7c0-.8172-.3545-1.6259-.9122-2.1842l-.4952.4948Zm-3.3748 0c.8982-.8992 2.4766-.8992 3.3748 0l.4952-.4948c-1.1716-1.1728-3.1936-1.1728-4.3652 0l.4952.4948Zm-4.7356 6.4465 4.7699-6.4866-.5639-.4147-4.7699 6.4866.5639.4147Zm-2.2427 1.2233c.9161-.0508 1.7338-.5103 2.2456-1.2273l-.5697-.4067c-.3885.5442-1.011.896-1.7146.9351l.0387.6989Zm-2.4269-.9127c.6595.6601 1.5234.9632 2.4271.9127l-.0391-.6989c-.716.04-1.382-.1973-1.8928-.7086l-.4952.4948Zm-2.7899-2.7928 2.7899 2.7928.4952-.4948-2.7899-2.7927-.4952.4947Zm-1.1248 1.6217 1.62-1.6217-.4952-.4947-1.62 1.6216.4952.4948Zm5.8049 5.3159-5.8049-5.8107-.4952.4948 5.8048 5.8106.4953-.4947Zm5.8039 5.7648-5.8049-5.7658-.4933.4967 5.8049 5.7658.4933-.4967Zm1.1257-1.6206-1.62 1.6216.4952.4947 1.62-1.6216-.4952-.4947Zm-2.7899-2.298 2.7899 2.7927.4952-.4947-2.7899-2.7928-.4952.4948Z"/><path fill="#9336FD" fill-rule="evenodd" d="M40.5102 17.6564c-.7649-.7657-.7649-2.0722 0-2.838.765-.7657 2.025-.7657 2.8804 0 .7649.7657.7649 2.0722 0 2.838-.4053.4056-.9452.5856-1.4402.5856-.5402 0-1.0352-.1803-1.4402-.5856Zm.7201-.7657c.3597.3604.9448.3604 1.3049 0 .36-.3604.36-.9461-.0449-1.3062-.1799-.18-.4049-.2702-.63-.2702-.225 0-.4501.0902-.63.2702-.36.3601-.36.9458 0 1.3062Z" clip-rule="evenodd"/><path fill="#9336FD" d="m40.5102 14.8184-.2476-.2473.2476.2473Zm0 2.838.2477-.2474h-.0001l-.2476.2474Zm2.8804-2.838.2476-.2473-.0069-.0069-.0073-.0065-.2334.2607Zm0 2.838.2476.2473-.2476-.2473Zm-.8554-.7657v-.35h-.1451l-.1025.1026.2476.2474Zm-1.3049 0 .2478-.2473-.0002-.0001-.2476.2474Zm1.3049 0v.35h.145l.1026-.1026-.2476-.2474Zm-.0449-1.3062-.2476.2474.0073.0073.0077.0069.2326-.2616Zm-1.26 0 .2475.2475.0001-.0001-.2476-.2474Zm-.9677-1.0134c-.9014.9024-.9015 2.4303 0 3.3326l.4952-.4947c-.6284-.629-.6284-1.7141.0001-2.3432l-.4953-.4947Zm3.3614-.0134c-.9803-.8776-2.4525-.8963-3.3614.0134l.4952.4947c.6212-.6218 1.6689-.6405 2.3993.0134l.4669-.5215Zm.0142 3.346c.9015-.9024.9015-2.4303 0-3.3326l-.4952.4947c.6284.629.6284 1.7141 0 2.3432l.4952.4947Zm-1.6878.6883c.5755 0 1.2086-.2086 1.6878-.6883l-.4952-.4947c-.3313.3316-.778.483-1.1926.483v.7Zm-1.6878-.6883c.4762.4767 1.0629.6883 1.6878.6883v-.7c-.4556 0-.8589-.149-1.1925-.483l-.4953.4947Zm2.025-1.2604a.5725.5725 0 0 1-.8095.0001l-.4955.4945c.4965.4975 1.3035.4973 1.8002.0001l-.4952-.4947Zm.2476-.1026v.7-.7Zm-.2775-.6946c.2516.2237.2504.5764.0299.7972l.4952.4948c.4995-.5.4984-1.3187-.0599-1.8151l-.4652.5231Zm-.3974-.1818c.1292 0 .266.0511.3824.1676l.4952-.4947c-.2434-.2437-.5567-.3729-.8776-.3729v.7Zm-.3824.1676c.1164-.1165.2532-.1676.3824-.1676v-.7c-.3209 0-.6342.1292-.8776.3729l.4952.4947Zm0 .8114c-.2236-.2238-.2234-.588-.0001-.8113l-.495-.495c-.4968.4968-.4966 1.3041-.0001 1.801l.4952-.4947Z"/><path fill="#9336FD" stroke="#9336FD" stroke-width=".7" d="M12.9252 24.8633H6.3553c-.3151 0-.5399.2253-.5399.5404 0 .3155.225.5405.54.5405h6.5701c.3152 0 .5399-.2253.5399-.5405 0-.3151-.2251-.5404-.5402-.5404ZM23.9047 36.9805h-6.5699c-.3151 0-.5399.2253-.5399.5404 0 .3155.2251.5405.5399.5405h6.5702c.3152 0 .5399-.2253.5399-.5405 0-.3151-.2251-.5404-.5402-.5404Z"/></svg>
