<svg xmlns="http://www.w3.org/2000/svg" width="47" height="47" fill="none"><path fill="#9336FD" fill-rule="evenodd" d="M45.4368 39.7014h-1.969V13.2639l1.969-.0003a.5628.5628 0 0 0 .5559-.6482L44.3052 1.6466a.5624.5624 0 0 0-.5556-.4767H3.2501a.5628.5628 0 0 0-.556.4771L1.0067 12.6158a.5634.5634 0 0 0 .129.452.5637.5637 0 0 0 .4274.1958h1.9689V39.701l-1.969.0004a.5626.5626 0 0 0-.5626.5626v5.3433c0 .3107.2519.5626.5627.5626h43.8743A.5626.5626 0 0 0 46 45.6073v-5.3437a.5629.5629 0 0 0-.563-.5622h-.0002ZM3.732 2.2952H43.266l1.5145 9.8438H2.2171L3.732 2.2952ZM42.3426 13.264H4.6556l.0003 26.4379h13.4295l-.0008-11.1094a.5626.5626 0 0 1 .5626-.5626h9.7032a.5626.5626 0 0 1 .5627.5626v11.1094l13.4295-.0004V13.2639ZM27.7881 39.7014h-8.5778V29.1545h8.5778v10.5469ZM2.1244 45.045h42.7494v-4.2187H2.1244v4.2187Z" clip-rule="evenodd"/><path fill="#9336FD" d="M43.4678 39.7014h-.5v.5h.5v-.5Zm1.969 0v.5h.0096l.0096-.0004-.0192-.4996Zm-1.969-26.4375-.0001-.5-.4999.0001v.4999h.5Zm1.969-.0003v-.5h-.0001l.0001.5Zm.4268-.1962.3795.3256.0005-.0006-.38-.325Zm.1291-.452-.4941.076v.0004l.4941-.0764ZM44.3052 1.6466l-.4943.0758.0001.0003.4942-.076Zm-41.611.0004L2.2 1.5707v.0003l.4942.076ZM1.0066 12.6158l.494.0765.0002-.0005-.4942-.076Zm.129.452-.3799.325.0011.0012.3789-.3262Zm2.3963.1958h.5v-.5h-.5v.5Zm0 26.4374v.5l.5-.0001v-.4999h-.5Zm-1.969.0004v.5h.0002l-.0001-.5ZM46 40.2636h.5v-.0006l-.5.0006Zm-.563-.5622v-.5h-.0097l-.0096.0003.0193.4997ZM43.2661 2.2952l.4942-.076-.0652-.424h-.429v.5Zm-39.5341 0v-.5h-.429l-.0652.424.4942.076Zm41.0486 9.8438v.5h.5829l-.0887-.5761-.4942.0761Zm-42.5635 0-.4942-.0761-.0887.5761h.5829v-.5Zm2.4385 1.1249v-.5h-.5v.5001l.5-.0001Zm37.687 0h.5v-.5h-.5v.5ZM4.6559 39.7018h-.5v.5h.5v-.5Zm13.4295 0v.5h.5v-.5001l-.5.0001Zm-.0008-11.1094h-.5v.0001l.5-.0001Zm10.8285 11.1094h-.5v.5h.5v-.5Zm13.4295-.0004v.5h.5v-.5h-.5Zm-23.1323 0h-.5v.5h.5v-.5Zm8.5778 0v.5h.5v-.5h-.5Zm-8.5778-10.5469v-.5h-.5v.5h.5Zm8.5778 0h.5v-.5h-.5v.5ZM44.8738 45.045v.5h.5v-.5h-.5Zm-42.7494 0h-.5v.5h.5v-.5Zm42.7494-4.2187h.5v-.5h-.5v.5Zm-42.7494 0v-.5h-.5v.5h.5Zm41.3434-.6249h1.969v-1h-1.969v1Zm-.5-26.9375v26.4375h1V13.2639h-1Zm2.4689-.5003-1.969.0003.0002 1 1.969-.0003-.0002-1Zm.0475-.0218a.0625.0625 0 0 1-.0474.0218v1c.3104 0 .6047-.1357.8063-.3706l-.7589-.6512Zm.0144-.05a.0628.0628 0 0 1-.0149.0506l.7599.65a1.063 1.063 0 0 0 .2433-.8534l-.9883.1528ZM43.811 1.7227l1.6876 10.9687.9883-.1521-1.6876-10.9687-.9883.152Zm-.0614-.0528a.0623.0623 0 0 1 .0613.0525l.9885-.1515a1.0624 1.0624 0 0 0-1.0498-.901v1Zm-40.4995 0h40.4995v-1H3.2501v1Zm-.0618.0535a.0628.0628 0 0 1 .0619-.0535v-1c-.5252 0-.9702.3835-1.0502.9008l.9883.1527ZM1.5008 12.6918 3.1883 1.7231 2.2 1.571.5124 12.5396l.9884.1521Zm.0148.051a.0636.0636 0 0 1-.015-.0505l-.9881-.1531a1.0634 1.0634 0 0 0 .2432.8536l.76-.65Zm.0474.0208a.0633.0633 0 0 1-.0484-.0221l-.7578.6525c.2022.2348.4964.3696.8062.3696v-1Zm1.9689 0h-1.969v1h1.969v-1Zm.5 26.9374V13.2636h-1V39.701h1Zm-2.4688.5004 1.9689-.0004-.0002-1-1.969.0004.0003 1Zm-.0628.0626c0-.0346.028-.0626.0627-.0626v-1c-.587 0-1.0627.4757-1.0627 1.0626h1Zm0 5.3433V40.264h-1v5.3433h1Zm.0627.0626a.0626.0626 0 0 1-.0627-.0626h-1c0 .5869.4758 1.0626 1.0627 1.0626v-1Zm43.8743 0H1.563v1h43.8743v-1Zm.0627-.0626a.0626.0626 0 0 1-.0627.0626v1c.587 0 1.0627-.4757 1.0627-1.0626h-1Zm0-5.3437v5.3437h1v-5.3437h-1Zm-.063-.0622c.0349 0 .063.0281.063.0629l1-.0013c-.0007-.5867-.4765-1.0616-1.063-1.0616v1Zm.019-.0004h.0002l-.0385-.9993h-.0002l.0385.9993ZM43.2661 1.7952H3.732v1H43.266v-1Zm2.0087 10.2677-1.5145-9.8437-.9884.152 1.5146 9.8438.9883-.1521Zm-43.0577.5761h42.5635v-1H2.2171v1ZM3.2378 2.2192l-1.515 9.8437.9885.1521 1.5149-9.8437-.9884-.1521Zm1.4178 11.5447h37.687v-1H4.6556v1Zm.5003 25.9379-.0003-26.4379-1 .0001.0003 26.4378h1Zm12.9295-.5H4.6559v1h13.4295v-1Zm-.5008-10.6093.0008 11.1093 1-.0001-.0008-11.1093-1 .0001Zm1.0626-1.0627c-.5869 0-1.0626.4757-1.0626 1.0626h1c0-.0346.028-.0626.0626-.0626v-1Zm9.7032 0h-9.7032v1h9.7032v-1Zm1.0627 1.0626c0-.5869-.4758-1.0626-1.0627-1.0626v1c.0346 0 .0627.028.0627.0626h1Zm0 11.1094V28.5924h-1v11.1094h1Zm12.9295-.5004-13.4295.0004v1l13.4295-.0004v-1Zm-.5-25.9375v26.4375h1V13.2639h-1ZM19.2103 40.2014h8.5778v-1h-8.5778v1Zm-.5-11.0469v10.5469h1V29.1545h-1Zm9.0778-.5h-8.5778v1h8.5778v-1Zm.5 11.0469V29.1545h-1v10.5469h1Zm16.5857 4.8436H2.1244v1h42.7494v-1Zm-.5-3.7187v4.2187h1v-4.2187h-1Zm-42.2494.5h42.7494v-1H2.1244v1Zm.5 3.7187v-4.2187h-1v4.2187h1Z"/><path fill="#9336FD" stroke="#9336FD" d="M8.2434 6.439c1.0304 0 1.9583-.6671 2.3091-1.6594a.5623.5623 0 0 0-.343-.7177c-.2927-.1044-.614.0502-.7176.343-.1922.5438-.6937.909-1.2485.909-.5544 0-1.0559-.3652-1.2481-.909-.1032-.2928-.4254-.4473-.7177-.343a.5622.5622 0 0 0-.343.7177c.3505.9922 1.2785 1.6593 2.3087 1.6593h.0001ZM15.8708 6.439c1.0308 0 1.9587-.6671 2.309-1.6594a.5622.5622 0 0 0-.3429-.7177.5612.5612 0 0 0-.7176.343c-.1919.5438-.6937.909-1.2486.909-.5544 0-1.0558-.3652-1.2485-.909-.1032-.2928-.4253-.4473-.7176-.343a.5623.5623 0 0 0-.343.7177c.3508.9922 1.2787 1.6593 2.3091 1.6593h.0001ZM23.4997 6.439c1.0304 0 1.9583-.6671 2.309-1.6594a.5622.5622 0 0 0-.3429-.7177c-.2931-.1044-.6144.0502-.7176.343-.1927.5438-.6941.909-1.2486.909-.5544 0-1.0558-.3652-1.2485-.909-.1036-.2928-.4241-.4473-.7176-.343a.5623.5623 0 0 0-.343.7177c.3508.9922 1.2787 1.6593 2.3091 1.6593h.0001ZM31.1286 6.439c1.0303 0 1.9582-.6671 2.309-1.6594a.5622.5622 0 0 0-.3429-.7177c-.2924-.1044-.6145.0502-.7177.343-.1922.5438-.6937.909-1.2485.909s-1.0563-.3652-1.2485-.909a.5614.5614 0 0 0-.7177-.343.5622.5622 0 0 0-.3429.7177c.35.9922 1.2784 1.6593 2.309 1.6593h.0002ZM38.7565 6.439c1.0304 0 1.9583-.6671 2.3091-1.6594a.5623.5623 0 0 0-.343-.7177c-.2923-.1044-.6144.0502-.7176.343-.1926.5438-.6941.909-1.2485.909-.5545 0-1.0559-.3652-1.2486-.909-.1035-.2928-.4249-.4473-.7176-.343a.5622.5622 0 0 0-.3429.7177c.3508.9922 1.2783 1.6593 2.309 1.6593h.0001ZM6.8915 10.5865c1.099 0 2.0898-.6988 2.4652-1.7386a.562.562 0 0 0-.3378-.72.5607.5607 0 0 0-.72.3378c-.2154.5956-.7808.9959-1.4074.9959-.6267 0-1.192-.4003-1.4075-.9959a.562.562 0 0 0-.72-.3378.5623.5623 0 0 0-.3378.72c.3755 1.0398 1.3666 1.7386 2.4652 1.7386h.0001ZM15.1962 10.5865c1.099 0 2.0897-.6988 2.4652-1.7386a.562.562 0 0 0-.3378-.72.5604.5604 0 0 0-.72.3378c-.2154.5956-.7808.9959-1.4074.9959-.6267 0-1.192-.4003-1.4075-.9959a.562.562 0 0 0-.72-.3378.5623.5623 0 0 0-.3378.72c.3755 1.0398 1.3663 1.7386 2.4652 1.7386h.0001ZM23.4999 10.5865c1.099 0 2.0898-.6988 2.4652-1.7386a.562.562 0 0 0-.3378-.72.5603.5603 0 0 0-.72.3378c-.2154.5956-.7808.9959-1.4074.9959-.6267 0-1.192-.4003-1.4075-.9959a.5617.5617 0 0 0-.72-.3378.5623.5623 0 0 0-.3378.72c.3755 1.0398 1.3663 1.7386 2.4652 1.7386h.0001ZM33.211 8.4655c-.2154.5956-.7808.9959-1.4074.9959-.6267 0-1.192-.4002-1.4075-.9959-.1059-.2919-.428-.4437-.7199-.3378a.5623.5623 0 0 0-.3379.72c.3755 1.0398 1.3663 1.7386 2.4653 1.7386 1.0989 0 2.0897-.6988 2.4652-1.7386a.562.562 0 0 0-.3379-.72.5612.5612 0 0 0-.7199.3378ZM38.6999 8.4657a.562.562 0 0 0-.72-.3378.5624.5624 0 0 0-.3379.72c.3755 1.0398 1.3663 1.7386 2.4653 1.7386 1.0989 0 2.0897-.6988 2.4652-1.7386a.562.562 0 0 0-.3378-.72.5605.5605 0 0 0-.72.3378c-.2154.5956-.7808.9959-1.4075.9959-.6266.0004-1.1919-.3999-1.4074-.9959h.0001Z"/><path fill="#9336FD" fill-rule="evenodd" d="M7.6652 18.3262h4.7814a.5631.5631 0 0 1 .563.5622v4.7815a.5626.5626 0 0 1-.5626.5626H7.6656a.5626.5626 0 0 1-.5627-.5626l-.0004-4.7811a.5626.5626 0 0 1 .5627-.5626Zm.5631 4.781h3.656v-3.656h-3.656v3.656Z" clip-rule="evenodd"/><path fill="#9336FD" d="M12.4466 18.3262v.5h.4768l.0226-.4763-.4994-.0237Zm0 0v-.5h-.4769l-.0226.4763.4995.0237Zm.563.5622h.5v-.0006l-.5.0006Zm-5.9067 4.7815h.5v-.0001l-.5.0001Zm-.0004-4.7811h-.5v.0001l.5-.0001Zm4.7818 4.2184v.5h.5v-.5h-.5Zm-3.656 0h-.5v.5h.5v-.5Zm3.656-3.656h.5v-.5h-.5v.5Zm-3.656 0v-.5h-.5v.5h.5Zm4.2183-1.625H7.6652v1h4.7814v-1Zm-.4995.4763.9989.0474-.9989-.0474Zm1.5625.5853c-.0007-.5861-.4762-1.0616-1.063-1.0616v1c.0347 0 .063.0283.063.0629l1-.0013Zm0 4.7821v-4.7815h-1v4.7815h1Zm-1.0626 1.0626c.5869 0 1.0626-.4757 1.0626-1.0626h-1a.0626.0626 0 0 1-.0626.0626v1Zm-4.7814 0h4.7814v-1H7.6656v1Zm-1.0627-1.0626c0 .5869.4758 1.0626 1.0627 1.0626v-1a.0626.0626 0 0 1-.0627-.0626h-1Zm-.0004-4.781.0004 4.781 1-.0001-.0004-4.781-1 .0001Zm1.0627-1.0627c-.587 0-1.0627.4757-1.0627 1.0626h1c0-.0346.028-.0626.0627-.0626v-1Zm4.2191 4.781h-3.656v1h3.656v-1Zm-.5-3.156v3.656h1v-3.656h-1Zm-3.156.5h3.656v-1h-3.656v1Zm.5 3.156v-3.656h-1v3.656h1Z"/><path fill="#9336FD" fill-rule="evenodd" d="M21.9721 23.6703a.5626.5626 0 0 1-.5626.5626h-4.781a.5626.5626 0 0 1-.5627-.5626l-.0004-4.7815a.5626.5626 0 0 1 .5627-.5626h4.7814a.5626.5626 0 0 1 .5626.5626v4.7815Zm-1.1253-4.2188h-3.656l.0004 3.656h3.656l-.0004-3.656Z" clip-rule="evenodd"/><path fill="#9336FD" d="M16.0658 23.6703h.5v-.0001l-.5.0001Zm-.0004-4.7815h-.5v.0001l.5-.0001Zm1.1254.5627v-.5h-.5001l.0001.5h.5Zm3.656 0 .5-.0001-.0001-.4999h-.4999v.5Zm-3.6556 3.656-.5.0001v.4999h.5v-.5Zm3.656 0v.5h.5v-.5h-.5Zm.5623 1.6254c.5869 0 1.0626-.4757 1.0626-1.0626h-1a.0626.0626 0 0 1-.0626.0626v1Zm-4.781 0h4.781v-1h-4.781v1Zm-1.0627-1.0626c0 .5869.4758 1.0626 1.0627 1.0626v-1a.0627.0627 0 0 1-.0627-.0626h-1Zm-.0004-4.7814.0004 4.7814 1-.0001-.0004-4.7814-1 .0001Zm1.0627-1.0627c-.5869 0-1.0627.4757-1.0627 1.0626h1a.0627.0627 0 0 1 .0627-.0626v-1Zm4.7814 0h-4.7814v1h4.7814v-1Zm1.0626 1.0626c0-.5869-.4757-1.0626-1.0626-1.0626v1c.0346 0 .0626.028.0626.0626h1Zm0 4.7815v-4.7815h-1v4.7815h1Zm-5.2813-3.7188h3.656v-1h-3.656v1Zm.5004 3.156-.0004-3.6561-1 .0001.0004 3.6561 1-.0001Zm3.156-.5h-3.656v1h3.656v-1Zm-.5004-3.156.0004 3.6561 1-.0001-.0004-3.6561-1 .0001Z"/><path fill="#9336FD" fill-rule="evenodd" d="M30.3714 24.2329H25.59a.5626.5626 0 0 1-.5627-.5626v-4.7815a.5626.5626 0 0 1 .5627-.5626h4.7814a.5626.5626 0 0 1 .5626.5626v4.7815a.5626.5626 0 0 1-.5626.5626Zm-.5631-4.7814h-3.656l.0003 3.656h3.656l-.0003-3.656Z" clip-rule="evenodd"/><path fill="#9336FD" d="M26.1523 19.4515v-.5h-.5001l.0001.5h.5Zm3.656 0 .5-.0001-.0001-.4999h-.4999v.5Zm-3.6557 3.656-.5.0001.0001.4999h.4999v-.5Zm3.656 0v.5h.5001l-.0001-.5h-.5ZM25.59 24.7329h4.7814v-1H25.59v1Zm-1.0627-1.0626c0 .5869.4758 1.0626 1.0627 1.0626v-1a.0627.0627 0 0 1-.0627-.0626h-1Zm0-4.7815v4.7815h1v-4.7815h-1Zm1.0627-1.0626c-.5869 0-1.0627.4757-1.0627 1.0626h1a.0627.0627 0 0 1 .0627-.0626v-1Zm4.7814 0H25.59v1h4.7814v-1Zm1.0626 1.0626c0-.5869-.4757-1.0626-1.0626-1.0626v1c.0346 0 .0626.028.0626.0626h1Zm0 4.7815v-4.7815h-1v4.7815h1Zm-1.0626 1.0626c.5869 0 1.0626-.4757 1.0626-1.0626h-1a.0626.0626 0 0 1-.0626.0626v1Zm-4.2191-4.7814h3.656v-1h-3.656v1Zm.5003 3.156-.0003-3.6561-1 .0001.0003 3.6561 1-.0001Zm3.156-.5h-3.656v1h3.656v-1Zm-.5003-3.156.0003 3.6561 1-.0001-.0003-3.6561-1 .0001Z"/><path fill="#9336FD" fill-rule="evenodd" d="M39.3343 24.2329h-4.7814a.5626.5626 0 0 1-.5627-.5626v-4.7815a.5626.5626 0 0 1 .5627-.5626h4.7814a.5626.5626 0 0 1 .5626.5626v4.7815a.5626.5626 0 0 1-.5626.5626Zm-.5632-4.7814h-3.656l.0004 3.656h3.656l-.0004-3.656Z" clip-rule="evenodd"/><path fill="#9336FD" d="M35.1151 19.4515v-.5h-.5v.5h.5Zm3.656 0 .5-.0001v-.4999h-.5v.5Zm-3.6556 3.656-.5.0001.0001.4999h.4999v-.5Zm3.656 0v.5h.5001l-.0001-.5h-.5Zm-4.2186 1.6254h4.7814v-1h-4.7814v1Zm-1.0627-1.0626c0 .5869.4758 1.0626 1.0627 1.0626v-1a.0627.0627 0 0 1-.0627-.0626h-1Zm0-4.7815v4.7815h1v-4.7815h-1Zm1.0627-1.0626c-.5869 0-1.0627.4757-1.0627 1.0626h1a.0627.0627 0 0 1 .0627-.0626v-1Zm4.7814 0h-4.7814v1h4.7814v-1Zm1.0626 1.0626c0-.5869-.4757-1.0626-1.0626-1.0626v1c.0346 0 .0626.028.0626.0626h1Zm0 4.7815v-4.7815h-1v4.7815h1Zm-1.0626 1.0626c.5869 0 1.0626-.4757 1.0626-1.0626h-1a.0626.0626 0 0 1-.0626.0626v1Zm-4.2192-4.7814h3.656v-1h-3.656v1Zm.5004 3.156-.0004-3.6561-1 .0001.0004 3.6561 1-.0001Zm3.156-.5h-3.656v1h3.656v-1Zm-.5004-3.156.0004 3.6561 1-.0001-.0004-3.6561-1 .0001Z"/></svg>
