<svg xmlns="http://www.w3.org/2000/svg" width="38" height="46" fill="none"><path fill="#9336FD" fill-rule="evenodd" d="M9.7148 29.3821c1.7121 2.978 4.9254 4.8198 8.3766 4.8198l-.0005-.0001c1.6845 0 3.3415-.4399 4.7879-1.2828l7.6899-4.435c4.4949-2.6021 6.0329-8.3749 3.4421-12.8739L25.2592.4448a.5416.5416 0 0 0-.3296-.2565c-.1464-.0367-.2929-.0184-.4211.055l-4.9252 2.8405c-.1831.1008-.2838.3023-.2746.504l.0824 1.6676-1.4739-.8797a.5534.5534 0 0 0-.5584 0L1.2834 13.6582c-.1281.0733-.2197.1832-.2563.3298-.0366.1467-.0183.2933.055.4215l8.6327 14.9726Zm.9524-.5495L2.3091 14.3367l15.3158-8.8422 2.0781 1.237a.5705.5705 0 0 0 .5676 0c.1739-.1008.2747-.2932.2655-.4948l-.1099-2.364 4.1654-2.4008 8.4587 14.6886c2.2887 3.9764.9246 9.0802-3.0393 11.371l-7.6808 4.4349c-1.2817.7422-2.7555 1.1362-4.2386 1.1362-3.0576 0-5.9047-1.6402-7.4244-4.27Z" clip-rule="evenodd"/><path fill="#9336FD" d="M18.0914 34.2019v.15l.0245-.298-.0245.148Zm-8.3766-4.8198.13-.0748v-.0001l-.13.0749Zm8.3761 4.8197v-.15l-.0245.298.0245-.148Zm4.7879-1.2828-.075-.13-.0006.0004.0756.1296Zm7.6899-4.435.0749.13.0002-.0002-.0751-.1298Zm3.4421-12.8739.13-.0749-.0001-.0001-.1299.075ZM25.2592.4448l-.1303.0744.0004.0006.1299-.075Zm-.3296-.2565.0387-.145-.0023-.0006-.0364.1456Zm-.4211.055L24.434.113l-.0004.0003.0749.13Zm-4.9252 2.8405.0724.1314.0025-.0015-.0749-.13Zm-.2746.504-.1499.0067v.0006l.1499-.0074Zm.0824 1.6676-.0769.1288.2405.1435-.0138-.2797-.1498.0074Zm-1.4739-.8797.0769-.1288-.0017-.001-.0752.1298Zm-.5584 0 .075.13.0002-.0002-.0752-.1298ZM1.2834 13.6582l.0745.1302.0005-.0003-.075-.1299Zm-.2563.3298-.1455-.0363.1455.0363Zm.055.4215-.1303.0744.0003.0006.13-.075Zm1.227-.0728-.075-.1299-.1299.075.075.1299.1299-.075Zm8.3581 14.4959-.1299.0749v.0002l.1299-.0751Zm6.9577-23.3381.0768-.129-.0756-.0449-.0762.044.075.1299Zm2.0781 1.237-.0767.129.0015.0008.0752-.1298Zm.5676 0-.0752-.1298.0752.1298Zm.2655-.4948.1498-.0068v-.0001l-.1498.007Zm-.1099-2.364-.0749-.13-.0791.0456.0042.0913.1498-.007Zm4.1654-2.4008.13-.0748-.0749-.13-.13.0749.0749.13Zm8.4587 14.6886.13-.0748v-.0001l-.13.0749Zm-3.0393 11.371.075.1299h.0001l-.0751-.1299Zm-7.6808 4.4349-.075-.1299-.0001.0001.0751.1298Zm-4.2388 2.0855c-3.3982 0-6.5616-1.8137-8.2466-4.7446l-.26.1496c1.7391 3.0251 5.0024 4.895 8.5066 4.895v-.3Zm-.025.2979h.0006l.0489-.2959-.0005-.0001-.049.296Zm4.7368-1.5604c-1.423.8293-3.0538 1.2624-4.7123 1.2624v.3c1.7105 0 3.3936-.4466 4.8634-1.3032l-.1511-.2592Zm7.6905-4.4353-7.6899 4.4349.1499.2599 7.6899-4.4349-.1499-.2599Zm3.3871-12.6692c2.5496 4.4276 1.0359 10.1087-3.3873 12.6693l.1503.2596c4.5667-2.6436 6.1289-8.5081 3.497-13.0786l-.26.1497ZM25.1293.5198l8.7516 15.1652.2598-.1499L25.3891.3698l-.2598.15Zm-.2384-.1866a.3913.3913 0 0 1 .238.186l.2606-.1488a.6919.6919 0 0 0-.4212-.327l-.0774.2898Zm-.3079.0402c.0929-.0531.1994-.0674.3102-.0396l.0728-.291c-.1821-.0457-.3686-.0232-.532.0702l.149.2604Zm-4.9248 2.8403L24.5835.3732l-.1499-.26-4.9252 2.8406.1498.2599Zm-.1997.3672c-.0068-.1498.0686-.295.1971-.3657l-.1446-.2628c-.2377.1308-.3637.3888-.3522.6421l.2997-.0136Zm.0824 1.667-.0824-1.6676-.2997.0148.0824 1.6677.2997-.0148Zm-1.7006-.7434 1.4739.8797.1537-.2576-1.4738-.8797-.1538.2576Zm-.4063.001a.4034.4034 0 0 1 .408 0l.1504-.2596a.7034.7034 0 0 0-.7088 0l.1504.2596ZM1.3584 13.7881l16.0754-9.2825-.15-.2598-16.0754 9.2825.15.2598Zm-.1858.2363c.0257-.1026.0885-.1807.1853-.236l-.149-.2604c-.1595.0912-.2797.2331-.3273.4237l.291.0727Zm.0397.3108c-.0532-.0931-.0674-.1998-.0397-.3108l-.291-.0727c-.0456.1822-.0232.3688.0702.5322l.2605-.1487Zm8.6324 14.972L1.212 14.3346l-.26.1499L9.5849 29.457l.26-.1498ZM2.1791 14.4117l8.3582 14.4958.2599-.1498L2.439 14.2618l-.2599.1499ZM17.55 5.3646 2.2341 14.2068l.15.2598 15.3158-8.8422-.15-.2598Zm2.2299 1.238-2.0781-1.237-.1535.2578 2.0781 1.237.1535-.2578Zm.4156-.0009a.4206.4206 0 0 1-.4172 0l-.1504.2596a.7205.7205 0 0 0 .718 0l-.1504-.2596Zm.1909-.3582c.0067.1482-.0675.2867-.1909.3582l.1504.2596c.2245-.13.3517-.3764.3401-.6314l-.2996.0136Zm-.1099-2.364.1099 2.3642.2996-.014-.1098-2.364-.2997.0139Zm4.2403-2.5375-4.1654 2.4007.1498.2599 4.1654-2.4007-.1498-.26Zm8.6636 14.7436L24.7216 1.3971l-.26.1497 8.4587 14.6885.26-.1497Zm-3.0942 11.5758c4.0358-2.3324 5.424-7.5279 3.0942-11.5757l-.26.1496c2.2476 3.9049.9077 8.9171-2.9843 11.1663l.1501.2598Zm-7.6809 4.4349 7.6808-4.4349-.15-.2598-7.6808 4.4349.15.2598Zm-4.3136 1.1563c1.5093 0 3.0091-.4009 4.3138-1.1563l-.1503-.2597c-1.2587.7289-2.7067 1.116-4.1635 1.116v.3Zm-7.5543-4.3449c1.5466 2.6764 4.4434 4.3449 7.5543 4.3449v-.3c-3.0043 0-5.8018-1.6118-7.2945-4.195l-.2598.1501Z"/><path fill="#9336FD" fill-rule="evenodd" d="M10.0266 29.8864a.549.549 0 0 0 .4759.2749c.0916 0 .1831-.0183.2655-.0733l23.2074-13.4059a.5419.5419 0 0 0 .2563-.3299c.0366-.1466.0183-.2932-.0549-.4215l-2.133-3.7019c-.1556-.2657-.4852-.3574-.7507-.2016L8.095 25.4331a.5421.5421 0 0 0-.2564.3299c-.0366.1466-.0183.2932.055.4215l2.133 3.7019Zm.6682-1.0263-1.5837-2.7489L31.366 13.2465l1.5837 2.7489-22.2549 12.8647Z" clip-rule="evenodd"/><path fill="#9336FD" d="M10.5025 30.1613v.15-.15Zm-.4759-.2749-.13.0749.0001.0002.1299-.0751Zm.7414.2016-.0752-.1302-.008.0054.0832.1248Zm23.2074-13.4059-.0745-.1302-.0005.0003.075.1299Zm.2563-.3299.145.0386.0006-.0022-.1456-.0364Zm-.0549-.4215.1303-.0744-.0003-.0005-.13.0749Zm-2.133-3.7019.13-.0749-.0006-.0009-.1294.0758Zm-.7507-.2016.0751.1299.0008-.0005-.0759-.1294ZM8.095 25.4331l.0744.1302.0006-.0003-.075-.1299Zm-.2564.3299-.145-.0386-.0005.0022.1455.0364Zm.055.4215-.1303.0744.0003.0005.13-.0749Zm1.2175-.0733-.075-.1299-.1298.075.0748.1298.13-.0749Zm1.5837 2.7489-.1299.0749.075.1301.13-.0751-.0751-.1299ZM31.366 13.2465l.1299-.0749-.075-.1302-.13.0752.0751.1299Zm1.5837 2.7489.0751.1298.1297-.0749-.0748-.1298-.13.0749ZM10.5026 30.0113a.3993.3993 0 0 1-.3462-.2l-.2597.1502a.6992.6992 0 0 0 .6058.3498l.0001-.3Zm.1822-.0481c-.0508.0339-.1107.0481-.1823.0481v.3c.1116 0 .2348-.0225.3488-.0985l-.1665-.2496Zm23.2156-13.411L10.693 29.9581l.1501.2598L34.0504 16.812l-.15-.2598Zm.1864-.2386a.3922.3922 0 0 1-.1859.2383l.149.2604a.6924.6924 0 0 0 .3268-.4215l-.2899-.0772Zm-.0403-.3085c.0532.0931.0674.1998.0397.3107l.2911.0728c.0455-.1823.0231-.3688-.0702-.5323l-.2606.1488Zm-2.1327-3.7014 2.133 3.7019.26-.1498-2.133-3.7019-.26.1498Zm-.5448-.1471c.1916-.1125.4302-.0486.5454.148l.2588-.1516c-.1961-.3349-.6166-.4543-.956-.2552l.1518.2588ZM8.17 25.563l23.1982-13.4059-.1501-.2598-23.1982 13.406.1501.2597Zm-.1864.2386a.3921.3921 0 0 1 .1858-.2383l-.149-.2604a.692.692 0 0 0-.3267.4215l.2899.0772Zm.0402.3085c-.0531-.0931-.0674-.1998-.0396-.3107l-.2911-.0728c-.0455.1823-.0231.3688.0702.5323l.2605-.1488Zm2.1327 3.7014-2.133-3.7019-.26.1498 2.133 3.7019.26-.1498Zm-1.1754-3.6254 1.5838 2.7489.2599-.1498-1.5837-2.7489-.26.1498ZM31.291 13.1166 9.036 25.9813l.1502.2598L31.441 13.3763l-.1501-.2597Zm1.7888 2.8039-1.5838-2.7489-.2599.1498 1.5837 2.7488.26-.1497ZM10.7699 28.99l22.2549-12.8648-.1502-.2597-22.2548 12.8647.1501.2598Z"/><path fill="#9336FD" fill-rule="evenodd" d="M28.107 42.7511c.6866 1.4936 2.2246 2.4191 4.0097 2.4191h.0001c.8697 0 1.7211-.2199 2.4534-.6506 1.1718-.678 2.0415-1.8692 2.3253-3.1887.2563-1.1821.0366-2.3549-.6317-3.2895l-5.3097-7.4955c-.1648-.229-.4761-.2932-.7232-.1557l-5.7217 3.3078c-.2471.1466-.3478.449-.2288.7056l3.8266 8.3475Zm1.007-.4585-3.616-7.8894 4.861-2.813 5.0168 7.0831c.4852.6781.65 1.5394.4577 2.419-.2197 1.0263-.8972 1.9517-1.8035 2.474-.5675.3299-1.2267.504-1.9041.504-1.3549 0-2.5084-.6781-3.0119-1.7777Z" clip-rule="evenodd"/><path fill="#9336FD" d="m32.1167 45.1702.017-.149-.0084-.001h-.0086v.15Zm-4.0097-2.4191-.1363.0626v.0001l.1363-.0627Zm4.0098 2.4191-.017.149.0085.001h.0085v-.15Zm2.4534-.6506-.0751-.1298-.0009.0005.076.1293Zm2.3253-3.1887-.1466-.0318-.0001.0003.1467.0315Zm-.6317-3.2895-.1224.0867.0004.0005.122-.0872Zm-5.3097-7.4955.1224-.0867-.0007-.0008-.1217.0875Zm-.7232-.1557-.0729-.1311-.0022.0012.0751.1299Zm-5.7217 3.3078-.075-.1299-.0015.0009.0765.129Zm-.2288.7056.1363-.0625-.0002-.0007-.1361.0632Zm1.2176-.0004-.0752-.1298-.118.0683.0568.124.1364-.0625Zm3.616 7.8894.1364-.0624v-.0001l-.1364.0625Zm1.245-10.7024.1224-.0867-.0791-.1117-.1184.0686.0751.1298Zm5.0168 7.0831-.1224.0867.0004.0006.122-.0873Zm.4577 2.419-.1465-.032-.0002.0006.1467.0314Zm-1.8035 2.474-.0749-.1299-.0004.0002.0753.1297Zm-1.9133 1.4539c-1.7332 0-3.2139-.8972-3.8734-2.3317l-.2726.1253c.7138 1.5526 2.309 2.5064 4.146 2.5064v-.3Zm.0171.001h-.0001l-.0339.298.034-.298Zm2.3604-.6309c-.7079.4163-1.5327.6299-2.3774.6299v.3c.8947 0 1.7726-.2262 2.5295-.6713l-.1521-.2586Zm2.2546-3.0909c-.2748 1.2778-1.1183 2.4335-2.2537 3.0904l.1502.2597c1.2083-.6991 2.1041-1.9259 2.3968-3.287l-.2933-.0631Zm-.607-3.1708c.6418.8975.8551 2.0265.6071 3.1705l.2932.0636c.2645-1.2202.0385-2.4369-.6563-3.4086l-.244.1745Zm-5.3101-7.496 5.3097 7.4955.2448-.1735-5.3097-7.4954-.2448.1734Zm-.5279-.1113c.1831-.1018.4098-.0528.5285.1122l.2435-.1751c-.2108-.2932-.6066-.3724-.9178-.1993l.1458.2622Zm-5.7195 3.3066 5.7216-3.3079-.1501-.2597-5.7216 3.3078.1501.2598Zm-.1678.5125c-.0849-.1829-.0153-.4039.1693-.5134l-.1531-.258c-.3097.1837-.4415.5675-.2884.8977l.2722-.1263Zm3.8269 8.3482-3.8267-8.3475-.2727.125 3.8267 8.3476.2727-.1251Zm-2.8818-8.2229 3.6161 7.8894.2727-.125-3.6161-7.8894-.2727.125Zm4.9223-3.0053-4.8611 2.813.1503.2597 4.861-2.8131-.1502-.2596Zm5.2143 7.1262-5.0168-7.0831-.2448.1734 5.0168 7.0831.2448-.1734Zm.4819 2.5377c.2005-.9177.0295-1.823-.4823-2.5383l-.244.1746c.4586.6408.6171 1.4581.4332 2.2997l.2931.064Zm-1.8752 2.572c.9429-.5434 1.6466-1.5046 1.8753-2.5726l-.2934-.0628c-.2107.9845-.862 1.8743-1.7317 2.3755l.1498.2599Zm-1.979.524c.7029 0 1.3882-.1806 1.9795-.5243l-.1507-.2594c-.5439.3161-1.1769.4837-1.8288.4837v.3Zm-3.1483-1.8652c.5316 1.1609 1.744 1.8652 3.1483 1.8652v-.3c-1.3055 0-2.4001-.6518-2.8755-1.6901l-.2728.1249Z"/><path fill="#9336FD" fill-rule="evenodd" d="M30.2948 41.4874c.3936.6689 1.1168 1.0904 1.895 1.0904.3754 0 .7507-.1008 1.0894-.2932.5035-.2932.8697-.7697 1.0162-1.3286.1465-.5681.0732-1.1546-.2197-1.6585-.3936-.669-1.1169-1.0905-1.895-1.0905-.3754 0-.7508.1008-1.0895.2932-1.0345.6047-1.3915 1.9426-.7964 2.9872Zm1.3457-2.0342c.1648-.1008.3479-.1466.5402-.1466.3845 0 .7507.2108.9429.5406.1465.2566.1831.5498.1099.8247-.0733.2841-.2564.5131-.5035.6598-.1648.1007-.3479.1466-.5402.1466-.3845 0-.7507-.2108-.9429-.5407-.3021-.5223-.119-1.182.3936-1.4844Z" clip-rule="evenodd"/><path fill="#9336FD" d="M32.1898 42.5778v.15-.15Zm-1.895-1.0904-.1304.0742.0011.0019.1293-.0761Zm2.9844.7972.0741.1304.0014-.0008-.0755-.1296Zm1.0162-1.3286.1451.038.0002-.0006-.1453-.0374Zm-.2197-1.6585.1297-.0754-.0004-.0007-.1293.0761Zm-2.9845-.7973-.0741-.1304-.0016.001.0757.1294Zm1.0895.8064h.15v-.15h-.15v.15Zm-.5402.1466.0763.1292.002-.0012-.0783-.128Zm.5402-.1466h-.15v.15h.15v-.15Zm.9429.5406.1303-.0743-.0007-.0012-.1296.0755Zm.1099.8247-.145-.0386-.0003.0012.1453.0374Zm-.5035.6598-.0766-.1291-.0017.0011.0783.128Zm-1.4831-.3941-.1299.0751.0003.0005.1296-.0756Zm.9429 1.4902c-.724 0-1.3986-.3925-1.7657-1.0165l-.2586.1522c.4201.7139 1.192 1.1643 2.0243 1.1643v-.3Zm1.0153-.2736c-.3169.18-.6668.2736-1.0153.2736v.3c.4022 0 .803-.108 1.1635-.3128l-.1482-.2608Zm.9452-1.2362c-.1362.5196-.4768.9634-.9466 1.237l.151.2592c.5373-.3129.929-.8219 1.0858-1.4202l-.2902-.076Zm-.2043-1.5451c.2724.4685.3412 1.0142.2042 1.5456l.2905.0749c.1559-.6047.0782-1.2319-.2353-1.7713l-.2594.1508Zm-1.7653-1.0159c.724 0 1.3985.3926 1.7657 1.0165l.2586-.1521c-.4201-.7139-1.1921-1.1644-2.0243-1.1644v.3Zm-1.0154.2737c.317-.1801.6669-.2737 1.0154-.2737v-.3c-.4023 0-.8031.108-1.1636.3128l.1482.2609Zm-.7402 2.7824c-.5546-.9735-.2214-2.2203.7418-2.7834l-.1514-.2589c-1.1057.6463-1.4866 2.0751-.8511 3.1908l.2607-.1485Zm1.7556-2.2565c-.2168 0-.4276.0519-.6184.1686l.1565.256c.1387-.0849.2942-.1246.4619-.1246v-.3Zm.15.15h-.3.3Zm.9225.4651c-.2192-.3761-.6348-.6151-1.0725-.6151v.3c.3312 0 .648.1825.8133.4662l.2592-.1511Zm.1252.9388c.0835-.3132.0414-.647-.1245-.9376l-.2605.1487c.127.2225.1581.4752.0951.7117l.2899.0772Zm-.5719.7502c.2787-.1653.4883-.426.5722-.7513l-.2905-.0749c-.0626.2428-.2191.4402-.4348.5681l.1531.2581Zm-.6167.1676c.2168 0 .4276-.052.6184-.1687l-.1565-.2559c-.1387.0849-.2941.1246-.4619.1246v.3Zm-1.0725-.6151c.2192.3761.6348.6151 1.0725.6151v-.3c-.3312 0-.648-.1825-.8133-.4662l-.2592.1511Zm.447-1.6892c-.5821.3434-.7914 1.0937-.4473 1.6887l.2597-.1502c-.26-.4496-.1032-1.0187.34-1.2801l-.1524-.2584Z"/><path fill="#9336FD" fill-rule="evenodd" d="M23.0175 34.7245c.1648.3024.4852.4857.8239.4857.1739 0 .3387-.0459.476-.1192l7.1956-4.16c.2289-.1283.3845-.339.4486-.5864.0732-.2474.0366-.504-.0916-.7239l-.8879-1.5485c-.174-.2932-.4852-.4765-.824-.4765-.1647 0-.3295.0458-.476.1283l-7.2047 4.16c-.4577.2657-.6134.8521-.3479 1.3011l.888 1.5394Zm.8789-.6689-.7416-1.292 6.9484-4.0134.7416 1.292-6.9484 4.0134Z" clip-rule="evenodd"/><path fill="#9336FD" d="M23.8414 35.2102v.15l.0373-.2953-.0373.1453Zm-.8239-.4857.1317-.0718-.0018-.0031-.1299.0749Zm.8239.4857v-.15l-.0372.2953.0372-.1453Zm.476-.1192.0707.1324.0044-.0025-.0751-.1299Zm7.1956-4.16-.0734-.1308-.0017.001.0751.1298Zm.4486-.5864-.1439-.0426-.0013.005.1452.0376Zm-.0916-.7239-.1301.0746.0005.0009.1296-.0755Zm-.8879-1.5485.1301-.0746-.0011-.0019-.129.0765Zm-1.3-.3482-.0736-.1307-.0014.0008.075.1299Zm-7.2047 4.16-.075-.1299-.0003.0002.0753.1297Zm-.3479 1.3011.13-.0749-.0009-.0014-.1291.0763Zm1.0253-.4215-.075-.1298-.1295.0748.0744.1297.1301-.0747Zm.7416 1.292-.1301.0747.0748.1305.1303-.0753-.075-.1299Zm6.2068-5.3054.1301-.0746-.0749-.1305-.1302.0752.075.1299Zm.7416 1.292.075.1299.1295-.0748-.0745-.1297-.13.0746Zm-7.0034 5.018c-.2854 0-.5544-.1547-.6922-.4075l-.2634.1436c.1918.352.5636.5639.9556.5639v-.3Zm-.0372.2953.0745-.2906h-.0001l-.0744.2906Zm.4426-.3968a.8672.8672 0 0 1-.4054.1015v.3c.1999 0 .3889-.0526.5467-.1368l-.1413-.2647Zm7.1911-4.1575-7.1955 4.16.1501.2597 7.1956-4.16-.1502-.2597Zm.3785-.4942c-.0543.2095-.1851.3857-.3767.4932l.1466.2617c.2661-.1491.4466-.3945.5205-.6797l-.2904-.0752Zm-.076-.6108c.1085.1861.1382.4001.0773.6058l.2877.0852c.0856-.2892.0421-.5883-.1058-.842l-.2592.151Zm-.8885-1.5494.888 1.5485.2602-.1492-.8879-1.5485-.2603.1492Zm-.6938-.4011c.2838 0 .547.1536.6949.403l.2581-.153c-.2-.3371-.5593-.55-.953-.55v.3Zm-.4024.109c.1256-.0707.2652-.109.4024-.109v-.3c-.1923 0-.3823.0534-.5496.1476l.1472.2614Zm-7.2033 4.1592 7.2047-4.16-.15-.2598-7.2047 4.16.15.2598Zm-.2938 1.0949c-.2223-.376-.0929-.8704.2941-1.0951l-.1506-.2594c-.5285.3068-.7103.9852-.4017 1.5072l.2582-.1527Zm.8888 1.5408-.8879-1.5394-.2599.1499.888 1.5394.2598-.1499Zm-.1227-1.8113.7416 1.292.2601-.1493-.7415-1.292-.2602.1493Zm7.0035-4.218-6.9484 4.0135.15.2597 6.9484-4.0134-.15-.2598Zm.9466 1.3473-.7415-1.292-.2602.1493.7416 1.292.2601-.1493Zm-7.0034 4.2179 6.9484-4.0134-.1501-.2597-6.9484 4.0134.1501.2597Z"/><path fill="#9336FD" fill-rule="evenodd" d="M6.0167 22.9774c.3662.6322 1.0436 1.0079 1.8126 1.0079l-.0001-.0004c.4028 0 .8056-.11 1.1718-.3207.531-.3025.9246-.8064 1.0802-1.3837.1465-.5406.0733-1.0904-.1922-1.5485a208.0774 208.0774 0 0 0-.8563-1.4517c-.0882-.1484-.1687-.284-.2423-.4084h.055c.3845 0 .7507-.1008 1.0894-.2932a2.3707 2.3707 0 0 0 .833-.8155l.2564.4398c.3662.6322 1.0436 1.0079 1.8126 1.0079.4027 0 .7964-.11 1.1534-.3116.9429-.5497 1.364-1.6493 1.0345-2.5931.4028 0 .8056-.11 1.1626-.3115.3662-.22.6592-.5132.8514-.8522.3846.4581.9613.7147 1.6021.7147.412 0 .8057-.11 1.1627-.3115.5309-.3025.9246-.8064 1.0802-1.3837.1465-.5315.0733-1.0812-.1922-1.5394l-1.1993-2.0709c.3937-.0091.7782-.1099 1.126-.3115.4303-.2474.7507-.623.943-1.0354.3387.229.7507.3482 1.1901.3482.4028 0 .7965-.11 1.1535-.3116.0091-.0091.0206-.016.032-.0229a.1626.1626 0 0 0 .0321-.0229c.4943-.3024.8605-.788 1.007-1.3378.1464-.5315.0732-1.0812-.1923-1.5394l-.4028-.6872c.3936 0 .7781-.11 1.126-.3116 1.0619-.614 1.4556-1.9243.8789-2.923L25.2596.4448a.5414.5414 0 0 0-.3295-.2565c-.1465-.0367-.293-.0184-.4211.055l-2.9021 1.6676-2.0231 1.1729c-.174.1008-.2838.2932-.2747.4948l.0549 1.6951-1.4372-.8888c-.174-.11-.3937-.11-.5676-.0091L1.2746 13.6674c-.1281.0733-.2197.1833-.2563.3299-.0366.1466-.0183.2932.055.4215l4.9434 8.5586Zm.9612-.5588-4.6688-8.0818 15.2972-8.833 2.0323 1.2553c.1739.11.3936.11.5675.0091.174-.1007.2838-.2932.2747-.4947l-.0733-2.3916 4.1654-2.41.8514 1.4753c.2747.4673.0641 1.1087-.476 1.4202-.1923.11-.4028.165-.6134.165-.3753 0-.6957-.165-.8605-.4582-.1556-.2657-.4852-.3573-.7507-.2016-.2655.1467-.357.4857-.2014.7514l1.3 2.245c.119.2016.1464.4581.0824.7055-.0733.2933-.2838.559-.5585.7148-.0183.0183-.0366.0274-.0549.0366a1.1984 1.1984 0 0 1-.5584.1374c-.3662 0-.6958-.174-.8606-.4673l-.3844-.6689c-.1557-.2657-.4853-.3573-.7507-.2016-.2655.1558-.3571.4857-.2014.7514.2746.4765.064 1.1179-.4761 1.4294-.1922.11-.4028.165-.6133.165-.3662 0-.6958-.1741-.8605-.4673-.1557-.2658-.4852-.3574-.7507-.2016-.2655.1466-.3571.4856-.2014.7513l2.0873 3.6194c.119.2016.1464.4582.0824.7056-.0824.2932-.2838.5498-.5676.7147-.1923.11-.4028.165-.6134.165-.3753 0-.6957-.1742-.8605-.4582l-.7049-1.2278c-.1556-.2658-.4852-.3574-.7507-.2016s-.357.4856-.2014.7514c.2747.4764.0641 1.1178-.476 1.4294a1.2334 1.2334 0 0 1-.6134.1649c-.3753 0-.6957-.1741-.8605-.4582-.1556-.2657-.4852-.3573-.7507-.2015-.2655.1557-.357.4856-.2014.7513l.7049 1.2279c.2655.4764.055 1.1178-.4852 1.4294-.1831.1099-.3936.1649-.6042.1649-.3661 0-.6957-.1741-.8605-.4673l-1.1535-1.9976c-.1556-.2657-.4852-.3573-.7506-.2016-.2655.1558-.357.4857-.2014.7514.119.2016.1464.4582.0824.7056-.0733.2932-.2839.5589-.5585.7147-.174.1008-.3479.1466-.5401.1466-.2655 0-.5127-.1008-.6866-.1741-.1373-.0642-.2563-.11-.4028-.11-.2106 0-.4028.11-.5035.2933-.1665.2981-.0227.5711.0783.7627.0045.0086.009.017.0132.0253.0565.1067.1388.2436.2498.4284.051.0848.108.1796.1714.2863.2837.4582.659 1.0904 1.1809 1.9976.119.2015.1464.4581.0824.7055-.0824.2932-.2838.5498-.5676.7147-.1923.11-.4028.165-.6134.165-.3753 0-.6957-.165-.8605-.4582Z" clip-rule="evenodd"/><path fill="#9336FD" d="M7.8293 23.9853v.15h.186l-.0394-.1818-.1466.0318Zm-1.8126-1.0079-.1299.075.0001.0002.1298-.0752Zm1.8125 1.0075v-.15h-.1861l.0395.1818.1466-.0318Zm1.1718-.3207-.0742-.1304-.0006.0004.0748.13Zm1.0802-1.3837-.1448-.0392v.0002l.1448.039ZM9.889 20.732l.1298-.0752-.0003-.0004-.1295.0756Zm-.8563-1.4517-.129.0766.129-.0766Zm-.2423-.4084v-.15h-.263l.1339.2263.1291-.0763Zm1.1444-.2932.0741.1304.0011-.0006-.0752-.1298Zm.833-.8155.1296-.0756-.1266-.2172-.131.2146.128.0782Zm.2564.4398.1298-.0752-.0002-.0003-.1296.0755Zm2.966.6963.0738.1307.0018-.0011-.0756-.1296Zm1.0345-2.5931v-.15h-.2113l.0697.1995.1416-.0495Zm1.1626-.3115.0738.1306.0035-.002-.0773-.1286Zm.8514-.8522.1149-.0964-.1388-.1655-.1065.1879.1304.074Zm2.7648.4032.0737.1306.0005-.0003-.0742-.1303Zm1.0802-1.3837-.1446-.0399-.0002.0009.1448.039Zm-.1922-1.5394-.1298.0752.1298-.0752Zm-1.1993-2.0709-.0035-.1499-.2532.0059.1269.2192.1298-.0752Zm1.126-.3115-.0747-.1301-.0005.0003.0752.1298Zm.943-1.0354.084-.1243-.1456-.0985-.0744.1594.136.0634Zm2.3436.0366.0737.1306.0179-.01.0145-.0146-.1061-.106Zm.032-.0229.0772.1286h.0001l-.0773-.1286Zm.0321-.0229-.0783-.128-.0152.0094-.0127.0126.1062.106Zm1.007-1.3378-.1447-.0399-.0003.0013.145.0386Zm-.1923-1.5394.1298-.0752-.0004-.0007-.1294.0759Zm-.4028-.6872v-.15h-.2618l.1324.2258.1294-.0758Zm1.126-.3116-.0751-.1299-.0001.0001.0752.1298Zm.8789-2.923-.13.075h.0001l.1299-.075ZM25.2596.4448l-.1302.0744.0003.0006.1299-.075Zm-.3295-.2565.0387-.145-.0023-.0006-.0364.1456Zm-.4211.055L24.4345.113l-.0003.0002.0748.13Zm-2.9021 1.6676-.0747-.13-.0005.0002.0752.1298Zm-2.0231 1.1729.0752.1297-.0752-.1297Zm-.2747.4948.15-.0049-.0001-.002-.1499.0069Zm.0549 1.6951-.0788.1276.2378.147-.009-.2795-.15.0049Zm-1.4372-.8888-.0802.1268.0013.0008.0789-.1276Zm-.5676-.0091.075.1298h.0002l-.0752-.1299ZM1.2746 13.6674l.0745.1302.0006-.0003-.075-.1299Zm-.2563.3299-.1455-.0364.1455.0364Zm.055.4215-.1303.0744.0004.0006.1298-.075Zm1.2358-.082-.075-.1299-.13.075.075.1299.13-.075Zm4.6688 8.0818.1308-.0735-.001-.0015-.1298.075ZM17.6063 5.5038l.0788-.1276-.0763-.0471-.0776.0448.0751.1299Zm2.0323 1.2553.0801-.1268-.0013-.0008-.0788.1276Zm.5675.0091.0753.1298-.0753-.1297Zm.2747-.4947-.15.0045.0001.0023.1499-.0069Zm-.0733-2.3916-.0751-.1299-.0775.045.0027.0895.1499-.0046Zm4.1654-2.41.13-.075-.0751-.13-.13.0752.0751.1299Zm.8514 1.4753-.1299.075.0006.001.1293-.076Zm-.476 1.4202.0745.1303.0004-.0003-.0749-.13Zm-1.4739-.2932.1308-.0735-.0014-.0023-.1294.0758Zm-.7507-.2016.0726.1314.0033-.002-.0759-.1294Zm-.2014.7514.1298-.0751-.0003-.0007-.1295.0758Zm1.3 2.245-.1298.0751.0006.0011.1292-.0762Zm.0824.7055-.1453-.0376-.0003.0013.1456.0363Zm-.5585.7148-.074-.1305-.0177.01-.0144.0144.1061.106Zm-.0549.0366-.0672-.1342-.0027.0015.0699.1327Zm-1.419-.3299.1308-.0735-.0007-.0012-.1301.0747Zm-.3844-.6689.13-.0747-.0006-.001-.1294.0757Zm-.7507-.2016.0759.1294-.0759-.1294Zm-.2014.7514.1299-.0749-.0005-.0009-.1294.0758Zm-.4761 1.4294.0745.1302.0005-.0003-.075-.1299Zm-1.4738-.3024.1307-.0735-.0013-.0023-.1294.0758Zm-.7507-.2015.0725.1313.0034-.002-.0759-.1293Zm-.2014.7513.1299-.0749-.0005-.0009-.1294.0758Zm2.0873 3.6194-.13.075.0008.0013.1292-.0763Zm.0824.7056.1444.0406.0008-.003-.1452-.0376Zm-.5676.7147.0745.1302.0009-.0005-.0754-.1297Zm-1.4739-.2932-.1301.0747.0004.0006.1297-.0753Zm-.7049-1.2278.1301-.0747-.0007-.0011-.1294.0758Zm-.7507-.2016.0759.1294-.0759-.1294Zm-.2014.7514.13-.075-.0006-.0008-.1294.0758Zm-.476 1.4294.0744.1302.0005-.0003-.0749-.1299Zm-1.4739-.2933.1297-.0752-.0003-.0006-.1294.0758Zm-.7507-.2015.0759.1293-.0759-.1293Zm-.2014.7513.1301-.0747-.0006-.0011-.1295.0758Zm.7049 1.2279.1311-.0731-.001-.0016-.1301.0747Zm-.4852 1.4294-.0749-.13-.0023.0014.0772.1286Zm-1.4647-.3024.1308-.0735-.0009-.0015-.1299.075Zm-1.1535-1.9976.1299-.075-.0004-.0008-.1295.0758Zm-.952.5498-.1295.0758.0003.0005.1292-.0763Zm.0824.7056-.1453-.0377-.0003.0013.1456.0364Zm-.5585.7147-.074-.1305-.0012.0007.0752.1298Zm-1.2267-.0275-.0635.136.0052.0022.0583-.1382Zm-.9063.1833.131.0731.0005-.0009-.1315-.0722Zm.0783.7627.1327-.0699-.1327.0699Zm.0132.0253-.1329.0695.0004.0006.1325-.0701Zm.2498.4284.1286-.0773-.1286.0773Zm.1714.2863-.129.0766.0014.0024.1276-.079Zm1.1809 1.9976-.13.0748.0008.0014.1292-.0762Zm.0824.7055.1444.0406.0008-.003-.1452-.0376Zm-.5676.7147.0745.1302.0008-.0005-.0753-.1297Zm-.6225 1.1235c-.7192 0-1.3452-.3503-1.6828-.9331l-.2596.1504c.3948.6816 1.1236 1.0827 1.9424 1.0827v-.3Zm-.1467.1814.0001.0005.2932-.0637-.0001-.0005-.2932.0637Zm1.2436-.4825c-.3445.1982-.7217.3007-1.097.3007v.3c.4303 0 .8587-.1175 1.2466-.3407l-.1496-.26Zm1.0102-1.2927c-.145.5376-.5126 1.0092-1.0097 1.2923l.1485.2607c.5648-.3217.9845-.8581 1.1508-1.4749l-.2896-.0781Zm-.1772-1.4343c.2449.4227.3135.9312.1772 1.4341l.2896.0784c.1567-.5783.0788-1.1693-.2072-1.6629l-.2596.1504Zm-.8555-1.4503c.2302.3874.5119.8616.8557 1.4507l.2591-.1512a205.9943 205.9943 0 0 0-.8568-1.4527l-.258.1532Zm-.2424-.4087c.0736.1246.1543.2603.2424.4087l.258-.1532c-.0882-.1485-.1687-.2839-.2422-.4082l-.2582.1527Zm.184-.2263h-.0549v.3h.055v-.3Zm1.0154-.2737c-.3173.1803-.658.2737-1.0154.2737v.3c.4118 0 .8034-.1082 1.1636-.3128l-.1482-.2609Zm.7791-.7632a2.2188 2.2188 0 0 1-.7802.7639l.1504.2596a2.5215 2.5215 0 0 0 .8859-.8672l-.2561-.1563Zm.514.4425-.2564-.4399-.2592.1511.2564.4398.2592-.151Zm1.683.9334c-.7192 0-1.3453-.3503-1.6828-.9331l-.2596.1504c.3948.6816 1.1235 1.0827 1.9424 1.0827v-.3Zm1.0797-.2922c-.3362.1898-.7046.2922-1.0797.2922v.3c.4304 0 .8493-.1176 1.2272-.3309l-.1475-.2613Zm.9666-2.413c.304.8707-.0826 1.8976-.9684 2.4141l.1511.2591c.9999-.583 1.4556-1.7552 1.1005-2.7721l-.2832.0989Zm1.2305-.4917c-.3356.1895-.7132.2922-1.0889.2922v.3c.4299 0 .858-.1173 1.2364-.3309l-.1475-.2613Zm.7947-.7955c-.1783.3144-.452.5896-.7982.7976l.1545.2572c.3861-.232.6984-.5432.9046-.9068l-.2609-.148Zm1.7325.6387c-.6003 0-1.1335-.2398-1.4872-.6611l-.2298.1928c.4154.4949 1.0357.7683 1.717.7683v-.3Zm1.0889-.2922c-.3358.1897-.7043.2922-1.0889.2922v.3c.4394 0 .8583-.1174 1.2364-.3309l-.1475-.2613Zm1.0092-1.292c-.145.5376-.5126 1.0092-1.0096 1.2923l.1484.2607c.5649-.3217.9845-.8581 1.1509-1.475l-.2897-.078Zm-.1772-1.4252c.2451.423.3133.9313.1774 1.4243l.2892.0798c.1571-.57.0788-1.1612-.207-1.6545l-.2596.1504Zm-1.1993-2.0709 1.1993 2.0709.2596-.1504-1.1993-2.0708-.2596.1503Zm1.1806-.5165c-.3247.1881-.6842.2828-1.0543.2914l.007.2999c.4173-.0097.8267-.1167 1.1977-.3317l-.1504-.2596Zm.8822-.969c-.1803.3868-.4804.738-.8817.9687l.1495.2601c.4593-.264.8-.6641 1.0041-1.102l-.2719-.1268Zm1.3261.2616c-.4123 0-.7944-.1117-1.1061-.3225l-.168.2485c.3658.2474.8076.374 1.2741.374v-.3Zm1.0797-.2922c-.3361.1898-.7046.2922-1.0797.2922v.3c.4305 0 .8493-.1176 1.2272-.331l-.1475-.2612Zm.0286-.0209c-.0083.005-.0364.021-.0609.0455l.2122.212c-.0041.0041-.0069.006-.0062.0055l.0027-.0017c.0017-.0011.0036-.0023.0066-.004l-.1544-.2573Zm.0031-.0003c.0041-.004.007-.006.0062-.0054a.0251.0251 0 0 1-.0027.0017l-.0066.004.1545.2572c.0083-.005.0364-.021.0609-.0455l-.2123-.212Zm.9682-1.2704c-.1363.5116-.478.9656-.9403 1.2485l.1565.2559c.5264-.322.9171-.8393 1.0737-1.4272l-.2899-.0772Zm-.1771-1.4256c.2451.423.3133.9313.1774 1.4243l.2893.0797c.157-.5699.0787-1.1611-.2071-1.6544l-.2596.1504Zm-.4024-.6866.4028.6872.2588-.1517-.4028-.6872-.2588.1517Zm1.1802-.5172c-.3268.1894-.6855.2914-1.0508.2914v.3c.422 0 .8322-.118 1.2012-.3318l-.1504-.2596Zm.8242-2.7182c.531.9197.1738 2.1412-.8241 2.7182l.1502.2597c1.126-.651 1.5561-2.05.9337-3.128l-.2598.15ZM25.1297.5198l1.126 1.9517.2599-.1499-1.126-1.9517-.2599.1499Zm-.2383-.1866a.3919.3919 0 0 1 .238.186l.2605-.1488a.6914.6914 0 0 0-.4211-.327l-.0774.2898Zm-.308.0402c.093-.0531.1995-.0674.3103-.0396l.0728-.291c-.1822-.0457-.3686-.0232-.532.0702l.1489.2604ZM21.6817 2.041l2.902-1.6676-.1495-.2601-2.902 1.6676.1495.2601ZM19.659 3.2135l2.0232-1.1728-.1505-.2596-2.0232 1.1729.1505.2595Zm-.2.3583c-.0065-.1434.0724-.2843.2-.3583l-.1505-.2595c-.2203.1276-.361.3716-.3492.6314l.2997-.0136Zm.055 1.697-.055-1.6951-.2998.0097.0549 1.6951.2999-.0097Zm-1.6661-.7563 1.4373.8888.1577-.2552-1.4372-.8888-.1578.2552Zm-.4135-.007c.1272-.0737.287-.073.4122.0062l.1603-.2536c-.2226-.1407-.5022-.14-.7229-.0121l.1504.2595ZM1.3497 13.7973l16.0845-9.2917-.1501-.2597-16.0845 9.2916.15.2598Zm-.1859.2363c.0257-.1026.0885-.1806.1853-.236l-.149-.2604c-.1595.0913-.2797.2331-.3273.4237l.291.0727Zm.0397.3108c-.0531-.0931-.0674-.1998-.0397-.3108l-.291-.0727c-.0455.1823-.0232.3688.0702.5323l.2605-.1488Zm4.943 8.558-4.9434-8.5586-.2598.15 4.9435 8.5586.2598-.15Zm-3.9673-8.4906 4.6688 8.0818.2598-.15-4.6688-8.0819-.2598.1501Zm15.352-9.038L2.2341 14.207l.15.2598 15.2972-8.833-.1501-.2598Zm2.1862 1.2577-2.0323-1.2553-.1577.2552 2.0323 1.2553.1577-.2552Zm.4135.007a.3992.3992 0 0 1-.4122-.0062l-.1603.2536c.2226.1407.5023.14.723.0121l-.1505-.2595Zm.2-.3582c.0066.1433-.0724.2842-.2.3582l.1505.2595c.2203-.1276.361-.3716.3492-.6314l-.2997.0136Zm-.0733-2.3938.0733 2.3915.2998-.0091-.0732-2.3916-.2999.0092Zm4.2402-2.5444-4.1654 2.41.1503.2596 4.1654-2.41-.1503-.2596Zm1.0564 1.5301-.8513-1.4752-.2599.15.8514 1.4752.2598-.15Zm-.531 1.6252c.5963-.344.8561-1.072.5304-1.6262l-.2586.152c.2236.3804.0623.9351-.4217 1.2143l.1499.2599Zm-.6883.185c.2369 0 .4731-.062.6879-.1848l-.149-.2604a1.0826 1.0826 0 0 1-.5389.1452v.3Zm-.9913-.5347c.1962.349.5723.5347.9913.5347v-.3c-.3316 0-.5963-.1442-.7297-.3817l-.2616.147Zm-.544-.1457c.1916-.1124.4302-.0486.5454.148l.2588-.1516c-.1961-.3348-.6166-.4543-.956-.2551l.1518.2587Zm-.1478.5462c-.1139-.1944-.0458-.4392.1444-.5442l-.145-.2627c-.3407.1882-.4557.6215-.2583.9585l.2589-.1516Zm1.3003 2.2456-1.3-2.245-.2596.1504 1.3 2.245.2596-.1504Zm.0978.8183c.0726-.2803.0436-.5787-.0985-.8194l-.2583.1525c.096.1626.1219.3772.0664.5917l.2904.0752Zm-.6297.8076c.3074-.1743.546-.4726.63-.8088l-.2911-.0727c-.0625.2502-.245.4834-.4869.6206l.148.261Zm-.0618.0403c.0184-.0091.0567-.0275.0939-.0647l-.2122-.212c-.0001 0-.0001 0 0 0l-.0009.0006-.0046.0026a.673.673 0 0 1-.0104.0053l.1342.2682Zm-.6255.1533c.216 0 .4323-.0514.6283-.1547l-.1398-.2654c-.1519.08-.32.1202-.4885.1202v.3Zm-.9913-.5438c.1952.3474.5792.5439.9913.5439v-.3c-.3204 0-.5954-.1518-.7298-.3908l-.2615.147Zm-.3838-.6676.3845.6689.2601-.1495-.3845-.669-.2601.1496Zm-.5447-.147c.1916-.1124.4302-.0486.5453.148l.2589-.1516c-.1961-.3348-.6167-.4543-.956-.2551l.1518.2587Zm-.1479.5462c-.1124-.192-.0485-.431.1479-.5462l-.1518-.2587c-.3346.1963-.4538.617-.255.9565l.2589-.1516Zm-.5305 1.6351c.5973-.3445.855-1.0722.531-1.6342l-.2599.1498c.2254.391.0619.946-.421 1.2246l.1499.2599Zm-.6883.185c.2369 0 .4731-.0618.6878-.1847l-.1489-.2604a1.0829 1.0829 0 0 1-.5389.1452v.3Zm-.9913-.5438c.1952.3474.5793.5439.9913.5439v-.3c-.3204 0-.5954-.1518-.7298-.3908l-.2615.147Zm-.544-.1457c.1916-.1124.4302-.0486.5453.148l.2589-.1516c-.1961-.3348-.6167-.4542-.956-.2551l.1518.2587Zm-.1479.5462c-.1138-.1944-.0457-.4392.1445-.5442l-.145-.2627c-.3408.1882-.4558.6215-.2584.9585l.2589-.1516Zm2.0878 3.6203-2.0873-3.6194-.2599.1499 2.0873 3.6194.2599-.1499Zm.0977.8181c.0726-.2803.0436-.5788-.0985-.8194l-.2583.1525c.096.1625.1219.3772.0664.5917l.2904.0752Zm-.6374.8068c.3155-.1834.543-.4709.6366-.8038l-.2888-.0812c-.0713.2535-.2465.4791-.4986.6256l.1508.2594Zm-.6888.1853c.2369 0 .4731-.062.6879-.1848l-.149-.2604a1.083 1.083 0 0 1-.5389.1452v.3Zm-.9902-.5329c.1951.3363.5688.5329.9902.5329v-.3c-.3292 0-.5963-.1517-.7307-.3835l-.2595.1506Zm-.7053-1.2285.7049 1.2279.2602-.1494-.7049-1.2278-.2602.1493Zm-.5447-.1468c.1916-.1125.4302-.0487.5454.148l.2588-.1516c-.1961-.3349-.6166-.4543-.956-.2552l.1518.2588Zm-.1479.5462c-.1124-.1921-.0485-.431.1479-.5462l-.1518-.2588c-.3346.1963-.4537.6171-.2549.9566l.2588-.1516Zm-.5305 1.6351c.5973-.3445.855-1.0723.5311-1.6343l-.2599.1499c.2253.3909.0619.946-.4211 1.2245l.1499.2599Zm-.6883.185c.2369 0 .4731-.0619.6878-.1847l-.1489-.2605a1.083 1.083 0 0 1-.5389.1452v.3Zm-.9902-.5329c.1951.3363.5688.5329.9902.5329v-.3c-.3292 0-.5963-.1517-.7308-.3834l-.2594.1505Zm-.5451-.1475c.1916-.1124.4302-.0486.5454.148l.2588-.1516c-.1961-.3348-.6166-.4543-.956-.2551l.1518.2587Zm-.1478.5462c-.1125-.192-.0485-.4309.1478-.5462l-.1518-.2587c-.3346.1963-.4537.6171-.2549.9565l.2589-.1516Zm.7055 1.229-.7049-1.2279-.2602.1494.7049 1.2278.2602-.1493Zm-.5403 1.634c.5975-.3447.8539-1.0713.5413-1.6324l-.2621.1461c.2183.3918.0536.948-.4291 1.2264l.1499.2599Zm-.6792.185c.2364 0 .4738-.0617.6815-.1864l-.1545-.2571c-.1586.0952-.3422.1435-.527.1435v.3Zm-.9913-.5438c.1952.3473.5793.5438.9913.5438v-.3c-.3203 0-.5954-.1517-.7297-.3908l-.2616.147Zm-1.1526-1.9961 1.1535 1.9976.2598-.15-1.1535-1.9976-.2598.15Zm-.5448-.1472c.1916-.1124.4301-.0486.5453.148l.2589-.1516c-.1961-.3348-.6167-.4543-.956-.2551l.1518.2587Zm-.148.5462c-.1124-.192-.0484-.431.148-.5462l-.1518-.2587c-.3346.1963-.4538.6171-.255.9565l.2589-.1516Zm.0983.819c.0726-.2803.0436-.5788-.0985-.8195l-.2583.1526c.096.1625.1219.3772.0663.5916l.2905.0753Zm-.6297.8075c.3074-.1743.546-.4726.63-.8088l-.291-.0727c-.0626.2502-.2451.4834-.487.6206l.148.2609Zm-.6141.1662c.2188 0 .4186-.0529.6153-.1668l-.1504-.2596c-.1512.0876-.2992.1264-.4649.1264v.3Zm-.7449-.1859c.1726.0727.4455.1859.7449.1859v-.3c-.2316 0-.453-.0885-.6283-.1623l-.1166.2764Zm-.3445-.0982c.1122 0 .2065.0338.3393.0959l.127-.2718c-.1418-.0662-.2856-.1241-.4663-.1241v.3Zm-.372.2155c.0733-.1335.214-.2155.372-.2155v-.3c-.2632 0-.507.138-.635.371l.263.1445Zm.0795.6206c-.1056-.2005-.2023-.4008-.08-.6197l-.262-.1463c-.2107.3774-.0197.7232.0766.9058l.2654-.1398Zm.0135.0256-.0135-.0256-.2654.1398.013.0249.2659-.1391Zm.2454.4207c-.112-.1863-.1917-.319-.2458-.4213l-.2652.1403c.0589.1113.1438.2524.2538.4355l.2572-.1545Zm.1717.287c-.0636-.1071-.1208-.2022-.1717-.287l-.2572.1545c.051.0848.1079.1794.171.2857l.258-.1532Zm1.182 1.9994c-.5222-.9078-.8985-1.5417-1.1834-2.0018l-.255.158c.2825.4562.657 1.0869 1.1784 1.9933l.26-.1495Zm.0976.8179c.0726-.2803.0436-.5788-.0985-.8194l-.2583.1525c.096.1625.122.3772.0663.5917l.2905.0752Zm-.6374.8068c.3155-.1834.543-.4709.6366-.8038l-.2889-.0812c-.0712.2535-.2464.4791-.4985.6256l.1508.2594Zm-.6888.1853a1.382 1.382 0 0 0 .6878-.1848l-.1489-.2604a1.0827 1.0827 0 0 1-.5389.1452v.3Zm-.9913-.5347c.1962.349.5723.5347.9913.5347v-.3c-.3316 0-.5963-.1442-.7297-.3817l-.2616.147Z"/></svg>
