<svg xmlns="http://www.w3.org/2000/svg" width="60" height="41" fill="none"><path fill="#9336FD" fill-rule="evenodd" d="M35.5302 30.5422c.0456 2.6724 2.2641 4.8452 4.9455 4.8452h.0863c1.3195-.0219 2.5509-.557 3.4682-1.5077.9182-.9503 1.4099-2.2017 1.3839-3.5228-.0506-2.671-2.2668-4.8452-5.0346-4.8452h-.0014c-1.3209.0233-2.5522.5611-3.4681 1.5118-.9141.9503-1.4045 2.2003-1.3798 3.5187Zm3.4063-1.5712c.3941-.4088.9242-.6405 1.5365-.6501h-.0001c1.1534 0 2.1076.9366 2.1295 2.0894.011.5693-.2004 1.1085-.5972 1.5187a2.1054 2.1054 0 0 1-1.4912.6487h-.0383c-1.1575 0-2.1144-.9357-2.135-2.0866-.0096-.5694.2018-1.11.5958-1.5201Z" clip-rule="evenodd"/><path fill="#9336FD" d="M32.711 8.754c-1.4514-.0004-2.6567-1.1838-2.6842-2.6386-.0274-1.483 1.1561-2.7121 2.6404-2.7404h.0014c1.5089 0 2.7156 1.1852 2.739 2.6428.0151.7134-.2511 1.395-.7511 1.9133-.4999.5187-1.1724.8106-1.8933.8225l-.0522.0004ZM9.9803 2.9888 9.9775.179 16.7768.17l.0041 2.8097-6.8006.0091ZM26.0715 37.3516l5.7843.0082-.0041 2.8097-5.7843-.0082.0041-2.8097ZM42.3955 6.125h6.6934v2.8098h-6.6934V6.125ZM32.7178 16.6094h5.787v2.8097h-5.787v-2.8097ZM24.6781 22.8574l2.812.0082-.0306 10.5345-2.812-.0082.0306-10.5345Z"/><path fill="#9336FD" fill-rule="evenodd" d="M13.9421 12.6644c.0652 2.2464 1.8788 4.0059 4.1278 4.0063l.1133-.0018c2.2733-.063 4.0717-1.9658 4.0105-4.2431-.0639-2.2464-1.8764-4.0059-4.2406-4.0059h-.0028c-2.2746.0644-4.0726 1.9681-4.0082 4.2445Zm2.8106-.0812c-.0206-.7262.5525-1.3347 1.3104-1.3553l-.0001-.0001c.7082 0 1.3003.573 1.32 1.2751.0205.7281-.5534 1.3376-1.2757 1.3572l-.0365.0009c-.7182-.0004-1.2966-.5615-1.3181-1.2778Z" clip-rule="evenodd"/><path fill="#9336FD" d="M11.1385 21.6615 0 21.6437l.0041-2.8097 11.1385.0173-.0041 2.8102ZM47.8856 12.6777l12.1148.0124-.0027 2.8097-12.1149-.0123.0028-2.8098ZM59.9989 24.1043c-1.5185 0-2.3093-.874-2.8325-1.4512-.4406-.4872-.5159-.5269-.7456-.5269-.2292 0-.305.0397-.7455.5256-.5233.5789-1.3126 1.4529-2.8326 1.4529-1.5199 0-2.3093-.8741-2.8325-1.4529-.4406-.4859-.5164-.5256-.7456-.5256-.2292 0-.305.0397-.7456.5256-.5232.5789-1.3125 1.4529-2.8325 1.4529V21.295c.2292 0 .3064-.0384.747-.5269.5218-.5776 1.3126-1.4517 2.8312-1.4517 1.5185 0 2.3094.8741 2.8313 1.4517.4405.4881.5172.5269.7469.5269.2292 0 .3064-.0384.7469-.5269.5219-.5776 1.3126-1.4517 2.8313-1.4517 1.5186 0 2.3093.8741 2.8325 1.4529.4406.4873.5164.5256.7456.5256l-.0003 2.8094ZM17.1344 29.0599c-1.519 0-2.3089-.8741-2.8317-1.453-.4406-.4872-.5164-.5255-.7455-.5255-.2288 0-.305.0383-.7447.5255-.5233.579-1.3131 1.453-2.833 1.453v-2.8098c.2292 0 .3054-.0383.7469-.5269.5224-.5775 1.3126-1.4516 2.8313-1.4516 1.519 0 2.3093.874 2.8325 1.4529.4406.4872.5164.5255.7447.5255.2301 0 .3054-.0383.7465-.5269.5232-.5775 1.313-1.4516 2.8317-1.4516v2.8097c-.2288 0-.3041.0384-.7447.5256-.5241.5793-1.3149 1.4529-2.8339 1.4529l-.0001.0002Z"/></svg>
