<svg xmlns="http://www.w3.org/2000/svg" width="45" height="46" fill="none"><path fill="#9336FD" fill-rule="evenodd" d="M45 .17h-2.6531l-3.937 3.9372L34.4714.17h-4.0555l-3.2754 3.2758L23.8666.17h-5.3047l6.5901 6.589L22.5005 9.41 13.2583.17H7.9559l6.5901 6.5896-2.6515 2.6515L2.6528.1699H.0008v2.6512l14.5434 14.5444-2.6504 2.6531L.0001 8.125v5.3044l3.9385 3.9373-3.9385 3.9385v5.3035l6.5897-6.5896 2.6515 2.6512L0 31.9116v5.3031l6.5897-6.59L9.24 33.2798 0 42.5184v2.6515h2.6512l3.9386-3.9385 3.9385 3.9385h2.7293l3.9374-3.9385 3.9389 3.9385h5.3028l-6.5882-6.59 2.6512-2.6512 9.2414 9.2412h5.3032l-6.5901-6.59 2.6551-2.6492 9.2387 9.2392h2.6515v-2.6515L30.4541 27.9731l2.6551-2.6492 11.8907 11.8915v-5.3046l-3.9385-3.9385 3.9385-3.9381V18.731l-6.5901 6.5908-2.6512-2.6515 9.2413-9.242V8.1255l-6.5901 6.59-2.6512-2.6515 9.2413-9.242L45 .17ZM17.1969 9.4111l7.9551 7.9547-2.6515 2.6523-7.9548-7.9551 2.6512-2.652Zm2.6523 13.2581-2.6523-2.6512-7.9548 7.954 2.652 2.6515 7.9551-7.9543Zm-7.9551 18.5606-2.652-2.6515 7.9548-7.9559 2.6519 2.6531-7.9547 7.9543Zm7.9558-13.259 7.9536 7.9562 2.6516-2.6508-7.9543-7.9559-2.6509 2.6505Zm7.9536-2.6507-2.6512-2.6515 7.9559-7.9547 2.6516 2.6513-7.9563 7.9549Zm-2.6512-13.2574 2.6512 2.6515 7.9563-7.955-2.6516-2.6512-7.9559 7.9547Z" clip-rule="evenodd"/></svg>
