<svg xmlns="http://www.w3.org/2000/svg" width="39" height="46" fill="none"><path fill="#9336FD" fill-rule="evenodd" d="M34.125 14.6342v1.8355c2.8611.7305 4.864 3.2777 4.875 6.2002v16.0715c0 3.5503-2.9102 6.4285-6.5 6.4285h-26c-3.5898 0-6.5-2.8782-6.5-6.4285V22.6699c.011-2.9225 2.0139-5.4697 4.875-6.2002v-1.8355C4.875 6.6458 11.4228.1699 19.5.1699c8.0772 0 14.625 6.4759 14.625 14.4643ZM19.5 3.3842c-6.2822 0-11.375 5.0369-11.375 11.25v1.6072h3.25v-1.6072c0-4.4382 3.6375-8.0357 8.125-8.0357s8.125 3.5975 8.125 8.0357v1.6072h3.25v-1.6072c0-6.2131-5.0928-11.25-11.375-11.25Zm4.875 11.25v1.6072h-9.75v-1.6072c0-2.6628 2.1826-4.8214 4.875-4.8214s4.875 2.1586 4.875 4.8214ZM32.5 41.9556c1.795 0 3.25-1.4389 3.25-3.2142V22.6699c0-1.7753-1.455-3.2143-3.25-3.2143h-26c-1.795 0-3.25 1.439-3.25 3.2143v16.0715c0 1.7753 1.455 3.2142 3.25 3.2142h26Z" clip-rule="evenodd"/><path fill="#9336FD" fill-rule="evenodd" d="M13.0572 28.2757c.4126-3.2073 3.1742-5.6097 6.4433-5.6058 3.269-.0039 6.0306 2.3985 6.4432 5.6058.4125 3.2074-1.6521 6.2171-4.8182 7.023v1.8354c0 .8875-.7277 1.6072-1.625 1.6072-.8974 0-1.625-.7197-1.625-1.6072v-1.8354c-3.1659-.8059-5.2309-3.8156-4.8183-7.023Zm3.1933.8228c0 1.7753 1.4549 3.2143 3.25 3.2143 1.795 0 3.25-1.439 3.25-3.2143s-1.455-3.2143-3.25-3.2143c-1.7951 0-3.25 1.439-3.25 3.2143Z" clip-rule="evenodd"/></svg>
