<svg xmlns="http://www.w3.org/2000/svg" width="19" height="49" fill="none"><path fill="#6EAD3B" d="M13.5886 42.3842c3.7013-3.3542 7.3162-11.1661 4.2714-15.2627-.0736.0427-.1545.0578-.2314.0453-.7759-.1249-6.4115-.2604-7.8162-.2926l-.0216 2.0542s6.6483 2.6606 6.3251 5.0975c-1.9188-3.1471-6.5174-4.6207-6.3386-3.7955.6632 1.4171-.0506 4.8562-.0506 4.8562s3.8659 1.9628 3.8045 3.4916c-1.1159-1.7248-3.5063-2.6473-3.814-2.6-.728 1.1139-.0452 4.3564-.0452 4.3564l-.0209.3235 2.5895 2.7026-2.6333-2.0174s-.5782 2.7407-.2598 4.0237c-.5431-.1717-.3245-5.0331-.3245-5.0331l-.0122-1.1783s-1.4188.8923-2.3236 1.78c-.1254-.9469 2.3169-2.4185 2.3169-2.4185s-.3211-2.314-.0439-4.1894c-.0958-.4327-3.308 1.4348-3.7964 2.5889-.1167-1.6019 2.8526-2.9032 3.7877-3.4766.9432-.9055-.1363-4.025-.0506-4.8614.085-.8364-4.7019 2.122-6.3211 3.785.1653-2.0773 6.3076-5.0843 6.3076-5.0843l-.004-.3893c-1.8069.0723-7.0188.288-7.4148.3695-.1154.0237-.2402-.0177-.3387-.1262-3.0267 4.0999.5843 11.8987 4.2815 15.249C7.4995 44.4779 9.378 48.4483 9.4994 49c.1214-.5517 1.9997-4.5221 4.0878-6.6177l.0014.0019Z"/><path fill="#FCFCFB" d="m8.8847 26.8913.004.3893s-6.1423 3.007-6.3076 5.0843c1.6193-1.663 6.4061-4.6214 6.3211-3.785-.085.8365.9938 3.956.0506 4.8614-.935.5734-3.9044 1.8747-3.7877 3.4766.4885-1.1541 3.7007-3.0215 3.7965-2.5889-.278 1.8748.0438 4.1894.0438 4.1894S6.5632 39.99 6.6886 40.9369c.9047-.887 2.3236-1.78 2.3236-1.78l.0121 1.1784s-.2192 4.8613.3246 5.033c-.3185-1.2829.2597-4.0237.2597-4.0237l2.6333 2.0174-2.5894-2.7026.0209-.3235s-.6821-3.2425.0452-4.3564c.307-.0473 2.698.8759 3.814 2.6001.0614-1.5295-3.8046-3.4917-3.8046-3.4917s.7138-3.4384.0506-4.8562c-.1788-.8259 4.4206.6484 6.3387 3.7955.3232-2.4369-6.3252-5.0974-6.3252-5.0974l.0216-2.0543a2611.475 2611.475 0 0 0-.3164-.0072l-.612.0243-.0006-.0013Z"/><path fill="#511587" fill-rule="evenodd" d="M8.8847 26.8919c-1.8068.0724-7.0188.2881-7.4148.3696v.0007c-.1154.0236-.2409-.0178-.3387-.1263-.0938-.1045-.1633-.2703-.1754-.5004-.0243-.4695-.1734-3.6002.313-3.998.3873-.3163 2.9801-.653 5.3206-.841 1.3312-1.4986.9412-6.5389.4041-10.7605C6.5017 7.1715 8.0022 2.1852 9.1802.3637c.3866-.6076.9924-.361 1.1834.0638 1.0275 2.291 2.7716 6.4146 2.1725 10.6526-.5904 4.1769-1.1841 9.1507.0789 10.715 2.248.1651 4.7869.4498 5.1586.7464.4919.3919.3806 3.5239.3623 3.994-.0121.3111-.1302.5024-.2752.5866-.0736.0427-.1545.0579-.2315.0454-.7758-.125-6.4115-.2604-7.8162-.2926l-.3164-.0073-.612.0243ZM9.257 1.957v.9061c0 .2565.2132.465.4763.465.2632 0 .4764-.2085.4764-.465v-.906c0-.2565-.2132-.465-.4764-.465-.2631 0-.4763.2078-.4763.465Z" clip-rule="evenodd"/></svg>
