<svg xmlns="http://www.w3.org/2000/svg" width="192" height="175" viewBox="0 0 192 175" fill="none"><path fill="#511587" d="M12.8267 108.661h9.7163l9.8606 37.205 9.572-37.205h14.8978v48.84h-9.4277v-39.43l-10.0049 39.43H27.2221l-10.0049-39.43v39.43H7.7894v-43.598c0-2.8 2.2314-5.244 5.0373-5.244"/><path fill="#511587" fill-rule="evenodd" d="M62.1271 129.418h9.572c.505-1.793 2.3756-2.656 5.7587-2.656 3.9576 0 5.9725 1.077 6.1889 3.233 0 2.082-2.087 3.303-6.1889 3.805-9.6442.932-16.266 3.375-16.4825 12.496 0 8.405 6.3333 12.643 15.475 11.924 10.2909-.719 16.6242-5.386 16.6242-15.873v-12.929c-.2165-7.037-5.5423-10.486-16.0496-10.486-8.781 0-13.7461 3.449-14.8978 10.486Zm21.6639 8.98v3.519h-.0025c0 5.386-3.2388 8.547-8.5646 8.547-3.0224 0-4.6044-1.437-4.8208-4.454 0-2.8 1.9427-4.595 5.7587-5.314 2.8059-.575 5.3979-1.363 7.6292-2.298ZM102.502 175c3.169 0 4.751-1.579 4.751-4.74l-.005.003v-17.931c2.445 3.948 6.045 5.888 10.796 5.888 10.149-.358 15.187-7.182 15.187-19.966 0-12.785-6.262-19.178-17.704-19.178-11.443 0-17.3432 5.603-17.8482 16.95V175h4.8232Zm20.943-36.316c-.214 7.326-2.878 10.989-8.06 10.989-5.181 0-7.843-3.663-8.132-10.989-.072-7.684 2.52-11.491 7.988-11.491 5.467 0 8.204 3.807 8.204 11.491Z" clip-rule="evenodd"/><path fill="#511587" d="M147.27 113.331v44.173h-9.572v-48.84h4.968c2.517 0 4.607 2.153 4.607 4.667"/><path fill="#511587" fill-rule="evenodd" d="M152.954 129.418h9.572c.505-1.793 2.376-2.656 5.759-2.656 3.958 0 5.973 1.077 6.189 3.233 0 2.082-2.087 3.303-6.189 3.805-9.644.932-16.266 3.375-16.482 12.496 0 8.405 6.333 12.643 15.475 11.924 10.291-.719 16.624-5.386 16.624-15.873v-12.929c-.217-7.037-5.542-10.486-16.05-10.486-8.781 0-13.746 3.449-14.898 10.486Zm21.664 8.98v3.519h-.002c0 5.386-3.239 8.547-8.565 8.547-3.022 0-4.604-1.437-4.821-4.454 0-2.8 1.946-4.595 5.759-5.314 2.809-.575 5.398-1.363 7.629-2.298Z" clip-rule="evenodd"/><path fill="#501688" fill-rule="evenodd" d="M186.831 160.618c.848 0 1.572-.291 2.178-.875h.002c.621-.603.933-1.371.933-2.229 0-.857-.304-1.589-.912-2.194-.608-.606-1.343-.91-2.201-.91-.816 0-1.53.281-2.138.843-.649.602-.972 1.388-.972 2.261 0 .874.302 1.61.9 2.208.597.598 1.363.896 2.21.896Zm-2.568-3.104c0-.693.247-1.293.742-1.798l.002.003c.505-.518 1.121-.775 1.827-.775s1.311.257 1.814.775c.497.507.747 1.087.747 1.798 0 .711-.252 1.321-.752 1.829-.5.505-1.103.757-1.812.757-.708 0-1.314-.252-1.814-.755-.502-.504-.754-1.141-.754-1.834Zm1.208 1.731v-3.441h.961c.425 0 .662.002.711.008.273.018.5.077.68.177.307.17.462.443.462.822 0 .289-.083.497-.243.626-.162.129-.36.206-.597.229.216.047.381.114.489.199.204.165.304.42.304.772v.307c0 .033.003.067.008.1.005.034.013.067.026.101l.031.098h-.861c-.028-.108-.046-.268-.057-.477-.01-.208-.028-.347-.056-.422-.044-.121-.129-.204-.253-.253-.067-.028-.17-.046-.309-.054l-.198-.013h-.191v1.219h-.904l-.003.002Zm1.123-2.836c.224 0 .4.026.523.072l.003-.002c.185.072.278.203.278.391s-.059.325-.178.41c-.118.082-.283.126-.494.126h-.351v-.997h.219Z" clip-rule="evenodd"/><path fill="#6EAD3B" fill-rule="evenodd" d="M16.6812 97.6541c5.0321 0 7.9256-2.697 7.9256-7.3338 0-4.3843-2.8961-6.9139-7.9256-6.9139H8.0239v19.6986h5.1428v-5.4509h3.5145Zm-.2525-10.1442c2.0793 0 3.2877 1.0382 3.2877 2.9779 0 1.9963-1.2084 3.0628-3.2877 3.0628h-3.2594v-6.0407h3.2594Z" clip-rule="evenodd"/><path fill="#6EAD3B" d="M36.4385 83.4064v19.6986h-5.1429V83.4064h5.1429ZM48.9453 83.4064l8.9381 11.8572V83.4064h4.777v19.6986h-4.4961l-8.9382-11.8032v11.8032h-4.8053V83.4064h4.5245ZM85.8471 83.4064v4.2426h-5.9029v15.453h-5.1429V87.649H68.955v-4.2426h16.8921ZM100.912 98.9472c2.278 0 3.85-1.5456 3.85-4.1009V83.409h5.143v11.4373c0 5.1987-3.486 8.4857-9.023 8.4857-5.5376 0-9.1345-3.287-9.1345-8.4857V83.409h5.1429v11.4373c0 2.5296 1.6851 4.1009 4.0196 4.1009h.002Z"/><path fill="#6EAD3B" fill-rule="evenodd" d="m126.516 97.6541 2.868 5.4509h5.815l-4.104-6.4349c2.277-1.1798 3.514-3.372 3.514-6.3498 0-4.3843-2.978-6.9139-8.206-6.9139h-8.854v19.6986h5.143v-5.4509h3.824Zm-.082-4.1035h-3.739v-6.0407h3.739c2.079 0 3.287.9815 3.287 2.9779 0 1.9963-1.208 3.0628-3.287 3.0628ZM146.667 99.6221h8.516l1.35 3.4849h5.481l-8.263-19.698h-5.285l-8.459 19.698h5.285l1.375-3.4849Zm4.301-10.9581 2.698 7.0246h-5.453l2.755-7.0246Z" clip-rule="evenodd"/><path fill="#6EAD3B" d="M175.085 87.3708c-1.237 0-2.051.4508-2.051 1.3498 0 3.2586 10.371 1.4039 10.371 8.4853 0 4.0181-3.541 6.0691-7.926 6.0691-3.288 0-6.717-1.208-9.077-3.148l1.994-4.0185c2.025 1.7414 5.086 2.9778 7.14 2.9778 1.517 0 2.473-.5615 2.473-1.6022 0-3.3436-10.371-1.3215-10.371-8.2895 0-3.681 3.121-6.0123 7.869-6.0123 2.894 0 5.818.899 7.869 2.2205l-1.94 4.0752c-2.079-1.1798-4.72-2.1072-6.351-2.1072ZM166.077 20.661C152.934 6.5293 122.324-7.2727 106.272 4.3526c.167.2808.227.5899.178.8836-.49 2.9623-1.021 24.4794-1.147 29.8425l8.049.0824s10.425-25.3835 19.974-24.1496c-12.332 7.326-18.106 24.8838-14.872 24.2012 5.552-2.5322 19.028.1932 19.028.1932s7.691-14.7603 13.682-14.5259c-6.759 4.2606-10.374 13.3873-10.188 14.5619 4.365 2.7795 17.07.1726 17.07.1726l1.267.0799 10.59-9.8866-7.905 10.054s10.739 2.2076 15.766.9918c-.672 2.0736-19.721 1.239-19.721 1.239l-4.617.0464s3.496 5.4172 6.975 8.8716c-3.711.4791-9.477-8.8459-9.477-8.8459s-9.067 1.2262-16.415.1675c-1.696.3657 5.622 12.6299 10.144 14.4949-6.277.4457-11.376-10.8912-13.623-14.4615-3.548-3.6012-15.771.5204-19.049.1932-3.277-.3245 8.315 17.9519 14.831 24.1343-8.139-.6311-19.922-24.0827-19.922-24.0827l-1.525.0154c.283 6.8985 1.128 26.7978 1.448 28.3099.093.4405-.07.917-.495 1.2931 16.065 11.5558 46.624-2.2308 59.751-16.3471 8.212-7.9726 23.769-15.1441 25.931-15.6077-2.162-.4637-17.719-7.6352-25.931-15.6078l.008-.0052Z"/><path fill="#FCFCFB" d="m105.37 38.6207 1.525-.0155s11.783 23.4516 19.922 24.0827c-6.516-6.1823-18.108-24.4588-14.83-24.1342 3.277.3246 15.5-3.7944 19.048-.1932 2.247 3.5703 7.346 14.9071 13.623 14.4615-4.522-1.865-11.84-14.1292-10.144-14.495 7.346 1.0613 16.415-.1674 16.415-.1674s5.767 9.325 9.477 8.8459c-3.476-3.4544-6.975-8.8717-6.975-8.8717l4.617-.0463s19.049.8371 19.722-1.2391c-5.027 1.2159-15.767-.9917-15.767-.9917l7.905-10.054-10.589 9.8865-1.268-.0798s-12.705 2.6043-17.07-.1726c-.186-1.1721 3.432-10.3013 10.188-14.5619-5.993-.2345-13.682 14.5258-13.682 14.5258s-13.473-2.7253-19.028-.1932c-3.236.6827 2.541-16.8777 14.872-24.2012-9.549-1.2339-19.974 24.1497-19.974 24.1497l-8.049-.0824c-.018.7702-.028 1.2081-.028 1.2081s.036.8784.095 2.3364l-.005.0026Z"/><path fill="#511587" fill-rule="evenodd" d="M105.373 38.6207c.283 6.8984 1.128 26.7978 1.448 28.3098h.002c.093.4405-.069.9197-.495 1.2932-.409.358-1.059.6234-1.96.6697-1.84.0928-14.1072.6621-15.666-1.1952-1.2393-1.4786-2.5585-11.3781-3.2955-20.3141-5.872-5.0824-25.6215-3.5935-42.1632-1.543-15.1427 1.8779-34.681-3.8511-41.818-8.3487-2.3808-1.476-1.4146-3.7892.2499-4.5182 8.9768-3.9232 25.1346-10.5821 41.7407-8.2946 16.3665 2.2539 35.8558 4.5208 41.9855-.3014.6467-8.5831 1.7624-18.2765 2.9244-19.6959 1.5357-1.8778 13.8082-1.4528 15.6502-1.3832 1.219.0463 1.969.4971 2.298 1.051.168.2807.227.5898.178.8835-.489 2.9624-1.02 24.4794-1.146 29.8426l-.029 1.2081.096 2.3364ZM7.6683 37.1988h3.5505c1.0049 0 1.8217-.8141 1.8217-1.8187s-.8168-1.8186-1.8217-1.8186H7.6683c-1.0049 0-1.8216.814-1.8216 1.8186s.8142 1.8187 1.8216 1.8187Z" clip-rule="evenodd"/></svg>
