<svg xmlns="http://www.w3.org/2000/svg" width="116" height="106" fill="none"><path fill="#fff" d="M7.7494 65.818h5.8703l5.9574 22.5354 5.7831-22.5354h9.0008v29.5832h-5.6959V71.5177l-6.0447 23.8835h-6.1738L10.402 71.5177v23.8835H4.706v-26.408c0-1.6961 1.3481-3.1768 3.0434-3.1768"/><path fill="#fff" fill-rule="evenodd" d="M37.5352 78.3901h5.7831c.3051-1.086 1.4353-1.6087 3.4792-1.6087 2.3911 0 3.6084.6522 3.7392 1.9582 0 1.2607-1.261 2.0003-3.7392 2.3045-5.8267.5649-9.8274 2.044-9.9581 7.569 0 5.0913 3.8263 7.658 9.3494 7.2227 6.2174-.4354 10.0438-3.2626 10.0438-9.6146v-7.8311c-.1308-4.2628-3.3485-6.352-9.6966-6.352-5.3052 0-8.305 2.0892-9.0008 6.352Zm13.0886 5.4392v2.1313h-.0015c0 3.2626-1.9568 5.1771-5.1745 5.1771-1.826 0-2.7818-.8706-2.9125-2.6978 0-1.696 1.1737-2.7835 3.4792-3.2188 1.6952-.348 3.2612-.8254 4.6093-1.3918ZM61.9283 106c1.9147 0 2.8705-.956 2.8705-2.871l-.0031.002V92.2694c1.4773 2.392 3.652 3.5669 6.5225 3.5669 6.1318-.2169 9.1752-4.3501 9.1752-12.0939 0-7.7438-3.7828-11.6164-10.6961-11.6164-6.9132 0-10.478 3.3936-10.7831 10.2667V106h2.9141ZM74.581 84.003c-.1292 4.4375-1.7388 6.6562-4.8693 6.6562s-4.7385-2.2187-4.9129-6.6562c-.0436-4.6544 1.5225-6.9605 4.8258-6.9605 3.3032 0 4.9564 2.3061 4.9564 6.9605Z" clip-rule="evenodd"/><path fill="#fff" d="M88.976 68.6466v26.756h-5.7831V65.8193h3.0013c1.5209 0 2.7833 1.3044 2.7833 2.8273"/><path fill="#fff" fill-rule="evenodd" d="M92.4097 78.3901h5.7831c.3051-1.086 1.4353-1.6087 3.4792-1.6087 2.391 0 3.608.6522 3.739 1.9582 0 1.2607-1.261 2.0003-3.739 2.3045-5.8267.5649-9.8274 2.044-9.9581 7.569 0 5.0913 3.8263 7.658 9.3491 7.2227 6.218-.4354 10.044-3.2626 10.044-9.6146v-7.8311c-.131-4.2628-3.348-6.352-9.697-6.352-5.3047 0-8.3045 2.0892-9.0003 6.352Zm13.0883 5.4392v2.1313h-.001c0 3.2626-1.957 5.1771-5.175 5.1771-1.8256 0-2.7814-.8706-2.9122-2.6978 0-1.696 1.1753-2.7835 3.4792-3.2188 1.697-.348 3.261-.8254 4.609-1.3918ZM112.877 97.2886c.513 0 .95-.1763 1.316-.5305h.001c.376-.3651.564-.83.564-1.3496s-.184-.9627-.551-1.3294c-.368-.3667-.811-.5508-1.33-.5508-.493 0-.924.1701-1.292.5102-.392.3651-.586.841-.586 1.37 0 .5289.182.9752.543 1.3372.361.3619.823.5429 1.335.5429Zm-1.552-1.8801c0-.4197.15-.7833.449-1.0891l.001.0016c.305-.3137.677-.4697 1.104-.4697.427 0 .792.156 1.096.4697.3.3073.451.6584.451 1.089 0 .4307-.152.8005-.454 1.1079-.302.3058-.666.4587-1.095.4587-.428 0-.793-.1529-1.095-.4572-.304-.3058-.457-.6912-.457-1.1109Zm.731 1.0485v-2.0846h.58c.257 0 .4.0016.43.0047.165.0109.302.0468.411.1077.185.103.278.2684.278.4977 0 .1748-.049.3012-.146.3792-.098.078-.218.1248-.361.1388.131.0281.23.0687.296.1202.123.0998.183.2543.183.4681v.1856c0 .0203.002.0406.005.0609a.272.272 0 0 0 .016.0608l.018.0593h-.52c-.017-.0655-.028-.1622-.034-.2886-.006-.1264-.017-.2107-.034-.2559-.027-.0733-.078-.1233-.153-.1529-.04-.0172-.102-.0281-.186-.0328l-.12-.0078h-.116v.738h-.546l-.001.0016Zm.678-1.7179c.136 0 .242.0156.316.0437l.002-.0016c.112.0437.168.1233.168.2372 0 .1139-.036.1966-.107.2481-.072.0499-.172.0764-.299.0764h-.212v-.6038h.132Z" clip-rule="evenodd"/><path fill="#6EAD3B" fill-rule="evenodd" d="M10.0781 59.1505c3.0402 0 4.7884-1.6336 4.7884-4.4421 0-2.6557-1.7497-4.1879-4.7884-4.1879H4.8477v11.9316h3.1071v-3.3016h2.1233Zm-.1525-6.1444c1.2562 0 1.9863.6288 1.9863 1.8037 0 1.2092-.7301 1.8552-1.9863 1.8552H7.9564v-3.6589h1.9692Z" clip-rule="evenodd"/><path fill="#6EAD3B" d="M22.0149 50.5205v11.9316h-3.1072V50.5205h3.1072ZM29.5709 50.5205l5.4002 7.1821v-7.1821h2.8861v11.9316h-2.7164l-5.4002-7.1493v7.1493h-2.9032V50.5205h2.7335ZM51.8658 50.5205v2.5698h-3.5664v9.3603h-3.1071v-9.3603h-3.5321v-2.5698h10.2056ZM60.9678 59.9342c1.3761 0 2.3257-.9362 2.3257-2.484v-6.9277h3.1071v6.9277c0 3.1487-2.1062 5.1396-5.4515 5.1396-3.3453 0-5.5184-1.9909-5.5184-5.1396v-6.9277h3.1071v6.9277c0 1.5322 1.0181 2.484 2.4284 2.484h.0016Z"/><path fill="#6EAD3B" fill-rule="evenodd" d="m76.4368 59.1505 1.7326 3.3016h3.5134l-2.4798-3.8976c1.3762-.7146 2.1234-2.0424 2.1234-3.8461 0-2.6557-1.7996-4.1879-4.9581-4.1879h-5.3488v11.9316h3.1072v-3.3016h2.3101Zm-.0498-2.4855h-2.2588v-3.6589h2.2588c1.2562 0 1.9863.5944 1.9863 1.8037 0 1.2092-.7301 1.8552-1.9863 1.8552ZM88.6114 60.343h5.1449l.8157 2.1111h3.3111l-4.9923-11.9316H89.698l-5.1106 11.9316h3.1928l.8312-2.1111Zm2.5982-6.6375 1.6298 4.2549h-3.2939l1.6641-4.2549Z" clip-rule="evenodd"/><path fill="#6EAD3B" d="M105.78 52.9218c-.747 0-1.239.2731-1.239.8176 0 1.9738 6.266.8504 6.266 5.1396 0 2.4341-2.139 3.6761-4.789 3.6761-1.986 0-4.058-.7318-5.484-1.9067l1.205-2.4341c1.224 1.0548 3.073 1.8038 4.314 1.8038.917 0 1.494-.3402 1.494-.9706 0-2.0252-6.266-.8004-6.266-5.021 0-2.2297 1.886-3.6417 4.755-3.6417 1.748 0 3.515.5445 4.754 1.3449l-1.173 2.4684c-1.256-.7146-2.851-1.2763-3.837-1.2763ZM100.338 12.5147C92.3976 3.9549 73.9041-4.4052 64.2059 2.6364c.1012.1701.137.3573.1074.5352-.2957 1.7944-.6164 14.8275-.6927 18.0761l4.8631.0499S74.7821 5.9224 80.5512 6.6698c-7.4504 4.4375-10.9389 15.0725-8.9853 14.659 3.3547-1.5338 11.4962.117 11.4962.117s4.6467-8.9405 8.266-8.7985c-4.0832 2.5807-6.2672 8.1089-6.1551 8.8204 2.637 1.6835 10.313.1045 10.313.1045l.7659.0484 6.3981-5.9884-4.776 6.0898s6.488 1.3372 9.525.6007c-.406 1.2561-11.9145.7505-11.9145.7505l-2.7896.0281s2.1124 3.2813 4.2139 5.3737c-2.2416.2902-5.7255-5.3581-5.7255-5.3581s-5.478.7427-9.9176.1014c-1.0243.2216 3.3967 7.6502 6.1287 8.7798-3.7921.27-6.8728-6.5969-8.2303-8.7595-2.1435-2.1813-9.5284.3152-11.5086.117-1.9801-.1966 5.0235 10.8738 8.9603 14.6185-4.9175-.3823-12.0363-14.5872-12.0363-14.5872l-.9215.0093c.1712 4.1785.6818 16.2318.8748 17.1477.0561.2668-.042.5555-.2989.7833 9.706 6.9995 28.1683-1.3513 36.1001-9.9017 4.961-4.8291 14.36-9.173 15.666-9.4538-1.306-.2809-10.705-4.6248-15.666-9.4539l.004-.0031Z"/><path fill="#FCFCFB" d="m63.6609 23.3934.9216-.0093s7.1187 14.2049 12.0363 14.5872c-3.9369-3.7447-10.9404-14.815-8.9603-14.6184 1.9801.1966 9.365-2.2984 11.5086-.1171 1.3574 2.1626 4.4381 9.0295 8.2302 8.7595-2.732-1.1296-7.153-8.5582-6.1287-8.7798 4.4382.6429 9.9177-.1014 9.9177-.1014s3.4839 5.6483 5.7255 5.3581c-2.1-2.0924-4.214-5.3737-4.214-5.3737l2.7896-.0281s11.5086.5071 11.9146-.7505c-3.037.7365-9.5251-.6007-9.5251-.6007l4.7761-6.0898-6.3981 5.9884-.7659-.0484s-7.676 1.5775-10.3131-.1045c-.1121-.7099 2.0735-6.2396 6.1552-8.8204-3.6209-.142-8.266 8.7985-8.266 8.7985s-8.14-1.6507-11.4962-.117c-1.9552.4135 1.5349-10.2231 8.9852-14.659-5.7691-.7474-12.0674 14.6278-12.0674 14.6278l-4.8631-.0499-.0172.7318s.0218.532.0576 1.4152l-.0031.0015Z"/><path fill="#fff" fill-rule="evenodd" d="M63.6626 23.3935c.1712 4.1785.6818 16.2318.8748 17.1477h.0016c.056.2668-.0421.557-.2989.7833-.2475.2169-.6398.3776-1.1846.4057-1.1115.0561-8.5229.401-9.4647-.724-.7488-.8956-1.5458-6.8919-1.991-12.3045-3.5477-3.0785-15.4797-2.1767-25.4737-.9347-9.1486 1.1375-20.953-2.3326-25.265-5.0569-1.4384-.894-.8546-2.2952.151-2.7368 5.4235-2.3763 15.1855-6.4097 25.2183-5.0241 9.8881 1.3652 21.6629 2.7383 25.3663-.1826.3907-5.1989 1.0647-11.0703 1.7668-11.93.9278-1.1375 8.3423-.88 9.4553-.8379.7364.028 1.1894.3011 1.3886.6366.1012.17.137.3573.1074.5352-.2957 1.7943-.6164 14.8275-.6927 18.0761l-.0171.7317s.0218.5321.0576 1.4152Zm-59.0297-.8613h2.1452c.607 0 1.1005-.493 1.1005-1.1015 0-.6085-.4934-1.1016-1.1005-1.1016H4.6329c-.607 0-1.1006.4931-1.1006 1.1016 0 .6085.492 1.1015 1.1006 1.1015Z" clip-rule="evenodd"/></svg>
