<svg xmlns="http://www.w3.org/2000/svg" width="161" height="99" fill="none"><path fill="#5D2B85" d="M18.5981 0h142.402v33.8137H18.5981z"/><path fill="#6BAE44" d="M18.1411 84.6313h142.859v14.3672H18.1411z"/><path fill="#fff" d="M16.3774 91.0566h3.455v5.0713h-3.455z"/><path fill="#5D2B85" d="M47.8413 39.7073h5.892l5.9802 22.6876 5.8038-22.6876h9.0344v29.7825h-5.7156V45.4397l-6.0684 24.0501h-6.1966l-6.0684-24.0501v24.0501h-5.7156V42.9c0-1.7092 1.3548-3.2008 3.0542-3.2008"/><path fill="#5D2B85" fill-rule="evenodd" d="M77.726 52.3652h5.8119c.3046-1.0965 1.4349-1.6206 3.4871-1.6206 2.3968 0 3.6233.6611 3.7516 1.9753 0 1.2739-1.2666 2.0156-3.7516 2.322-5.8439.5644-9.8601 2.0559-9.9884 7.619 0 5.1277 3.8398 7.7076 9.3791 7.2723 6.2367-.4435 10.0765-3.2895 10.0765-9.683v-7.885c-.1362-4.2892-3.3588-6.3935-9.7318-6.3935-5.3228 0-8.337 2.1043-9.0344 6.3935Zm13.1388 5.4743v2.1446h.008c0 3.2895-1.964 5.2164-5.1946 5.2164-1.8357 0-2.7977-.8788-2.9259-2.717 0-1.7092 1.1784-2.8057 3.4871-3.2411 1.6994-.3547 3.2706-.8304 4.6254-1.4029ZM102.208 80.1645c1.916 0 2.878-.9674 2.878-2.8944h.008V66.3375c1.483 2.4107 3.664 3.5958 6.541 3.5958 6.149-.2176 9.203-4.3778 9.203-12.1742 0-7.7963-3.792-11.6986-10.734-11.6986S99.5868 49.479 99.2822 56.3966v23.7679h2.9258Zm12.698-22.1474c-.136 4.4647-1.746 6.698-4.886 6.6999-3.14-.0019-4.75-2.2352-4.926-6.6999-.048-4.6843 1.531-7.0062 4.842-7.0062s4.97 2.3219 4.97 7.0062Zm-4.886 6.6999h-.004.008-.004Z" clip-rule="evenodd"/><path fill="#5D2B85" d="M129.343 42.5536v26.9365h-5.803V39.7075h3.014c1.523 0 2.789 1.3142 2.789 2.8461Z"/><path fill="#5D2B85" fill-rule="evenodd" d="M132.79 52.3652h5.812c.305-1.0965 1.435-1.6206 3.487-1.6206 2.397 0 3.624.6611 3.752 1.9753 0 1.2739-1.267 2.0156-3.752 2.322-5.843.5644-9.86 2.0559-9.988 7.619 0 5.1277 3.84 7.7076 9.379 7.2723 6.237-.4435 10.077-3.2895 10.077-9.683v-7.885c-.137-4.2892-3.359-6.3935-9.732-6.3935-5.323 0-8.337 2.1043-9.035 6.3935Zm13.139 5.4743v2.1446h.008c0 3.2895-1.964 5.2164-5.194 5.2164-1.836 0-2.798-.8788-2.926-2.717 0-1.7092 1.178-2.8057 3.487-3.2411 1.699-.3547 3.27-.8304 4.625-1.4029Z" clip-rule="evenodd"/><path fill="#5C0F8B" fill-rule="evenodd" d="M153.32 71.3845c.513 0 .954-.1773 1.323-.5321h-.008c.377-.3708.569-.8385.569-1.3625 0-.5241-.184-.9675-.553-1.3384-.369-.3708-.81-.5563-1.331-.5563-.497 0-.93.1774-1.298.516-.393.3628-.585.8466-.585 1.3787s.184.9836.545 1.3464c.36.3628.825.5482 1.338.5482Zm-1.563-1.8946c0-.4193.152-.7901.449-1.0965v.0081c.305-.3145.681-.4757 1.106-.4757.425 0 .794.1612 1.099.4757.304.3063.457.6691.457 1.0964 0 .4274-.153.8063-.457 1.1127-.305.3063-.674.4595-1.099.4595-.425 0-.793-.1532-1.098-.4595-.305-.3064-.457-.7015-.457-1.1207Zm.73 1.0642v-2.0962h1.018c.168.0081.304.0484.409.1048.184.1048.28.2661.28.4999 0 .1773-.048.3063-.144.3789-.096.0806-.217.129-.361.1371.128.0242.233.0725.297.1209.12.0968.184.258.184.4676v.25c0 .0241 0 .0403.016.0645l.016.0564h-.521c-.016-.0645-.032-.1613-.032-.2903s-.016-.2096-.032-.2579c-.024-.0726-.08-.121-.152-.1532-.04-.0162-.105-.0323-.185-.0323H153.048v.7418h-.545l-.016.008Zm.681-1.7253c.136 0 .249.008.321.0403l-.016-.0081c.112.0484.168.129.168.2419s-.032.2015-.104.2499c-.072.0565-.169.0806-.297.0806h-.208v-.6046h.136Z" clip-rule="evenodd"/><path fill="#6BAE44" d="M10.5977 13.3675C3.351 20.148-3.7274 35.9261 2.2287 44.2062c.1443-.0887.3046-.1209.4489-.0887 1.515.2499 12.5536.5241 15.3032.5886l.04-4.1522S5.0023 35.1763 5.6356 30.2582c3.7597 6.3613 12.762 9.3363 12.4093 7.6674-1.2986-2.8622.0962-9.812.0962-9.812s-7.5674-3.9667-7.4472-7.0546c2.1805 3.483 6.862 5.3454 7.4632 5.2567 1.4269-2.2494.0882-8.8041.0882-8.8041l.0401-.6531-5.0663-5.4583 5.1545 4.0796s1.1303-5.5388.505-8.1269c1.0662.3467.6333 10.1667.6333 10.1667l.024 2.3784s2.7817-1.806 4.5453-3.5958c.2485 1.9108-4.5373 4.8858-4.5373 4.8858s.6253 4.6762.0882 8.4655c.1844.8708 6.4772-2.9024 7.4312-5.2325.2324 3.2331-5.5874 5.8614-7.4151 7.0224-1.8438 1.8302.2645 8.135.0962 9.82-.1684 1.6931 9.2027-4.2892 12.3772-7.6431-.3207 4.2005-12.3452 10.2715-12.3452 10.2715v.7901c3.5432-.1451 13.748-.5805 14.5256-.7498.2245-.0484.473.0322.6654.258 5.924-8.2801-1.1464-24.0341-8.3851-30.8065C22.51 9.1347 18.8385 1.1126 18.598 0c-.2405 1.1126-3.9119 9.1347-8.0003 13.3675Z"/><path fill="#FDFEFD" d="M19.8006 44.6659v-.7901s12.0165-6.071 12.3371-10.2716c-3.1664 3.3621-12.5375 9.3363-12.3772 7.6432.1683-1.6931-1.948-7.9898-.0962-9.82 1.8277-1.161 7.6396-3.7893 7.4151-7.0224-.9539 2.3301-7.2468 6.1033-7.4311 5.2325.5451-3.7893-.0882-8.4655-.0882-8.4655s4.7777-2.975 4.5372-4.8858c-1.7716 1.7898-4.5452 3.5958-4.5452 3.5958l-.0241-2.3784s.4329-9.82-.6333-10.1667c.6253 2.588-.505 8.1269-.505 8.1269l-5.1545-4.0796 5.0663 5.4583-.0401.6531s1.3388 6.5466-.0881 8.8041c-.6013.0968-5.2828-1.7657-7.4632-5.2567-.1203 3.0879 7.4471 7.0546 7.4471 7.0546s-1.3948 6.9498-.0962 9.812c.3528 1.6689-8.6496-1.3061-12.4092-7.6674-.6333 4.9262 12.3852 10.2957 12.3852 10.2957l-.0401 4.1522c.3928.008.6173.0161.6173.0161s.4489-.0161 1.1944-.0484l-.008.0081Z"/><path fill="#5D2B85" fill-rule="evenodd" d="M20.7745 44.6318c4.1417-.1783 12.8284-.5521 13.5435-.7078h-.008c.2324-.0484.4729.0403.6653.258.1844.2096.3207.5402.3447 1.0078.0481.9513.3447 7.2723-.6092 8.0785-.7535.6369-5.8279 1.3223-10.4132 1.7012-2.6053 3.0234-1.8438 13.2062-.7936 21.7362.9619 7.8045-1.9721 17.8825-4.2808 21.5589-.7535 1.2255-1.9399.7337-2.3167-.129-2.004-4.6278-5.419-12.9563-4.2486-21.5185 1.1543-8.4414 2.3167-18.4872-.1523-21.6476-4.401-.3306-9.3711-.9111-10.1006-1.5077-.952-.7819-.742-6.9878-.7065-8.039l.001-.0315c.0241-.6288.2566-1.0158.5372-1.1851.1442-.0887.2966-.1129.4489-.0887 1.523.2499 12.5535.524 15.3031.5885.3928.0162.6173.0162.6173.0162s.4489-.0162 1.1944-.0484l.9741-.042Zm-1.7036 50.4159v-1.8301c0-.516-.4168-.9353-.9299-.9353-.513 0-.9298.4193-.9298.9353v1.8301c0 .5241.4168.9433.9298.9433.5131 0 .9299-.4273.9299-.9433Z" clip-rule="evenodd"/><path fill="#fff" d="M52.4106 17.076c.8017 0 1.451-.0887 1.956-.266.9459-.3387 1.4269-.9756 1.4269-1.8947 0-.5402-.2325-.9594-.7054-1.2577-.473-.2903-1.2105-.5402-2.2205-.766l-1.7235-.387c-1.6915-.387-2.8619-.8062-3.5112-1.2577-1.0982-.7579-1.6433-1.935-1.6433-3.5394 0-1.4673.529-2.6848 1.5872-3.6523 1.0581-.9674 2.6133-1.4512 4.6655-1.4512 1.7155 0 3.1745.4596 4.3849 1.3706 1.2105.911 1.8438 2.2414 1.9079 3.9828h-3.2707c-.0561-.9836-.489-1.685-1.2826-2.0962-.529-.2741-1.1864-.4112-1.972-.4112-.8738 0-1.5712.1774-2.1003.5321-.521.3548-.7856.8547-.7856 1.4916 0 .5886.2566 1.024.7696 1.3061.3287.1935 1.0341.4193 2.1163.6773l2.8057.6772c1.2265.2983 2.1564.6934 2.7817 1.1852.97.774 1.459 1.8866 1.459 3.3378s-.5692 2.7332-1.7075 3.7248c-1.1383.9917-2.7416 1.4835-4.8178 1.4835-2.0763 0-3.7837-.4837-5.0022-1.4593-1.2105-.9755-1.8197-2.3139-1.8197-4.0151h3.2466c.1042.7499.3046 1.3062.6092 1.677.5532.6692 1.4991 1.0078 2.8378 1.0078h.008ZM72.9084 12.2871h-7.9041v4.2086h9.0104v2.9428H61.6855V3.0718h11.9283v2.8944h-8.6095V9.441h7.9041v2.846Z"/><path fill="#fff" fill-rule="evenodd" d="M80.059 13.0208h3.5111v-.0161c.9941 0 1.6835.1773 2.0442.524.3688.3467.5531 1.0481.5692 2.0882l.024 1.5238a8.168 8.168 0 0 0 .1443 1.4109c.0481.2258.1203.516.2245.8788h3.7436v-.4112c-.3207-.2015-.5291-.516-.6173-.9352-.0561-.2661-.0881-.774-.0881-1.5238v-1.0965c0-1.1449-.1524-1.9995-.465-2.5558s-.8417-.9836-1.5952-1.29c.8978-.3144 1.5391-.8465 1.9319-1.5963.3928-.7498.5852-1.5158.5852-2.2897 0-.637-.1042-1.2175-.3127-1.7173a5.0434 5.0434 0 0 0-.8417-1.3787c-.4248-.508-.9459-.8869-1.5632-1.1449-.6092-.258-1.491-.395-2.6293-.4192h-7.9843v16.3667h3.3188v-6.4177Zm6.5894-4.8213c0 .919-.3447 1.5318-1.0181 1.8463l.0081-.0081c-.3848.1774-.962.2661-1.7236.2661H80.059v-4.394h3.952c.7375 0 1.2907.0967 1.6594.2902.6493.3386.978 1.0078.978 1.9995Z" clip-rule="evenodd"/><path fill="#fff" d="M91.3862 3.0718h3.6314l3.5352 12.4242L102.12 3.0718h3.535L100.1 19.4385h-3.2146L91.3862 3.0718ZM107.403 3.0718h3.375v16.3667h-3.375V3.0718ZM125.431 18.213c-1.21 1.1206-2.765 1.6769-4.657 1.6769-2.341 0-4.177-.7578-5.515-2.2655-1.339-1.5157-2.012-3.5958-2.012-6.2403 0-2.854.761-5.0551 2.284-6.6031 1.323-1.3464 3.006-2.0237 5.059-2.0237 2.741 0 4.737.903 6.004 2.709.697 1.0159 1.074 2.0317 1.122 3.0556h-3.399c-.224-.782-.505-1.3786-.85-1.7737-.617-.7095-1.531-1.0642-2.749-1.0642-1.219 0-2.213.4998-2.926 1.5076-.714 1.0079-1.074 2.4188-1.074 4.257 0 1.8382.376 3.2088 1.13 4.128.753.911 1.715 1.3706 2.878 1.3706 1.162 0 2.1-.3951 2.725-1.1771.345-.4193.634-1.0562.858-1.8947h3.367c-.297 1.7818-1.042 3.233-2.253 4.3537l.008-.0161ZM130.009 3.0718h3.375v16.3667h-3.375V3.0718Z"/><path fill="#fff" fill-rule="evenodd" d="M138.418 17.979c1.226 1.2739 3.006 1.9108 5.331 1.9108 2.324 0 4.104-.6369 5.33-1.9108 1.644-1.556 2.461-3.749 2.461-6.7482 0-2.9992-.817-5.2486-2.461-6.7482-1.226-1.2739-3.006-1.9108-5.33-1.9108-2.325 0-4.105.637-5.331 1.9108-1.644 1.4996-2.469 3.8135-2.469 6.7482s.817 5.1841 2.469 6.7482Zm9.724-6.7482c0 1.8463-.393 3.2653-1.179 4.265-.793.9998-1.868 1.4996-3.214 1.4996-1.347 0-2.421-.4998-3.223-1.4996-.802-.9997-1.202-2.4187-1.202-4.265 0-1.8463.4-3.2653 1.202-4.265.802-.9997 1.876-1.4996 3.223-1.4996 1.346 0 2.413.508 3.206 1.5076.794.9998 1.187 2.4107 1.187 4.257ZM47.6089 27.4684h1.8838v.0081c.986 0 1.7396-.2177 2.2686-.6531.5291-.4353.7937-1.1771.7937-2.2332 0-.9675-.2646-1.677-.7937-2.1366-.529-.4595-1.2425-.6933-2.1323-.6933h-3.8639v8.917h1.8438v-3.2089Zm3.1103-2.8702c0 .4596-.1202.7982-.3607 1.0159h.008c-.2485.2177-.5932.3225-1.0261.3225h-1.7235v-2.6284h1.7235c.4329 0 .7776.0968 1.0181.2983.2405.2016.3607.5322.3607.9917Z" clip-rule="evenodd"/><path fill="#fff" d="M60.1062 26.7831h-4.3048v2.2898h4.906v1.6044h-6.7177v-8.917h6.5013v1.5802h-4.6896v1.8947h4.3048v1.5479Z"/><path fill="#fff" fill-rule="evenodd" d="M64.0021 27.1782h1.9159l-.016.0081c.5451 0 .9138.0967 1.1143.2821.2004.1855.3126.5644.3126 1.1368l.016.8305c.008.258.0321.516.0802.7659.024.1209.0641.2741.1202.4757h2.0362v-.2258c-.1764-.1048-.2886-.2741-.3367-.5079-.0321-.1451-.0481-.4192-.0481-.8304v-.5966c0-.6289-.0882-1.0885-.2565-1.3948-.1684-.2984-.457-.5322-.8658-.7015.489-.1693.8337-.4595 1.0501-.8707.2165-.4112.3207-.8304.3207-1.2497 0-.3467-.0561-.6611-.1683-.9352a2.7638 2.7638 0 0 0-.457-.7498c-.2324-.2742-.513-.4757-.8497-.6208-.3367-.1452-.8177-.2177-1.4349-.2338h-4.3449v8.917h1.8117v-3.4991Zm3.5913-2.6284c0 .508-.1843.8385-.5531 1.0078-.2084.0968-.5211.1452-.9379.1452h-2.1003v-2.3946h2.1564c.4008 0 .6974.0484.8978.1532.3608.1855.5371.5483.5371 1.0884Z" clip-rule="evenodd"/><path fill="#fff" d="M74.271 29.3875c.4328 0 .7936-.0484 1.0661-.1451.5211-.1855.7776-.5322.7776-1.032 0-.2903-.1282-.5241-.3848-.6853-.2565-.1613-.6573-.2983-1.2104-.4193l-.9379-.2096c-.9219-.2096-1.5632-.4354-1.9159-.6853-.6013-.4112-.8979-1.0562-.8979-1.9269 0-.7982.2886-1.4593.8658-1.9914.5772-.5241 1.4269-.7902 2.5412-.7902.9379 0 1.7315.25 2.3888.7498.6574.4999 1.0021 1.2175 1.0341 2.1688h-1.7796c-.0321-.5401-.2645-.9191-.6974-1.1448-.2886-.1532-.6493-.2258-1.0742-.2258-.481 0-.8577.0968-1.1463.2903-.2806.1935-.4249.4676-.4249.8062 0 .3225.1363.5563.4249.7176.1763.1048.5691.2257 1.1543.3708l1.5311.3709c.6654.1613 1.1784.3789 1.5151.645.5291.4192.7936 1.0239.7936 1.8221s-.3126 1.4916-.9299 2.0317c-.6172.5402-1.491.8063-2.6213.8063s-2.0602-.2661-2.7255-.7982c-.6654-.5321-.9941-1.2577-.9941-2.1849h1.7716c.0562.4112.1684.7095.3287.911.3046.3709.8177.5483 1.5472.5483Z"/><path fill="#fff" fill-rule="evenodd" d="M80.2833 29.8871c.6653.6934 1.6353 1.0401 2.9019 1.0401s2.2365-.3467 2.9019-1.0401c.8898-.8465 1.3387-2.0478 1.3387-3.6764 0-1.6287-.4409-2.8541-1.3387-3.6765-.6654-.6934-1.6353-1.0401-2.9019-1.0401s-2.2366.3467-2.9019 1.0401c-.8979.8143-1.3468 2.0801-1.3468 3.6765 0 1.5963.4489 2.8218 1.3468 3.6764Zm5.2907-3.6764c0 .9997-.2084 1.7737-.6413 2.3219l-.008-.008c-.4329.5401-1.0181.8143-1.7475.8143-.7295 0-1.3227-.2742-1.7556-.8143-.4409-.5402-.6574-1.3223-.6574-2.322 0-.9998.2245-1.7737.6574-2.322.4329-.5402 1.0181-.8143 1.7556-.8143s1.3146.2741 1.7475.8224c.4329.5482.6493 1.3222.6493 2.322Z" clip-rule="evenodd"/><path fill="#fff" d="M96.0116 30.6773h-1.8517l-3.6234-6.329v6.329H88.813v-8.917h1.9399l3.5272 6.2241v-6.2241h1.7235v8.917h.008Z"/><path fill="#fff" fill-rule="evenodd" d="M99.6671 28.8388h3.2629l.569 1.8302h2.012l-3.142-8.917h-2.093l-3.1661 8.917h1.9399l.6173-1.8302Zm1.6429-5.0471 1.107 3.5072h-2.253l1.146-3.5072Z" clip-rule="evenodd"/><path fill="#fff" d="M106.633 21.7603h1.852v7.3126h4.393v1.6044h-6.245v-8.917ZM114.016 21.7603h1.844v8.917h-1.844v-8.917ZM123.852 30.6773h-6.902v-1.5722l4.578-5.7646h-4.466v-1.5802h6.774v1.4915l-4.633 5.8452h4.649v1.5803Z"/><path fill="#fff" fill-rule="evenodd" d="M127.035 28.8388h3.262l.57 1.8302h2.012l-3.143-8.917h-2.092l-3.166 8.917h1.939l.618-1.8302Zm1.643-5.0471 1.106 3.5072h-2.252l1.146-3.5072ZM134.001 30.6773h3.816c1.338 0 2.332-.5483 2.974-1.6609.473-.8223.705-1.8301.705-3.0153 0-.4676-.056-.9594-.168-1.4754-.112-.516-.329-.9998-.633-1.4432-.385-.5483-.882-.9272-1.507-1.1287-.369-.121-.826-.1855-1.371-.1935h-3.816v8.917Zm3.503-7.3691c.842 0 1.403.2419 1.692.7257h-.008c.28.4918.424 1.1851.424 2.0962 0 .6611-.096 1.2255-.28 1.7011-.345.8627-.954 1.2981-1.828 1.2981h-1.707v-5.8211h1.707ZM143.909 29.8871c.665.6934 1.635 1.0401 2.902 1.0401 1.266 0 2.236-.3467 2.902-1.0401.889-.8465 1.338-2.0478 1.338-3.6764 0-1.6287-.441-2.8541-1.338-3.6765-.666-.6934-1.636-1.0401-2.902-1.0401-1.267 0-2.237.3467-2.902 1.0401-.898.8143-1.347 2.0801-1.347 3.6765 0 1.5963.449 2.8218 1.347 3.6764Zm5.291-3.6764c0 .9997-.209 1.7737-.642 2.3219l-.008-.008c-.433.5401-1.018.8143-1.747.8143-.73 0-1.323-.2742-1.756-.8143-.441-.5402-.657-1.3223-.657-2.322 0-.9998.224-1.7737.657-2.322.433-.5402 1.018-.8143 1.756-.8143.737 0 1.314.2741 1.747.8224.433.5482.65 1.3222.65 2.322Z" clip-rule="evenodd"/><path fill="#fff" d="M48.7472 95.6125h-1.4911v-5.1358h-1.7395v-.9997c.4569-.0242.7776-.0484.962-.0887.2966-.0645.529-.1935.7134-.387.1283-.137.2245-.3144.2886-.5321.0401-.1371.0561-.2338.0561-.2983h1.2105v7.4497-.0081Z"/><path fill="#fff" fill-rule="evenodd" d="M51.4969 94.7978c.3848.6691 1.0421.9997 1.988.9997.946 0 1.6113-.3386 1.9881-.9997.3768-.6692.5691-1.6125.5691-2.8461 0-1.2335-.1923-2.1768-.5691-2.846-.3848-.6692-1.0421-.9997-1.9881-.9997-.9459 0-1.6112.3305-1.988.9997s-.5692 1.6125-.5692 2.846c0 1.2336.1924 2.1849.5692 2.8461Zm3.0382-2.8461c0 .8627-.0642 1.5158-.2004 1.9673v-.0081c-.1363.4595-.4169.6853-.8498.6853-.4328 0-.7214-.2258-.8577-.6772-.1363-.4515-.2084-1.0723-.2084-1.9673 0-.8949.0721-1.556.2084-1.9914.1363-.4273.4249-.645.8577-.645.4329 0 .7135.2177.8498.645.1362.4273.2004 1.1287.2004 1.9914ZM57.3167 94.7978c.3848.6691 1.0421.9997 1.9881.9997.9459 0 1.6112-.3386 1.988-.9997.3768-.6692.5692-1.6125.5692-2.8461 0-1.2335-.1924-2.1768-.5692-2.846-.3848-.6692-1.0421-.9997-1.988-.9997-.946 0-1.6113.3305-1.9881.9997-.3767.6692-.5691 1.6125-.5691 2.846 0 1.2336.1924 2.1849.5691 2.8461Zm3.0382-2.8461c0 .8627-.0641 1.5158-.2004 1.9673v-.0081c-.1363.4595-.4169.6853-.8497.6853-.4329 0-.7215-.2258-.8578-.6772-.1363-.4515-.2084-1.0723-.2084-1.9673 0-.8949.0721-1.556.2084-1.9914.1363-.4273.4249-.645.8578-.645.4328 0 .7134.2177.8497.645.1363.4273.2004 1.1287.2004 1.9914ZM64.3872 95.8058h.7936l4.1284-7.6432h-.7776l-4.1444 7.6432Zm-1.3468-4.3457c-.3687-.3708-.5531-.8223-.5531-1.3545 0-.5321.1844-.9755.5531-1.3544.3688-.3709.8177-.5564 1.3468-.5564s.9699.1855 1.3467.5564c.3688.3708.5612.8223.5612 1.3544 0 .5322-.1844.9756-.5532 1.3545-.3687.3709-.8176.5644-1.3467.5644s-.97-.1854-1.3468-.5644h-.008Zm.7696-.774c.1603.1613.3447.2419.5692.2419.2244 0 .4168-.0806.5771-.2419.1604-.1612.2405-.3547.2405-.5805 0-.2257-.0801-.4192-.2405-.5805-.1603-.1612-.3527-.2418-.5771-.2418-.2245 0-.4169.0806-.5772.2418-.1603.1613-.2405.3548-.2405.5805 0 .2258.0802.4193.2405.5725l.008.008Zm3.6314 3.1605c0-.5321.1844-.9836.5531-1.3545.3688-.3709.8177-.5563 1.3468-.5563.529 0 .9699.1854 1.3467.5644.3768.3789.5611.8223.5611 1.3545 0 .5321-.1843.9755-.5611 1.3544-.3768.379-.8177.5564-1.3467.5564-.5291 0-.97-.1855-1.3468-.5564-.3767-.3708-.5531-.8223-.5531-1.3544v-.0081Zm1.8999.8143c-.2245 0-.4089-.0806-.5692-.2419l-.008-.008c-.1603-.1532-.2405-.3467-.2405-.5725 0-.2257.0802-.4192.2405-.5805.1603-.1612.3527-.2418.5772-.2418.2244 0 .4168.0806.5771.2418.1604.1613.2405.3548.2405.5805 0 .2258-.0801.4193-.2405.5805-.1603.1613-.3527.2419-.5771.2419Z" clip-rule="evenodd"/><path fill="#fff" d="M79.8746 95.4349c-.4168.258-.9299.387-1.5311.387-1.002 0-1.8117-.3467-2.453-1.0401-.6653-.7014-.994-1.6528-.994-2.8702s.3367-2.2091 1.01-2.9508c.6734-.7418 1.5552-1.1127 2.6615-1.1127.9539 0 1.7235.2419 2.3087.7337.5852.4918.9138 1.0965 1.002 1.8302h-1.5471c-.1203-.516-.4089-.8788-.8738-1.0804-.2565-.1128-.5451-.1693-.8658-.1693-.6092 0-1.1062.2338-1.491.6934-.3848.4595-.5852 1.1529-.5852 2.0801 0 .9272.2084 1.5883.6333 1.9753.4248.387.9058.5805 1.4429.5805s.962-.1532 1.2987-.4596c.3366-.3064.5451-.7095.6252-1.2013h-1.7395v-1.2658h3.1344v4.0635h-1.0422l-.1603-.9433c-.3046.3628-.5772.6127-.8176.7578l-.0161-.008Z"/><path fill="#fff" fill-rule="evenodd" d="M85.0292 94.0561h2.7736l.489 1.556h1.7075l-2.6695-7.5706h-1.7796l-2.6855 7.5706h1.6434l.5211-1.556Zm1.3948-4.2892.9379 2.9831H85.454l.97-2.9831ZM92.5245 92.6451h1.6273l-.008.0081c.4649 0 .7776.0806.9459.2419.1684.1612.2565.4837.2726.9675v.7014c0 .2257.024.4434.0641.653l.0143.0582c.0222.0907.0508.2072.0899.345h1.7315v-.1935c-.1523-.0968-.2485-.2419-.2886-.4354-.024-.1209-.04-.3547-.04-.7014v-.508c0-.5321-.0722-.9271-.2165-1.1851-.1443-.258-.3928-.4596-.7375-.5967.4169-.137.7135-.3869.8978-.7336.1844-.3548.2726-.7015.2726-1.0643 0-.2983-.0561-.5643-.1443-.7981-.0882-.2339-.2244-.4435-.3848-.637-.1924-.2338-.4329-.4112-.7214-.5321-.2806-.1209-.6894-.1854-1.2185-.1935h-3.6955v7.5706h1.5391v-2.967Zm3.0542-2.2332c0 .4273-.1603.7094-.473.8546l-.008-.0081c-.1763.0806-.4409.1209-.7936.1209h-1.7796v-2.0317h1.8277c.3447 0 .6012.0484.7696.1371.3046.1612.4569.4676.4569.9272ZM100.14 94.0561h2.774l.489 1.556h1.707l-2.669-7.5706h-1.78l-2.6854 7.5706h1.6433l.5211-1.556Zm1.395-4.2892.938 2.9831h-1.908l.97-2.9831Z" clip-rule="evenodd"/><path fill="#fff" d="M112.156 95.6121h-1.571l-3.078-5.3776v5.3776h-1.467v-7.5706h1.651l2.999 5.2889v-5.2889h1.466v7.5706ZM119.091 88.0415v1.3384h-2.253v6.2322h-1.587v-6.2322h-2.261v-1.3384h6.101ZM119.892 88.0415h1.563v7.5706h-1.563v-7.5706ZM128.245 95.6121h-5.86v-1.3384l3.888-4.8938h-3.792v-1.3384h5.756v1.2658l-3.936 4.9664h3.952v1.3384h-.008Z"/><path fill="#fff" fill-rule="evenodd" d="M130.947 94.0561h2.773l.489 1.556h1.708l-2.67-7.5706h-1.779l-2.686 7.5706h1.644l.521-1.556Zm1.394-4.2892.938 2.9831h-1.908l.97-2.9831ZM136.863 95.6121h3.246c1.139 0 1.98-.4676 2.526-1.4109.4-.6934.601-1.548.601-2.5558 0-.4031-.048-.8143-.145-1.2577-.096-.4435-.272-.8466-.537-1.2255-.328-.4676-.753-.7821-1.282-.9594-.305-.0968-.698-.1613-1.163-.1613h-3.246v7.5706Zm2.982-6.2645c.713 0 1.194.2096 1.435.6208v-.008c.24.4192.361 1.0078.361 1.7818 0 .5563-.081 1.04-.241 1.4431-.297.7337-.81 1.1046-1.555 1.1046h-1.451v-4.9423h1.451ZM145.288 94.9431c.569.5886 1.395.8869 2.469.8869 1.074 0 1.9-.2983 2.469-.8869.762-.7256 1.138-1.7415 1.138-3.1282s-.376-2.4349-1.138-3.1282c-.569-.5886-1.395-.8869-2.469-.8869-1.074 0-1.9.2983-2.469.8869-.762.7014-1.146 1.7656-1.146 3.1282 0 1.3625.384 2.4026 1.146 3.1282Zm4.497-3.1202c0 .8547-.184 1.5158-.545 1.9753v.0081c-.361.4596-.858.6934-1.483.6934-.625 0-1.122-.2338-1.491-.6934-.377-.4676-.561-1.1207-.561-1.9753s.192-1.5157.561-1.9753c.369-.4595.866-.6933 1.491-.6933.625 0 1.114.2257 1.483.6933.361.4596.545 1.1126.545 1.9672Z" clip-rule="evenodd"/></svg>
