<svg xmlns="http://www.w3.org/2000/svg" width="115" height="109" fill="none"><path fill="#6BAE44" d="M57.5075 0C25.7431 0 0 25.4994 0 56.963c0 20.0533 10.4661 37.672 26.281 47.824l.9039-.703c1.1057-.851 2.2262-1.613 3.2123-2.279 4.3852-2.967 4.6093-3.4849 4.1536-5.7419-1.3746-6.7559-1.8153-10.9071-1.397-14.015C26.5051 75.7139 22.359 66.8195 22.359 56.963c0-19.2244 15.7328-34.8082 35.141-34.8082S92.641 37.7386 92.641 56.963c0 9.6345-3.9519 18.3439-10.3391 24.6485-.3287.3256-.6724.6438-1.0235.9546-1.9049 1.9905-3.0778 4.6692-3.0778 7.6291 0 6.1343 5.0201 11.1148 11.2206 11.1148 2.6669 0 5.1098-.925 7.0372-2.4646.4332-.3921.8591-.7991 1.2774-1.2061C108.389 87.3019 115 72.902 115 56.963 115.015 25.4994 89.2643 0 57.5075 0Z"/><path fill="#fff" d="m23.7488 85.4152-2.159-2.7305.4632-.3626 1.763 2.2348 1.1505-.8954-1.636-2.0645.4407-.3404 1.636 2.0645 1.285-.999-1.8004-2.2717.4557-.3478 2.1888 2.7675-3.795 2.9451h.0075ZM20.8951 81.7228l-.4034-.6437 2.0395-4.0625-3.3094 2.0423-.3287-.5253 4.0938-2.5233.3884.6141-2.017 4.0921 3.3019-2.0349.3287.5253-4.0938 2.5233v-.0074ZM18.0862 77.0163l3.1002-2.9969-4.2955.5402-.3138-.6512 5.1098-.4958.2988.6216-3.5858 3.6332-.3137-.6437v-.0074ZM16.2483 72.9834l-.239-.6068 4.4897-1.7389.2391.6068-4.4898 1.7389Z"/><path fill="#fff" fill-rule="evenodd" d="m15.5231 71.1391.0006.002h-.0075l.0069-.002Zm0 0 4.6099-1.3817-.1868-.6216-1.9796.592-.4184-1.369c-.0822-.2516-.1046-.4366-.0822-.5698.0449-.2294.2092-.3995.508-.5031l.762-.2664c.1793-.0592.2988-.111.3586-.1406.0598-.0296.1419-.0962.1419-.0962l-.2316-.7622-.1045.0296c-.015.1036-.0897.1998-.2242.2812-.0821.0518-.2091.1036-.3809.1628l-.6126.2072c-.269.0888-.4482.1998-.5379.3256-.0896.1258-.1419.2886-.1643.4884-.1644-.1702-.3586-.2886-.5678-.3478-.2092-.0592-.4557-.0444-.7321.037-.5304.1628-.8292.4809-.8965.9619-.0373.259 0 .555.1046.8954l.6344 2.0773Zm1.1212-3.2613c.1643.1258.2913.333.381.6142v.0074l.4258 1.3912-1.5763.4735-.4482-1.4725c-.0598-.2072-.0822-.3848-.0598-.5254.0523-.2664.2391-.4514.5678-.5476.3063-.0888.5453-.0666.7097.0592ZM15.6284 61.5658c-.6574.1109-1.1654.3625-1.5314.7473l.0074.0074c-.4706.4884-.6275 1.1544-.4781 1.9831.142.7918.5454 1.3394 1.2028 1.6428.5154.2368 1.0907.296 1.7331.185.7097-.1258 1.27-.4144 1.6659-.8658.4109-.5032.5454-1.1099.4184-1.8351-.142-.7696-.523-1.3246-1.1505-1.6428-.5379-.2737-1.1579-.3477-1.8676-.2219Zm.127.6437c.5304-.0888 1.0235-.0444 1.4717.1332.4557.1776.7321.5476.8292 1.11.1046.592 0 1.0507-.3138 1.3763-.3137.3256-.7395.5402-1.2625.629-.6574.111-1.1803.0518-1.5762-.1998-.3885-.2516-.6275-.6142-.7172-1.1025-.0896-.4958.015-.925.2988-1.2728.2839-.3478.7097-.5772 1.27-.6734Z" clip-rule="evenodd"/><path fill="#fff" d="m13.2153 60.8924-.0448-.925 4.0042-1.5761-4.1387-1.1617-.0448-.9176 4.8184-.2368.0299.6142-2.8462.1406c-.0971 0-.2615.0074-.4856.0148-.2241.0074-.4706.0148-.7321.0296l4.1312 1.1617.0298.6438L13.94 60.256h.1494c.1195-.0148.2988-.0222.5378-.0444.2391-.0148.4184-.0296.5304-.037l2.8463-.1406.0299.6142-4.8185.2368v.0074ZM13.0361 54.9728l.2316-3.4557.5902.037-.1868 2.8267 1.4642.0962.1718-2.6121.5603.037-.1718 2.6121 1.6286.1036.1942-2.8785.5752.037-.2316 3.5074-4.8109-.3181-.015.0074ZM13.4097 50.3258l.1344-.7473 4.2582-1.6724-3.8398-.6733.112-.6068 4.7512.8287-.127.7178-4.2581 1.7094 3.8323.6733-.112.6068-4.7512-.8288v-.0074ZM15.3521 42.001l.5528.1554-.4482 1.5465 4.0789 1.1618-.1793.6289-4.0789-1.1617-.4482 1.5465-.5528-.1554 1.0832-3.722h-.0075Z"/><path fill="#fff" fill-rule="evenodd" d="m16.2484 39.7144-.2689.6807.0075-.0074 3.8398 3.4039.239-.6216-1.1579-.9989.6873-1.7612 1.524.0666.2614-.6585-5.1322-.1036Zm.523.6215 2.2486.0814-.5454 1.3986-1.7032-1.48Z" clip-rule="evenodd"/><path fill="#fff" d="m17.2492 37.3463.2913-.5771 3.795 1.8869 1.0832-2.1385.5155.2516-1.3821 2.7231-4.3104-2.146h.0075ZM24.2417 19.7059l1.5613-1.2728 5.0351 6.0826 3.7053-3.0117 1.1057 1.3319-5.2667 4.2845-6.1407-7.4145Z"/><path fill="#fff" fill-rule="evenodd" d="M37.0085 21.0228c.9936.3404 2.1067.1998 3.3393-.4218h.0075c1.2326-.6215 2.0021-1.4281 2.3158-2.4197.4557-1.2505.2839-2.6491-.5005-4.1808-.8068-1.5688-1.8452-2.5233-3.1152-2.8711-.9936-.3404-2.1066-.1998-3.3393.4218-1.2326.6216-2.0021 1.4281-2.3158 2.4197-.4706 1.2283-.3063 2.6195.493 4.1882.7844 1.5318 1.8228 2.4863 3.1152 2.8637Zm3.3542-6.1195c.4931.9693.6649 1.8129.5155 2.5455l-.0075-.0074c-.1494.7399-.5827 1.2801-1.2998 1.6427-.7172.3552-1.4194.3848-2.1142.074-.6947-.3108-1.2849-.9472-1.7779-1.9091-.4931-.962-.6574-1.813-.5005-2.5455.1568-.7326.5901-1.2876 1.3073-1.6428.7171-.3552 1.4194-.3774 2.1066-.0666.6873.3108 1.2775.9472 1.7705 1.9092Z" clip-rule="evenodd"/><path fill="#fff" d="m52.5997 6.6525 2.017-.3996-.7694 9.9305-1.8901.3773-2.256-5.2686-.7023-1.7537.0299 1.8869-.0299 5.7274-1.8377.3626-4.5943-8.8649 2.1067-.4217 2.3457 5.1354.5752 1.4429-.0224-1.5243-.0299-5.6238 2.0917-.4144 2.2188 5.1576.5901 1.4429v-1.5021l.1644-5.6904h-.0075ZM61.4219 6.3862l2.1365.296 1.0608 7.4959 3.1152-6.9187 2.0843.2886-4.6093 9.0424-1.89-.2589-1.8975-9.9453Z"/><path fill="#fff" fill-rule="evenodd" d="M70.5437 16.8343c.4109.9546 1.2625 1.6798 2.5549 2.1682 1.285.4883 2.4055.5179 3.3617.0814 1.2476-.5032 2.1814-1.5614 2.8014-3.1671.635-1.6354.6574-3.0413.0673-4.2105-.4109-.9545-1.2625-1.6797-2.5549-2.168-1.2849-.4885-2.413-.518-3.3617-.0815-1.2401.4736-2.1739 1.5318-2.8089 3.1671-.62 1.6057-.6425 3.0117-.0598 4.2104Zm6.8355-1.6353c-.3885 1.0064-.9114 1.7019-1.5613 2.0793h-.0075c-.6499.3774-1.3521.4218-2.0992.1406-.747-.2886-1.2401-.7843-1.4717-1.5021-.2316-.7104-.1494-1.5762.2391-2.5825.3959-1.0138.9189-1.702 1.5763-2.0793.6573-.3774 1.3596-.4292 2.1066-.1406.7471.2886 1.2401.7843 1.4642 1.5021.2241.7178.142 1.5761-.2465 2.5825Z" clip-rule="evenodd"/><path fill="#fff" d="M84.431 24.2267c-.9712.1332-1.9199-.1184-2.8463-.7474-1.1504-.7844-1.7929-1.7611-1.9423-2.9377-.1494-1.1765.2241-2.4049 1.1056-3.685.9563-1.3764 2.0693-2.1904 3.3319-2.4271 1.0981-.2072 2.1514.0295 3.1525.7103 1.3447.9176 2.017 2.0201 2.0319 3.3151 0 .7252-.1568 1.3393-.4706 1.8499l-1.6659-1.1321c.1569-.4514.2166-.8362.1793-1.1396-.0672-.5476-.3959-1.0285-.9861-1.4355-.6051-.4144-1.255-.4958-1.9349-.2516-.6872.2442-1.3372.8139-1.9497 1.6945-.6126.888-.889 1.6723-.8293 2.3679.0598.6956.381 1.2358.9488 1.6206.5827.3995 1.1579.5105 1.7331.3403.3138-.0887.6649-.2959 1.0608-.6289l1.651 1.1247c-.7396.7622-1.5987 1.2136-2.5624 1.3468l-.0074.0148ZM96.13 30.9312l1.8004 2.7971-.5006.3108-1.4492-2.2495-1.2326.777 1.2699 1.9757-.4856.3034-1.2699-1.9757-1.8527 1.1691-.3511-.5476 4.0714-2.5677v.0074Z"/><path fill="#fff" fill-rule="evenodd" d="m99.4245 36.5845-.9787-1.9462v-.0148l-4.3179 2.1312.2914.5771 1.8526-.9101.6425 1.2801c.1195.2294.1793.4144.1793.5476-.0075.2368-.1419.4292-.4183.5846l-.7023.3922a15.1202 15.1202 0 0 1-.1188.0687c-.1004.0576-.1713.0983-.2099.1311-.0523.0444-.0896.0813-.1195.1183l.3586.7104.0971-.0444c-.0075-.111.0523-.2146.1718-.3182.0673-.0592.1793-.1332.3437-.222l.5677-.3033c.2465-.1332.4034-.2664.4707-.407.0672-.1406.0971-.3108.0821-.5106.1943.1406.4034.2294.6201.2516.2166.0222.4557-.0296.7171-.1554.5006-.2442.7396-.6068.7247-1.0952-.0075-.259-.0897-.5476-.254-.8657Zm-1.5315 1.4577c-.1867-.1036-.3436-.2812-.4781-.5476l-.6574-1.3023 1.4717-.7252.6948 1.3764c.0971.1923.1419.3625.1419.5031 0 .2738-.1569.481-.4632.6364-.2839.1406-.5229.1554-.7097.0592Z" clip-rule="evenodd"/><path fill="#fff" d="m100.627 39.248.247.6068-4.4751 1.7834-.2466-.6068 4.4747-1.7834ZM101.367 41.0537l1.06 3.3003-.56.1776-.874-2.7009-1.3969.444.8069 2.4937-.5305.1702-.8068-2.4937-1.5538.4957.889 2.7453-.5454.1702-1.0757-3.352 4.5942-1.4504h-.007ZM102.734 45.5083l.149.7474-3.3392 3.1005 3.8172-.7622.127.6068-4.7286.9471-.1419-.7103 3.3315-3.1301-3.8171.7621-.127-.6067 4.7291-.9472v-.0074Z"/><path fill="#fff" fill-rule="evenodd" d="m103.847 52.4492-.165-1.9018V50.54l-4.8031.4144.1644 1.8944c.0672.8065.4855 1.3467 1.2397 1.6131.426.1554.897.2072 1.405.1628.657-.0518 1.188-.259 1.584-.6142.44-.3922.635-.9176.575-1.5613Zm-4.1463.7547c-.0523-.1332-.0897-.3034-.1121-.5179v.0074l-.0971-1.1248 3.6905-.3182.097 1.1174c.045.5032-.082.8953-.396 1.1469-.314.2516-.762.407-1.36.4588-.156.0148-.321.0148-.508 0-.306-.0296-.567-.0962-.769-.2072-.2615-.1406-.4408-.3256-.5453-.5624Z" clip-rule="evenodd"/><path fill="#fff" d="M104.033 55.572v.6438l-4.2578-.0666-.0374 2.3975h-.5752l.0523-3.0487 4.8181.074ZM104.003 58.6357l-.074.7548-2.443 1.147 2.174 1.5835-.075.7548-2.689-2.0719-1.9351-.185.0598-.6438 1.9353.185 3.04-1.5244h.007Z"/><ellipse cx="21.6941" cy="29.932" fill="#5D2B85" rx="1.5837" ry="1.5687"/><ellipse cx="91.9836" cy="26.7943" fill="#5D2B85" rx="1.5837" ry="1.5687"/><path fill="#6BAE44" d="M42.3576 77.0975c.1345.074.2764.1036.4109.0814 1.382-.2294 9.7862-.4736 12.2888-.5328v1.3171s-7.1417.8658-8.0904 5.9568c1.4193-1.0508 2.5175-2.1755 3.7501-2.9821 2.4653-1.5983 4.5495-2.3013 4.3403-1.3097.5454 3.1374-.5677 7.4367-.5677 7.4367s-5.8419.1332-8.5387 4.7506c3.2272-1.073 6.0884-3.7147 8.4939-2.8415.5901.2146-.2391 2.8193-2.0245 5.7422-.2465.3996-3.7054-.925-5.3713 2.4419-.112.222 2.1889-.9102 3.033-.9546.8442-.0444 1.1505.7918.9712.9842-.0523.0592-1.0235 1.6871-2.6446 2.8413-.8217.585-1.748 1.177-2.652 1.754-.254.163-2.764.34-3.018.496-.254.155 1.7331.303 1.4866.458-1.9124 1.184-3.3692 2.102-2.9508 2.257 1.1803.422 4.3403-1.213 7.3808-3.64.0523-.045.2614.311.2614.999s-.2315 1.716-.1643 1.687c1.2998-.592.9786-3.582 1.1953-3.774.7844-.703 1.5463-1.443 2.2336-2.2051.1046-.1184.4258.3625.6126 1.5761.1494.992-.1644 3.012-.0523 2.938 1.9124-1.251.3959-5.7425.5752-6.0237 1.4045-2.1977 2.159-4.6618 2.3457-4.6988 1.5315 1.9387 2.8463 3.759 3.795 7.6143.7396-3.2559-1.2924-7.7771-2.9583-8.8131.4632-4.8986.5678-5.6237.4184-7.1407-.1494-1.5169 4.8109 2.0719 7.2986 6.0974-.2839-4.647-7.7095-9.1757-7.7095-9.1757l.2017-3.796c3.2198.1332 14.164.555 14.8662.7029.2092.0444.4258-.0296.6051-.2293 3.1749 11.0847.3885 22.3175-7.6273 27.6227-11.5717 7.097-27.9021 3.249-32.7803 3.012 5.0276-3.885 10.7724-5.749 9.2783-13.127-2.7566-13.5785-1.1953-14.0891 1.3222-17.5299l-.0149.0074Z"/><path fill="#5D2B85" fill-rule="evenodd" d="M72.4859 76.2169c-.0224.4144-.1494.7104-.3138.9028l.015.0148c-.1793.1997-.396.2737-.6051.2293-.7097-.1553-9.9955-.5401-13.2153-.6733-.6798-.0296-1.0906-.0444-1.0906-.0444s-.2092.0074-.5678.0148c-2.5026.0592-12.5503.3034-13.9324.5328-.1344.0222-.2764-.0074-.4108-.0814-.2615-.1554-.4707-.5032-.4931-1.0656-.0373-.851-.2316-6.5266.6425-7.2369.6648-.5402 5.1919-1.0582 9.1961-1.3542 2.2486-2.8341 1.1952-11.8469.1419-19.4094-1.0683-7.6809 2.0394-15.1473 3.8697-19.2985.3362-.7696 1.4194-1.221 2.1067-.1184 2.0992 3.2929 4.7736 12.3279 3.8995 19.3281-.9636 7.6439-1.6509 16.7751.7172 19.4908 4.1685.3404 8.7927.9546 9.48 1.5244.8666.7251.6051 6.3933.5603 7.2443ZM55.9911 33.1505c0 .4662.381.8436.8517.8436.4706 0 .8516-.3774.8516-.8436v-1.6427c0-.4662-.381-.8436-.8516-.8436-.4707 0-.8517.3774-.8517.8436v1.6427Z" clip-rule="evenodd"/></svg>
